<svg width="59" height="56" viewBox="0 0 59 56" fill="none" xmlns="http://www.w3.org/2000/svg">
<rect y="9.72266" width="59" height="46" rx="20" fill="#F5F6FB"/>
<path d="M56.9145 11.2545C56.9109 11.2545 56.9072 11.2545 56.9037 11.2545H53.2239V9.99535C53.2437 9.49698 52.9213 9.04908 52.4423 8.90987C49.8877 8.2404 47.257 7.90471 44.616 7.91123C40.2741 7.91123 34.3582 8.88816 29.9837 13.3386C25.6418 8.84474 19.6825 7.91123 15.3514 7.91123C12.7104 7.90471 10.0798 8.2404 7.5251 8.90987C7.04613 9.04908 6.72374 9.49698 6.74355 9.99535V11.2437H3.08548C2.48602 11.2437 2 11.7297 2 12.3291V46.9994C2 47.5989 2.48602 48.0849 3.08548 48.0849C3.27191 48.0844 3.45509 48.0358 3.61737 47.9438C3.72592 47.8895 14.5807 41.9519 29.7341 45.7728H29.8969H29.9946C30.0811 45.7833 30.1685 45.7833 30.2551 45.7728C45.4518 41.9194 56.3066 47.8461 56.3718 47.9438C56.7076 48.1377 57.1214 48.1377 57.4573 47.9438C57.791 47.7511 57.9977 47.3958 58 47.0103V12.34C58 11.7405 57.5141 11.2545 56.9145 11.2545ZM4.17096 45.2735V13.4255H6.76526V40.6494C6.75848 41.2488 7.23894 41.7403 7.8384 41.7471C7.89701 41.7477 7.95563 41.7437 8.01357 41.7348C10.2592 41.392 12.5263 41.2106 14.7978 41.1921C17.9444 41.1376 21.0777 41.6108 24.0678 42.5924C17.3155 41.7758 10.4663 42.6987 4.17096 45.2735ZM14.7978 39.032C12.8235 39.0365 10.8514 39.1633 8.89281 39.4119V10.8529C11.0062 10.3821 13.1644 10.1418 15.3297 10.1365C19.3894 10.1365 24.9905 11.07 28.8765 15.4553L28.9091 42.4947C26.6513 41.0184 22.2442 39.032 14.7978 39.032ZM31.0801 15.4553C34.9661 11.1134 40.5672 10.1365 44.6269 10.1365C46.792 10.1428 48.9502 10.383 51.0638 10.8529V39.4119C49.1161 39.161 47.155 39.0305 45.1913 39.0211C37.7883 39.0211 33.3704 41.0076 31.0801 42.4838V15.4553ZM55.8182 45.2735C49.5094 42.6917 42.6445 41.7686 35.8779 42.5924C38.8821 41.6073 42.0304 41.1339 45.1913 41.1921C47.4771 41.2049 49.7589 41.3826 52.019 41.724C52.6117 41.8139 53.1651 41.4063 53.2551 40.8137C53.2639 40.7557 53.268 40.6971 53.2673 40.6385V13.4255H55.8616L55.8182 45.2735Z" />
</svg>
