<svg width="56" height="56" viewBox="0 0 56 56" fill="none" xmlns="http://www.w3.org/2000/svg">
<path d="M54.9145 11.2545C54.9109 11.2545 54.9072 11.2545 54.9037 11.2545H51.2239V9.99535C51.2437 9.49698 50.9213 9.04908 50.4423 8.90987C47.8877 8.2404 45.257 7.90471 42.616 7.91123C38.2741 7.91123 32.3582 8.88816 27.9837 13.3386C23.6418 8.84474 17.6825 7.91123 13.3514 7.91123C10.7104 7.90471 8.07978 8.2404 5.5251 8.90987C5.04613 9.04908 4.72374 9.49698 4.74355 9.99535V11.2437H1.08548C0.486024 11.2437 0 11.7297 0 12.3291V46.9994C0 47.5989 0.486024 48.0849 1.08548 48.0849C1.27191 48.0844 1.45509 48.0358 1.61737 47.9438C1.72592 47.8895 12.5807 41.9519 27.7341 45.7728H27.8969H27.9946C28.0811 45.7833 28.1685 45.7833 28.2551 45.7728C43.4518 41.9194 54.3066 47.8461 54.3718 47.9438C54.7076 48.1377 55.1214 48.1377 55.4573 47.9438C55.791 47.7511 55.9977 47.3958 56 47.0103V12.34C56 11.7405 55.5141 11.2545 54.9145 11.2545ZM2.17096 45.2735V13.4255H4.76526V40.6494C4.75848 41.2488 5.23894 41.7403 5.8384 41.7471C5.89701 41.7477 5.95563 41.7437 6.01357 41.7348C8.25916 41.392 10.5263 41.2106 12.7978 41.1921C15.9444 41.1376 19.0777 41.6108 22.0678 42.5924C15.3155 41.7758 8.46635 42.6987 2.17096 45.2735ZM12.7978 39.032C10.8235 39.0365 8.85142 39.1633 6.89281 39.4119V10.8529C9.00624 10.3821 11.1644 10.1418 13.3297 10.1365C17.3894 10.1365 22.9905 11.07 26.8765 15.4553L26.9091 42.4947C24.6513 41.0184 20.2442 39.032 12.7978 39.032ZM29.0801 15.4553C32.9661 11.1134 38.5672 10.1365 42.6269 10.1365C44.792 10.1428 46.9502 10.383 49.0638 10.8529V39.4119C47.1161 39.161 45.155 39.0305 43.1913 39.0211C35.7883 39.0211 31.3704 41.0076 29.0801 42.4838V15.4553ZM53.8182 45.2735C47.5094 42.6917 40.6445 41.7686 33.8779 42.5924C36.8821 41.6073 40.0304 41.1339 43.1913 41.1921C45.4771 41.2049 47.7589 41.3826 50.019 41.724C50.6117 41.8139 51.1651 41.4063 51.2551 40.8137C51.2639 40.7557 51.268 40.6971 51.2673 40.6385V13.4255H53.8616L53.8182 45.2735Z" fill="#071F41"/>
</svg>
