<svg width="59" height="56" viewBox="0 0 59 56" fill="none" xmlns="http://www.w3.org/2000/svg">
<rect y="9.72266" width="59" height="46" rx="20" fill="#F5F6FB"/>
<path d="M55.8581 22.4358L54.6376 21.1435L50.3538 9.5965C49.6239 7.64607 47.7573 6.35376 45.6752 6.3418H15.0786C12.9966 6.3418 11.1299 7.64607 10.4 9.5965L6.17607 20.9999L4.41709 22.6273C2.88547 23.9315 2 25.8461 2 27.8563V44.6803C2.01197 47.4324 4.24957 49.658 7.00171 49.658H10.1607C12.9128 49.658 15.1504 47.4324 15.1624 44.6803V42.2392H44.8376V44.6803C44.8496 47.4324 47.0872 49.658 49.8393 49.658H52.9983C55.7504 49.658 57.988 47.4324 58 44.6803V27.4136C57.988 25.535 57.2222 23.7401 55.8581 22.4358ZM12.6496 10.4102C13.0325 9.39308 14.0017 8.73496 15.0786 8.73496H45.6872C46.7641 8.73496 47.7333 9.40504 48.1162 10.4102L51.8496 20.4615H49.0615C48.4034 15.9743 44.2273 12.8751 39.7402 13.5452C36.1624 14.0717 33.3504 16.8837 32.8239 20.4615H8.91624L12.6496 10.4102ZM46.6205 20.4615H35.241C35.8991 17.3144 38.9863 15.3042 42.1333 15.9623C44.3829 16.4409 46.1419 18.1999 46.6205 20.4615ZM12.7692 44.6803C12.7573 46.1162 11.5966 47.2649 10.1607 47.2649H7.00171C5.56581 47.2649 4.40513 46.1162 4.39316 44.6803V41.5452C5.11111 42.0119 6.05641 42.2392 7.00171 42.2392H12.7692V44.6803ZM55.6068 44.6803C55.5949 46.1162 54.4342 47.2649 52.9983 47.2649H49.8393C48.4034 47.2649 47.2427 46.1042 47.2308 44.6803V42.2392H52.9983C53.9436 42.2392 54.8889 42.0119 55.6068 41.5452V44.6803ZM52.9983 39.8461H7.00171C5.57778 39.858 4.40513 38.7213 4.39316 37.2854V27.8563C4.39316 26.5401 4.97949 25.2837 5.98462 24.4341C5.99658 24.4221 6.02051 24.3982 6.03248 24.3862L7.65983 22.8546H52.9744L54.1231 24.0871C54.135 24.111 54.1709 24.123 54.1829 24.1469C55.0803 24.9965 55.5949 26.1811 55.5949 27.4136V37.2854H55.6068C55.5949 38.7093 54.4222 39.858 52.9983 39.8461Z"/>
<path d="M17.7948 27.6411H8.82048C8.16236 27.6411 7.6239 28.1796 7.6239 28.8377V35.0599C7.6239 35.718 8.16236 36.2565 8.82048 36.2565H17.7948C18.453 36.2565 18.9914 35.718 18.9914 35.0599V28.8377C18.9914 28.1796 18.453 27.6411 17.7948 27.6411ZM16.5983 33.8633H10.0171V30.0343H16.5983V33.8633Z" />
<path d="M51.1795 27.6411H42.2051C41.547 27.6411 41.0085 28.1796 41.0085 28.8377V35.0599C41.0085 35.718 41.547 36.2565 42.2051 36.2565H51.1795C51.8376 36.2565 52.3761 35.718 52.3761 35.0599V28.8377C52.3761 28.1796 51.8376 27.6411 51.1795 27.6411ZM49.9829 33.8633H43.4017V30.0343H49.9829V33.8633Z" />
<path d="M35.7796 32.6665H24.2206C23.5624 32.6665 23.024 33.205 23.024 33.8631C23.024 34.5212 23.5624 35.0597 24.2206 35.0597H35.7796C36.4377 35.0597 36.9761 34.5212 36.9761 33.8631C36.9761 33.205 36.4377 32.6665 35.7796 32.6665Z" />
<path d="M35.7796 28.957H24.2206C23.5624 28.957 23.024 29.4955 23.024 30.1536C23.024 30.8117 23.5624 31.3502 24.2206 31.3502H35.7796C36.4377 31.3502 36.9761 30.8117 36.9761 30.1536C36.9761 29.4955 36.4377 28.957 35.7796 28.957Z" />
</svg>
