<svg width="59" height="56" viewBox="0 0 59 56" fill="none" xmlns="http://www.w3.org/2000/svg">
<rect y="9.72266" width="59" height="46" rx="20" fill="#F5F6FB"/>
<g clip-path="url(#clip0_17101_85)">
<path d="M56.2851 23.6511H52.9474C52.3288 23.6511 51.7836 23.9689 51.4649 24.4492C48.9134 24.1826 48.5733 23.7737 48.2977 23.4404C47.9226 22.9871 47.4778 22.6026 46.9754 22.2975L39.3059 17.6389C37.7439 14.0107 35.1312 11.7424 33.1924 10.4709C32.4375 9.97577 31.9867 9.13708 31.9867 8.22748C31.9867 7.69086 32.1448 7.17218 32.4439 6.72699L34.3511 3.88837C34.7313 3.32312 34.8625 2.64465 34.7211 1.97815C34.5797 1.31165 34.184 0.745117 33.6073 0.382385C33.2086 0.132446 32.7494 0 32.2794 0H23.2175C22.7471 0 22.2878 0.132446 21.8896 0.382385C21.3128 0.74469 20.9172 1.31122 20.7758 1.97815C20.6344 2.64465 20.7655 3.32312 21.1458 3.88837L23.053 6.72699C23.3521 7.17218 23.5102 7.69086 23.5102 8.22748C23.5102 9.13708 23.0594 9.97577 22.3045 10.4709C19.4312 12.3551 13.0106 17.9084 15.4382 28.7618C16.7921 34.8154 17.838 39.0819 18.4669 41.1348H4.94076C3.82522 41.1348 2.84981 41.9278 2.62209 43.0198L2.15981 45.239C2.01369 45.9401 2.18886 46.6608 2.64089 47.2167C3.09249 47.7721 3.76241 48.0908 4.47848 48.0908H51.0184C51.7349 48.0908 52.4044 47.7721 52.8564 47.2167C53.308 46.6608 53.4832 45.9401 53.3371 45.239L52.8748 43.0198C52.6471 41.9278 51.6717 41.1348 50.5561 41.1348H37.0299C37.2179 40.5209 37.4448 39.704 37.7075 38.6923H38.5979C41.2105 38.6923 43.7996 38.3022 46.2956 37.5327L51.3939 36.8901C51.6986 37.4344 52.2801 37.804 52.9474 37.804H56.2851C57.2656 37.804 58.0637 37.0063 58.0637 36.0254V25.4301C58.0637 24.4492 57.2656 23.6511 56.2851 23.6511ZM22.3809 2.31866C22.4292 2.09009 22.5647 1.89612 22.7625 1.77179C22.8992 1.68591 23.0564 1.64062 23.2175 1.64062H32.2794C32.4405 1.64062 32.5981 1.68591 32.7344 1.77179C32.9322 1.89612 33.0676 2.09009 33.1164 2.31866C33.1646 2.54681 33.1193 2.77966 32.9895 2.97321L32.0457 4.37799H23.4512L22.5074 2.97321C22.3771 2.77966 22.3322 2.54681 22.3809 2.31866ZM23.2038 11.8428C24.4232 11.0435 25.1512 9.69165 25.1512 8.22748C25.1512 7.44519 24.9401 6.68726 24.5428 6.01862H30.9541C30.5567 6.68726 30.3461 7.44519 30.3461 8.22748C30.3461 9.69165 31.0737 11.0435 32.2931 11.8428C32.7955 12.1722 33.3479 12.5756 33.9136 13.0605H21.588C22.1622 12.5674 22.7159 12.1628 23.2038 11.8428ZM51.2688 43.3548L51.731 45.5739C51.7926 45.8687 51.6648 46.0811 51.5832 46.1815C51.5016 46.2819 51.3196 46.4502 51.0184 46.4502H4.47848C4.17727 46.4502 3.99526 46.2819 3.91366 46.1815C3.83205 46.0811 3.70431 45.8687 3.76583 45.5739L4.22811 43.3548C4.29818 43.019 4.5981 42.7755 4.94076 42.7755H50.5557C50.8988 42.7755 51.1983 43.019 51.2688 43.3548ZM35.3081 41.1348H20.1887C19.8508 40.1278 18.9929 37.1362 17.0391 28.4033C16.2154 24.7209 16.4123 21.3871 17.6206 18.4698H20.6425C21.0958 18.4698 21.4628 18.1028 21.4628 17.6495C21.4628 17.1962 21.0958 16.8292 20.6425 16.8292H18.434C18.8972 16.0311 19.4124 15.324 19.9469 14.7011H35.5559C36.0917 15.3257 36.6057 16.0333 37.0662 16.8292H23.928C23.4747 16.8292 23.1077 17.1962 23.1077 17.6495C23.1077 18.1028 23.4747 18.4698 23.928 18.4698H34.7989C34.5899 18.9804 34.5472 19.5418 34.6809 20.0878C34.8488 20.7701 35.2722 21.3469 35.8721 21.7101L37.2824 22.5667H28.165C26.7171 22.5667 25.543 23.6805 25.4926 25.1024C25.4789 25.481 25.5447 25.8488 25.6823 26.188H24.841C24.1203 26.188 23.4482 26.4734 22.9475 26.9921C22.4476 27.5104 22.1857 28.1931 22.2118 28.9143C22.2515 30.041 22.997 30.9741 24.0254 31.3133C23.8626 31.6551 23.7716 32.037 23.7716 32.4404C23.7716 33.8909 24.9521 35.0714 26.4026 35.0714H27.6455C27.5207 35.3773 27.4519 35.7118 27.4519 36.0617C27.4519 37.5126 28.6324 38.6927 30.0829 38.6927H36.0118C35.667 39.9966 35.4453 40.7277 35.3081 41.1348ZM46.0192 35.9139C45.9709 35.9199 45.9239 35.9301 45.8778 35.9442C43.5185 36.6791 41.0691 37.0516 38.5979 37.0516H30.0829C29.5369 37.0516 29.0926 36.6073 29.0926 36.0613C29.0926 35.5153 29.5369 35.0709 30.0829 35.0709H35.4598C35.9127 35.0709 36.2801 34.7035 36.2801 34.2506C36.2801 33.7973 35.9127 33.4303 35.4598 33.4303H26.4026C25.8566 33.4303 25.4123 32.986 25.4123 32.4399C25.4123 31.8939 25.8566 31.4496 26.4026 31.4496H35.4598C35.9127 31.4496 36.2801 31.0826 36.2801 30.6293C36.2801 30.176 35.9127 29.809 35.4598 29.809H24.8842C24.333 29.809 23.8699 29.3813 23.8511 28.8553C23.8417 28.5836 23.94 28.326 24.128 28.1307C24.3168 27.9359 24.5697 27.8282 24.841 27.8282H35.4598C35.9127 27.8282 36.2801 27.4608 36.2801 27.0079C36.2801 26.5546 35.9127 26.1876 35.4598 26.1876H28.1218C27.8505 26.1876 27.5972 26.08 27.4088 25.8847C27.2208 25.6899 27.1225 25.4323 27.1319 25.1601C27.1507 24.6346 27.6143 24.2069 28.165 24.2069H39.4721C39.9382 24.2069 40.336 23.9053 40.462 23.4562C40.5876 23.0072 40.4043 22.5428 40.0057 22.301L36.7232 20.307C36.4967 20.1699 36.3378 19.9532 36.2746 19.696C36.2113 19.4393 36.2519 19.1731 36.3891 18.9471C36.6719 18.4797 37.2824 18.3301 37.7486 18.6121L46.1239 23.6993C46.4695 23.9091 46.7754 24.174 47.0335 24.4859C47.7042 25.2964 48.5656 25.7826 51.1684 26.0671V35.264L46.0192 35.9139ZM56.4231 36.0254C56.4231 36.1014 56.3611 36.1634 56.2851 36.1634H52.9474C52.8714 36.1634 52.809 36.1014 52.809 36.0254V25.4297C52.809 25.3536 52.8709 25.2917 52.9474 25.2917H56.2851C56.3611 25.2917 56.4231 25.3536 56.4231 25.4297V36.0254Z" />
<path d="M41.3344 53.3537L37.0619 49.9165C36.709 49.6324 36.1924 49.6888 35.9088 50.0417C35.6246 50.3946 35.6806 50.9111 36.0335 51.1948L39.9676 54.3594H15.5291L19.4713 51.1884C19.8242 50.9047 19.8802 50.3882 19.5961 50.0353C19.3124 49.6819 18.7958 49.6264 18.4429 49.9101L14.1624 53.3533C13.6638 53.7544 13.4792 54.4034 13.6915 55.0067C13.9039 55.61 14.455 56 15.0946 56H40.4021C41.0417 56 41.5924 55.6104 41.8052 55.0067C42.0175 54.4034 41.833 53.7544 41.3344 53.3537Z" />
</g>
<defs>
<clipPath id="clip0_17101_85">
<rect width="56" height="56" fill="white" transform="translate(2)"/>
</clipPath>
</defs>
</svg>
