<svg width="59" height="56" viewBox="0 0 59 56" fill="none" xmlns="http://www.w3.org/2000/svg">
<rect y="9.72266" width="59" height="46" rx="20" fill="#F5F6FB"/>
<path d="M15.5353 4.72461C15.0764 4.72461 14.7043 5.09659 14.7043 5.55553V5.90706C14.7043 6.36589 15.0763 6.73798 15.5353 6.73798C15.9941 6.73798 16.3662 6.366 16.3662 5.90706V5.55553C16.3661 5.09659 15.9941 4.72461 15.5353 4.72461Z" />
<path d="M13.1192 7.4917H12.7678C12.309 7.4917 11.9369 7.86368 11.9369 8.32262C11.9369 8.78145 12.3089 9.15354 12.7678 9.15354H13.1192C13.5781 9.15354 13.9502 8.78156 13.9502 8.32262C13.9502 7.86379 13.5782 7.4917 13.1192 7.4917Z" />
<path d="M14.4144 6.02695L14.1657 5.77845C13.8413 5.45404 13.3151 5.45404 12.9907 5.77856C12.6663 6.10307 12.6663 6.62917 12.9908 6.95357L13.2394 7.20207C13.4016 7.36428 13.6143 7.44543 13.8269 7.44543C14.0395 7.44543 14.2523 7.36428 14.4145 7.20196C14.7389 6.87745 14.7389 6.35135 14.4144 6.02695Z" />
<path d="M14.4144 9.44358C14.0899 9.11907 13.5638 9.11907 13.2393 9.44358L12.9907 9.69219C12.6662 10.0166 12.6662 10.5428 12.9907 10.8672C13.1529 11.0294 13.3655 11.1106 13.5783 11.1106C13.7909 11.1106 14.0035 11.0294 14.1658 10.8672L14.4144 10.6186C14.739 10.2942 14.739 9.76799 14.4144 9.44358Z" />
<path d="M51.7966 6.85344H23.7263C23.4095 5.07598 22.5219 3.44805 21.1799 2.20795C19.6392 0.784109 17.6344 0 15.5353 0C10.946 0 7.2124 3.73363 7.2124 8.32289C7.2124 12.9122 10.946 16.6458 15.5353 16.6458C16.3779 16.6458 17.2059 16.5178 18.0049 16.269C19.2569 17.4502 20.8082 18.3339 22.5601 18.7895C23.6919 19.0839 24.5518 20.0179 24.7506 21.1692L25.8067 27.2869C26.1799 29.4483 27.3826 31.322 29.1934 32.5629C30.5664 33.5037 31.386 35.0378 31.386 36.6667V49.1358C30.7525 49.5373 30.3467 50.243 30.3467 51.0216C30.3467 51.0453 30.3471 51.0689 30.3478 51.0926C28.2718 51.5169 26.5618 51.9077 25.2638 52.2545C24.3795 52.4907 23.7124 52.6991 23.2242 52.8915C22.7695 53.0707 21.9229 53.4044 21.9229 54.1789C21.9229 55.2196 23.276 55.3972 24.3632 55.5401C25.2972 55.6628 26.5912 55.765 28.2093 55.844C30.9428 55.9776 33.712 55.9998 33.7397 56C33.7417 56 33.7438 56 33.7459 56C33.748 56 33.7502 56 33.7521 56C33.7798 55.9998 36.549 55.9775 39.2825 55.844C40.9006 55.765 42.1946 55.6628 43.1286 55.5401C44.2158 55.3972 45.5689 55.2196 45.5689 54.1789C45.5689 53.3558 44.8098 52.9312 42.0374 52.2039C40.3574 51.7632 38.2644 51.3183 36.7613 51.0147C36.7595 50.4148 36.521 49.8541 36.1058 49.4417V36.6665C36.1058 35.0377 36.9255 33.5036 38.2985 32.5628C40.1092 31.3219 41.3119 29.4482 41.6851 27.2868L42.7412 21.1691C42.94 20.0178 43.7998 19.0838 44.9317 18.7894C48.7271 17.8024 51.5817 14.8092 52.4845 11.1234C52.488 11.1092 52.4917 11.0952 52.4945 11.0808C52.6852 10.2879 52.7875 9.464 52.7875 8.62061V7.84459C52.7876 7.29805 52.343 6.85344 51.7966 6.85344ZM15.5353 14.9839C11.8624 14.9839 8.87425 11.9958 8.87425 8.32289C8.87425 4.64997 11.8624 1.66184 15.5353 1.66184C17.2152 1.66184 18.8193 2.28922 20.0522 3.42847C21.0525 4.3528 21.737 5.54575 22.0313 6.85344H21.1802C20.5225 4.31988 18.214 2.48828 15.5353 2.48828C12.318 2.48828 9.70068 5.10573 9.70068 8.32289C9.70068 11.54 12.3181 14.1575 15.5353 14.1575C15.7748 14.1575 16.0149 14.1413 16.254 14.1115C16.4135 14.3717 16.5842 14.6244 16.7654 14.8695C16.3616 14.9454 15.9506 14.9839 15.5353 14.9839ZM18.0797 5.7785C17.7553 5.45409 17.2291 5.45409 16.9047 5.7785L16.6562 6.027C16.4324 6.25067 16.363 6.57027 16.4478 6.85344H15.6955C15.149 6.85344 14.7044 7.29805 14.7044 7.84459V8.62061C14.7044 9.46378 14.8066 10.2875 14.9973 11.0801C15.0002 11.0955 15.0042 11.1105 15.0079 11.1256C15.1226 11.5935 15.2678 12.0506 15.4434 12.4935C13.1849 12.4442 11.3624 10.593 11.3624 8.32289C11.3624 6.02197 13.2344 4.15002 15.5353 4.15002C17.3006 4.15002 18.8416 5.2617 19.4406 6.85344H18.1639C18.4002 6.52848 18.3727 6.07152 18.0797 5.7785ZM36.3099 52.6189C39.2309 53.2067 41.0648 53.6522 42.2126 53.974C40.1135 54.1802 36.7462 54.3152 33.746 54.3382C30.7465 54.3152 27.3795 54.1802 25.2803 53.9742C26.3781 53.6663 28.103 53.2454 30.8063 52.6949C31.5541 52.5428 32.0718 51.8425 32.0104 51.0666C32.0092 51.0518 32.0086 51.0367 32.0086 51.0215C32.0086 50.7641 32.1826 50.5378 32.4319 50.471C32.7952 50.3738 33.0479 50.0445 33.0479 49.6684V36.6665C33.0479 35.5725 32.7725 34.5115 32.267 33.568C32.7314 33.5981 33.2385 33.6135 33.746 33.6135C34.2535 33.6135 34.7606 33.5981 35.225 33.568C34.7196 34.5116 34.4441 35.5726 34.4441 36.6665V49.8361C34.4441 50.1212 34.5904 50.3864 34.8314 50.5386C34.9993 50.6446 35.0996 50.825 35.0996 51.0214C35.0996 51.034 35.0992 51.0466 35.0985 51.0581C35.0506 51.7995 35.5714 52.4704 36.3099 52.6189ZM51.126 8.62061H51.1259C51.1259 9.12013 51.0839 9.61166 51.0032 10.0917H25.989C25.5302 10.0917 25.1581 10.4637 25.1581 10.9226C25.1581 11.3815 25.5301 11.7535 25.989 11.7535H50.5522C49.5587 14.3772 47.3481 16.4442 44.5138 17.1812C42.7518 17.6393 41.4134 19.0937 41.104 20.8865L40.0479 27.0041C39.7517 28.7198 38.7969 30.2071 37.3594 31.1921C37.1365 31.3449 36.4746 31.7017 36.3538 31.7555C35.6963 32.0147 31.8013 32.0148 31.1394 31.756C31.019 31.7028 30.3563 31.3453 30.1327 31.1922C28.6952 30.2071 27.7404 28.7198 27.4443 27.0042L26.3881 20.8866C26.0787 19.0938 24.7402 17.6395 22.9784 17.1813C21.3746 16.7642 19.9709 15.921 18.8736 14.7925C18.8476 14.7604 18.8191 14.7308 18.789 14.7033C17.9876 13.856 17.3566 12.8541 16.9399 11.7537H22.1232C22.582 11.7537 22.9541 11.3817 22.9541 10.9227C22.9541 10.4639 22.5821 10.0918 22.1232 10.0918H16.4889C16.4082 9.61177 16.3662 9.12013 16.3662 8.62072V8.51528H51.126V8.62061V8.62061Z"/>
</svg>
