<svg width="64" height="64" viewBox="0 0 64 64" fill="none" xmlns="http://www.w3.org/2000/svg">
<g clip-path="url(#clip0_11_856)" filter="url(#filter0_dd_11_856)">
<rect x="2" y="9.72266" width="59" height="46" rx="20" stroke="none"/>
<path d="M17.5353 4.72461C17.0764 4.72461 16.7043 5.09659 16.7043 5.55553V5.90706C16.7043 6.36589 17.0763 6.73798 17.5353 6.73798C17.9941 6.73798 18.3662 6.366 18.3662 5.90706V5.55553C18.3661 5.09659 17.9941 4.72461 17.5353 4.72461Z"/>
<path d="M15.1192 7.4917H14.7678C14.309 7.4917 13.9369 7.86368 13.9369 8.32262C13.9369 8.78145 14.3089 9.15354 14.7678 9.15354H15.1192C15.5781 9.15354 15.9502 8.78156 15.9502 8.32262C15.9502 7.86379 15.5782 7.4917 15.1192 7.4917Z"/>
<path d="M16.4144 6.02695L16.1657 5.77845C15.8413 5.45404 15.3151 5.45404 14.9907 5.77856C14.6663 6.10307 14.6663 6.62917 14.9908 6.95357L15.2394 7.20207C15.4016 7.36428 15.6143 7.44543 15.8269 7.44543C16.0395 7.44543 16.2523 7.36428 16.4145 7.20196C16.7389 6.87745 16.7389 6.35135 16.4144 6.02695Z"/>
<path d="M16.4144 9.44358C16.0899 9.11907 15.5638 9.11907 15.2393 9.44358L14.9907 9.69219C14.6662 10.0166 14.6662 10.5428 14.9907 10.8672C15.1529 11.0294 15.3655 11.1106 15.5783 11.1106C15.7909 11.1106 16.0035 11.0294 16.1658 10.8672L16.4144 10.6186C16.739 10.2942 16.739 9.76799 16.4144 9.44358Z"/>
<path d="M53.7966 6.85344H25.7263C25.4095 5.07598 24.5219 3.44805 23.1799 2.20795C21.6392 0.784109 19.6344 0 17.5353 0C12.946 0 9.2124 3.73363 9.2124 8.32289C9.2124 12.9122 12.946 16.6458 17.5353 16.6458C18.3779 16.6458 19.2059 16.5178 20.0049 16.269C21.2569 17.4502 22.8082 18.3339 24.5601 18.7895C25.6919 19.0839 26.5518 20.0179 26.7506 21.1692L27.8067 27.2869C28.1799 29.4483 29.3826 31.322 31.1934 32.5629C32.5664 33.5037 33.386 35.0378 33.386 36.6667V49.1358C32.7525 49.5373 32.3467 50.243 32.3467 51.0216C32.3467 51.0453 32.3471 51.0689 32.3478 51.0926C30.2718 51.5169 28.5618 51.9077 27.2638 52.2545C26.3795 52.4907 25.7124 52.6991 25.2242 52.8915C24.7695 53.0707 23.9229 53.4044 23.9229 54.1789C23.9229 55.2196 25.276 55.3972 26.3632 55.5401C27.2972 55.6628 28.5912 55.765 30.2093 55.844C32.9428 55.9776 35.712 55.9998 35.7397 56C35.7417 56 35.7438 56 35.7459 56C35.748 56 35.7502 56 35.7521 56C35.7798 55.9998 38.549 55.9775 41.2825 55.844C42.9006 55.765 44.1946 55.6628 45.1286 55.5401C46.2158 55.3972 47.5689 55.2196 47.5689 54.1789C47.5689 53.3558 46.8098 52.9312 44.0374 52.2039C42.3574 51.7632 40.2644 51.3183 38.7613 51.0147C38.7595 50.4148 38.521 49.8541 38.1058 49.4417V36.6665C38.1058 35.0377 38.9255 33.5036 40.2985 32.5628C42.1092 31.3219 43.3119 29.4482 43.6851 27.2868L44.7412 21.1691C44.94 20.0178 45.7998 19.0837 46.9317 18.7894C50.7271 17.8024 53.5817 14.8092 54.4845 11.1234C54.488 11.1092 54.4917 11.0952 54.4945 11.0808C54.6852 10.2879 54.7875 9.464 54.7875 8.62061V7.84459C54.7876 7.29805 54.343 6.85344 53.7966 6.85344ZM17.5353 14.9839C13.8624 14.9839 10.8742 11.9958 10.8742 8.32289C10.8742 4.64997 13.8624 1.66184 17.5353 1.66184C19.2152 1.66184 20.8193 2.28922 22.0522 3.42847C23.0525 4.3528 23.737 5.54575 24.0313 6.85344H23.1802C22.5225 4.31988 20.214 2.48828 17.5353 2.48828C14.318 2.48828 11.7007 5.10573 11.7007 8.32289C11.7007 11.54 14.3181 14.1575 17.5353 14.1575C17.7748 14.1575 18.0149 14.1413 18.254 14.1115C18.4135 14.3717 18.5842 14.6244 18.7654 14.8695C18.3616 14.9454 17.9506 14.9839 17.5353 14.9839ZM20.0797 5.7785C19.7553 5.45409 19.2291 5.45409 18.9047 5.7785L18.6562 6.027C18.4324 6.25067 18.363 6.57027 18.4478 6.85344H17.6955C17.149 6.85344 16.7044 7.29805 16.7044 7.84459V8.62061C16.7044 9.46378 16.8066 10.2875 16.9973 11.0801C17.0002 11.0955 17.0042 11.1105 17.0079 11.1256C17.1226 11.5935 17.2678 12.0506 17.4434 12.4935C15.1849 12.4443 13.3624 10.593 13.3624 8.32289C13.3624 6.02197 15.2344 4.15002 17.5353 4.15002C19.3006 4.15002 20.8416 5.2617 21.4406 6.85344H20.1639C20.4002 6.52848 20.3727 6.07152 20.0797 5.7785ZM38.3099 52.6189C41.2309 53.2067 43.0648 53.6522 44.2126 53.974C42.1135 54.1802 38.7462 54.3152 35.746 54.3382C32.7465 54.3152 29.3795 54.1802 27.2803 53.9742C28.3781 53.6663 30.103 53.2454 32.8063 52.6949C33.5541 52.5428 34.0718 51.8425 34.0104 51.0666C34.0092 51.0518 34.0086 51.0367 34.0086 51.0215C34.0086 50.7641 34.1826 50.5378 34.4319 50.471C34.7952 50.3737 35.0479 50.0445 35.0479 49.6684V36.6665C35.0479 35.5725 34.7725 34.5115 34.267 33.568C34.7314 33.5981 35.2385 33.6135 35.746 33.6135C36.2535 33.6135 36.7606 33.5981 37.225 33.568C36.7196 34.5116 36.4441 35.5726 36.4441 36.6665V49.8361C36.4441 50.1212 36.5904 50.3864 36.8314 50.5386C36.9993 50.6446 37.0996 50.825 37.0996 51.0214C37.0996 51.034 37.0992 51.0466 37.0985 51.0581C37.0506 51.7994 37.5714 52.4704 38.3099 52.6189ZM53.126 8.62061H53.1259C53.1259 9.12012 53.0839 9.61166 53.0032 10.0917H27.989C27.5302 10.0917 27.1581 10.4637 27.1581 10.9226C27.1581 11.3815 27.5301 11.7535 27.989 11.7535H52.5522C51.5587 14.3772 49.3481 16.4442 46.5138 17.1812C44.7518 17.6393 43.4134 19.0937 43.104 20.8865L42.0479 27.0041C41.7517 28.7198 40.7969 30.2071 39.3594 31.1921C39.1365 31.3449 38.4746 31.7017 38.3538 31.7555C37.6963 32.0147 33.8013 32.0148 33.1394 31.756C33.019 31.7028 32.3563 31.3453 32.1327 31.1922C30.6952 30.2071 29.7404 28.7198 29.4443 27.0042L28.3881 20.8866C28.0787 19.0938 26.7402 17.6395 24.9784 17.1813C23.3746 16.7642 21.9709 15.921 20.8736 14.7925C20.8476 14.7604 20.8191 14.7308 20.789 14.7033C19.9876 13.856 19.3566 12.8541 18.9399 11.7537H24.1232C24.582 11.7537 24.9541 11.3817 24.9541 10.9227C24.9541 10.4639 24.5821 10.0918 24.1232 10.0918H18.4889C18.4082 9.61176 18.3662 9.12012 18.3662 8.62072V8.51528H53.126V8.62061Z"/>
</g>
<defs>
<filter id="filter0_dd_11_856" x="0" y="0" width="64" height="64" filterUnits="userSpaceOnUse" color-interpolation-filters="sRGB">
<feFlood flood-opacity="0" result="BackgroundImageFix"/>
<feColorMatrix in="SourceAlpha" type="matrix" values="0 0 0 0 0 0 0 0 0 0 0 0 0 0 0 0 0 0 127 0" result="hardAlpha"/>
<feOffset dy="4"/>
<feGaussianBlur stdDeviation="2"/>
<feComposite in2="hardAlpha" operator="out"/>
<feColorMatrix type="matrix" values="0 0 0 0 0 0 0 0 0 0 0 0 0 0 0 0 0 0 0.25 0"/>
<feBlend mode="normal" in2="BackgroundImageFix" result="effect1_dropShadow_11_856"/>
<feColorMatrix in="SourceAlpha" type="matrix" values="0 0 0 0 0 0 0 0 0 0 0 0 0 0 0 0 0 0 127 0" result="hardAlpha"/>
<feOffset dy="4"/>
<feGaussianBlur stdDeviation="2"/>
<feComposite in2="hardAlpha" operator="out"/>
<feColorMatrix type="matrix" values="0 0 0 0 0 0 0 0 0 0 0 0 0 0 0 0 0 0 0.25 0"/>
<feBlend mode="normal" in2="effect1_dropShadow_11_856" result="effect2_dropShadow_11_856"/>
<feBlend mode="normal" in="SourceGraphic" in2="effect2_dropShadow_11_856" result="shape"/>
</filter>
<clipPath id="clip0_11_856">
<rect width="56" height="56" transform="translate(4)"/>
</clipPath>
</defs>
</svg>
