<svg width="59" height="56" viewBox="0 0 59 56" fill="none" xmlns="http://www.w3.org/2000/svg">
<rect y="9.72266" width="59" height="46" rx="20" fill="#F5F6FB"/>
<path d="M55.2246 20.9157H54.112V16.7807C54.112 14.3363 52.1234 12.3477 49.679 12.3477H33.6128C32.1234 12.3477 30.8042 13.0867 30 14.2164C29.1958 13.0866 27.8766 12.3477 26.3872 12.3477H16.2939C15.8409 12.3477 15.4736 12.7149 15.4736 13.168C15.4736 13.621 15.8409 13.9883 16.2939 13.9883H26.3872C27.927 13.9883 29.1797 15.241 29.1797 16.7807V24.985C29.1625 24.9684 29.1444 24.953 29.127 24.9367C28.1546 24.0301 26.8368 23.5075 25.5065 23.5075H11.8425C11.7702 22.4061 11.0194 21.4374 9.98328 21.0701C9.69136 20.9666 9.3827 20.9157 9.07306 20.9157H7.52858V16.7807C7.52858 15.241 8.78125 13.9883 10.321 13.9883H13.0126C13.4657 13.9883 13.833 13.621 13.833 13.168C13.833 12.7149 13.4657 12.3477 13.0126 12.3477H10.321C7.87661 12.3477 5.88795 14.3363 5.88795 16.7807V20.9157H4.77539C3.24502 20.9157 2 22.1609 2 23.691V32.2563C2 35.4433 4.59284 38.0361 7.77981 38.0361H8.19205C8.19205 38.0361 7.29386 40.452 7.2932 40.4539C6.72653 41.9779 7.89291 43.6521 9.51625 43.6521H10.836C11.5747 43.6521 12.2818 43.3003 12.7275 42.7111L16.2637 38.0361H43.7365L47.2727 42.7112C47.7184 43.3003 48.4255 43.6521 49.1641 43.6521C49.1641 43.6521 50.483 43.6521 50.4837 43.6521C52.1091 43.6521 53.2734 41.9776 52.7068 40.4539L51.8078 38.0361H52.2202C55.4072 38.0361 58 35.4433 58 32.2563V23.691C58 22.1609 56.755 20.9157 55.2246 20.9157ZM30.8203 16.781C30.8203 15.2411 32.073 13.9884 33.6128 13.9884H49.679C51.2188 13.9884 52.4714 15.2411 52.4714 16.7808V20.9158C52.4714 20.9158 50.9274 20.9158 50.9268 20.9158C49.8361 20.9158 48.7899 21.6158 48.3668 22.62C48.2483 22.9013 48.1774 23.2033 48.1575 23.5077C48.1575 23.5077 34.4939 23.5077 34.4935 23.5077C33.1427 23.5077 31.7964 24.0512 30.8203 24.9852V16.781ZM11.8486 25.1482H25.5065C27.532 25.1484 29.1797 26.7961 29.1797 28.8215V29.988H11.8486V25.1482ZM11.419 41.7214C11.2817 41.9031 11.0636 42.0115 10.8359 42.0115C10.8359 42.0115 9.52073 42.0115 9.51614 42.0115C9.01389 42.0115 8.65591 41.4962 8.83091 41.0257L9.94237 38.0361H14.2065L11.419 41.7214ZM50.4837 42.0114H49.1641C48.9364 42.0114 48.7184 41.903 48.5811 41.7214L45.7935 38.0361H50.0576C50.0576 38.0361 51.1653 41.0152 51.1691 41.0256C51.3444 41.4972 50.9839 42.0114 50.4837 42.0114ZM52.2202 36.3955H7.77981C5.49748 36.3956 3.64062 34.5386 3.64062 32.2563V23.691C3.64062 23.0653 4.14966 22.5563 4.77539 22.5563H9.07306C9.6988 22.5563 10.2078 23.0653 10.2078 23.691V30.8082C10.2078 31.2612 10.5751 31.6285 11.0281 31.6285H41.1584C41.6115 31.6285 41.9787 31.2612 41.9787 30.8082C41.9787 30.3552 41.6115 29.9879 41.1584 29.9879H30.8203V28.8214C30.8203 26.796 32.468 25.1482 34.4935 25.1482H48.1514V29.988H44.4397C43.9867 29.988 43.6194 30.3553 43.6194 30.8083C43.6194 31.2613 43.9867 31.6286 44.4397 31.6286H48.9717C49.4248 31.6286 49.7921 31.2613 49.7921 30.8083V23.6912C49.7921 23.0654 50.3011 22.5564 50.9268 22.5564H55.2245C55.8502 22.5564 56.3593 23.0654 56.3593 23.6912V32.2563H56.3594C56.3594 34.5386 54.5025 36.3955 52.2202 36.3955Z" />
</svg>
