<svg width="56" height="56" viewBox="0 0 56 56" fill="none" xmlns="http://www.w3.org/2000/svg">
<path d="M53.2246 20.9157H52.112V16.7807C52.112 14.3363 50.1234 12.3477 47.679 12.3477H31.6128C30.1234 12.3477 28.8042 13.0867 28 14.2164C27.1958 13.0866 25.8766 12.3477 24.3872 12.3477H14.2939C13.8409 12.3477 13.4736 12.7149 13.4736 13.168C13.4736 13.621 13.8409 13.9883 14.2939 13.9883H24.3872C25.927 13.9883 27.1797 15.241 27.1797 16.7807V24.985C27.1625 24.9684 27.1444 24.953 27.127 24.9367C26.1546 24.0301 24.8368 23.5075 23.5065 23.5075H9.84255C9.77025 22.4061 9.01939 21.4374 7.98328 21.0701C7.69136 20.9666 7.3827 20.9157 7.07306 20.9157H5.52858V16.7807C5.52858 15.241 6.78125 13.9883 8.32103 13.9883H11.0126C11.4657 13.9883 11.833 13.621 11.833 13.168C11.833 12.7149 11.4657 12.3477 11.0126 12.3477H8.32103C5.87661 12.3477 3.88795 14.3363 3.88795 16.7807V20.9157H2.77539C1.24502 20.9157 0 22.1609 0 23.691V32.2563C0 35.4433 2.59284 38.0361 5.77981 38.0361H6.19205C6.19205 38.0361 5.29386 40.452 5.2932 40.4539C4.72653 41.9779 5.89291 43.6521 7.51625 43.6521H8.83597C9.57469 43.6521 10.2818 43.3003 10.7275 42.7111L14.2637 38.0361H41.7365L45.2727 42.7112C45.7184 43.3003 46.4255 43.6521 47.1641 43.6521C47.1641 43.6521 48.483 43.6521 48.4837 43.6521C50.1091 43.6521 51.2734 41.9776 50.7068 40.4539L49.8078 38.0361H50.2202C53.4072 38.0361 56 35.4433 56 32.2563V23.691C56 22.1609 54.755 20.9157 53.2246 20.9157ZM28.8203 16.781C28.8203 15.2411 30.073 13.9884 31.6128 13.9884H47.679C49.2188 13.9884 50.4714 15.2411 50.4714 16.7808V20.9158C50.4714 20.9158 48.9274 20.9158 48.9268 20.9158C47.8361 20.9158 46.7899 21.6158 46.3668 22.62C46.2483 22.9013 46.1774 23.2033 46.1575 23.5077C46.1575 23.5077 32.4939 23.5077 32.4935 23.5077C31.1427 23.5077 29.7964 24.0512 28.8203 24.9852V16.781ZM9.84856 25.1482H23.5065C25.532 25.1484 27.1797 26.7961 27.1797 28.8215V29.988H9.84856V25.1482ZM9.41905 41.7214C9.28167 41.9031 9.06358 42.0115 8.83586 42.0115C8.83586 42.0115 7.52073 42.0115 7.51614 42.0115C7.01389 42.0115 6.65591 41.4962 6.83091 41.0257L7.94237 38.0361H12.2065L9.41905 41.7214ZM48.4837 42.0114H47.1641C46.9364 42.0114 46.7184 41.903 46.5811 41.7214L43.7935 38.0361H48.0576C48.0576 38.0361 49.1653 41.0152 49.1691 41.0256C49.3444 41.4972 48.9839 42.0114 48.4837 42.0114ZM50.2202 36.3955H5.77981C3.49748 36.3956 1.64062 34.5386 1.64062 32.2563V23.691C1.64062 23.0653 2.14966 22.5563 2.77539 22.5563H7.07306C7.6988 22.5563 8.20783 23.0653 8.20783 23.691V30.8082C8.20783 31.2612 8.57511 31.6285 9.02814 31.6285H39.1584C39.6115 31.6285 39.9787 31.2612 39.9787 30.8082C39.9787 30.3552 39.6115 29.9879 39.1584 29.9879H28.8203V28.8214C28.8203 26.796 30.468 25.1482 32.4935 25.1482H46.1514V29.988H42.4397C41.9867 29.988 41.6194 30.3553 41.6194 30.8083C41.6194 31.2613 41.9867 31.6286 42.4397 31.6286H46.9717C47.4248 31.6286 47.7921 31.2613 47.7921 30.8083V23.6912C47.7921 23.0654 48.3011 22.5564 48.9268 22.5564H53.2245C53.8502 22.5564 54.3593 23.0654 54.3593 23.6912V32.2563H54.3594C54.3594 34.5386 52.5025 36.3955 50.2202 36.3955Z" fill="#071F41"/>
</svg>
