<svg width="59" height="56" viewBox="0 0 59 56" fill="none" xmlns="http://www.w3.org/2000/svg">
<rect y="9.72266" width="59" height="46" rx="20" fill="#F5F6FB"/>
<path d="M55.6881 0H4.31193C3.52336 0 2.87817 0.645189 2.87817 1.43375C2.87817 2.22232 3.52336 2.86751 4.31193 2.86751H7.40644V54.5304C7.40644 55.0561 7.69319 55.546 8.15916 55.7969C8.62513 56.0478 9.18669 56.0239 9.62876 55.7252L15.8536 51.5793L22.1024 55.7371C22.5803 56.0597 23.2136 56.0597 23.6915 55.7371L29.9164 51.5912L36.1651 55.7491C36.6431 56.0717 37.2763 56.0717 37.7542 55.7491L43.9791 51.6032L50.2279 55.761C50.4668 55.9164 50.7416 56 51.0164 56C51.2434 56 51.4824 55.9403 51.6975 55.8327C52.1634 55.5818 52.4502 55.092 52.4502 54.5662L52.4263 2.90335H55.6881C56.4766 2.90335 57.1218 2.25816 57.1218 1.4696C57.1218 0.681033 56.4766 0 55.6881 0ZM49.5946 51.8541L44.7796 48.652C44.3017 48.3294 43.6684 48.3294 43.1905 48.652L36.9656 52.8099L30.7169 48.652C30.239 48.3294 29.6057 48.3294 29.1278 48.652L22.9029 52.798L16.6541 48.652C16.1762 48.3294 15.543 48.3294 15.0651 48.652L10.2739 51.8421V2.85556H49.5827L49.5946 51.8541Z" />
<path d="M16.8692 22.8924H31.8877C32.6763 22.8924 33.3215 22.2472 33.3215 21.4587C33.3215 20.6701 32.6763 20.0249 31.8877 20.0249H16.8692C16.0806 20.0249 15.4354 20.6701 15.4354 21.4587C15.4354 22.2472 16.0687 22.8924 16.8692 22.8924Z" />
<path d="M16.8692 27.8748H28.1241C28.9127 27.8748 29.5579 27.2296 29.5579 26.4411C29.5579 25.6525 28.9127 25.0073 28.1241 25.0073H16.8692C16.0806 25.0073 15.4354 25.6525 15.4354 26.4411C15.4354 27.2296 16.0687 27.8748 16.8692 27.8748Z" />
<path d="M39.3912 22.8924H43.1428C43.9314 22.8924 44.5766 22.2472 44.5766 21.4587C44.5766 20.6701 43.9314 20.0249 43.1428 20.0249H39.3912C38.6026 20.0249 37.9574 20.6701 37.9574 21.4587C37.9574 22.2472 38.5906 22.8924 39.3912 22.8924Z" />
<path d="M39.3912 27.8748H43.1428C43.9314 27.8748 44.5766 27.2296 44.5766 26.4411C44.5766 25.6525 43.9314 25.0073 43.1428 25.0073H39.3912C38.6026 25.0073 37.9574 25.6525 37.9574 26.4411C37.9574 27.2296 38.5906 27.8748 39.3912 27.8748Z" />
<path d="M16.8692 11.3865H31.8877C32.6763 11.3865 33.3215 10.7414 33.3215 9.9528C33.3215 9.16423 32.6763 8.51904 31.8877 8.51904H16.8692C16.0806 8.51904 15.4354 9.16423 15.4354 9.9528C15.4354 10.7414 16.0687 11.3865 16.8692 11.3865Z" />
<path d="M16.8692 16.3568H28.1241C28.9127 16.3568 29.5579 15.7116 29.5579 14.923C29.5579 14.1344 28.9127 13.4893 28.1241 13.4893H16.8692C16.0806 13.4893 15.4354 14.1344 15.4354 14.923C15.4354 15.7116 16.0687 16.3568 16.8692 16.3568Z" />
<path d="M39.3912 11.3865H43.1428C43.9314 11.3865 44.5766 10.7414 44.5766 9.9528C44.5766 9.16423 43.9314 8.51904 43.1428 8.51904H39.3912C38.6026 8.51904 37.9574 9.16423 37.9574 9.9528C37.9574 10.7414 38.5906 11.3865 39.3912 11.3865Z" />
<path d="M39.3912 16.3568H43.1428C43.9314 16.3568 44.5766 15.7116 44.5766 14.923C44.5766 14.1344 43.9314 13.4893 43.1428 13.4893H39.3912C38.6026 13.4893 37.9574 14.1344 37.9574 14.923C37.9574 15.7116 38.5906 16.3568 39.3912 16.3568Z" />
<path d="M16.8692 34.5413H31.8877C32.6763 34.5413 33.3215 33.8961 33.3215 33.1076C33.3215 32.319 32.6763 31.6738 31.8877 31.6738H16.8692C16.0806 31.6738 15.4354 32.319 15.4354 33.1076C15.4354 33.8961 16.0687 34.5413 16.8692 34.5413Z" />
<path d="M16.8692 39.5116H28.1241C28.9127 39.5116 29.5579 38.8664 29.5579 38.0778C29.5579 37.2892 28.9127 36.644 28.1241 36.644H16.8692C16.0806 36.644 15.4354 37.2892 15.4354 38.0778C15.4354 38.8664 16.0687 39.5116 16.8692 39.5116Z" />
<path d="M39.3912 34.5413H43.1428C43.9314 34.5413 44.5766 33.8961 44.5766 33.1076C44.5766 32.319 43.9314 31.6738 43.1428 31.6738H39.3912C38.6026 31.6738 37.9574 32.319 37.9574 33.1076C37.9574 33.8961 38.5906 34.5413 39.3912 34.5413Z" />
<path d="M39.3912 39.5116H43.1428C43.9314 39.5116 44.5766 38.8664 44.5766 38.0778C44.5766 37.2892 43.9314 36.644 43.1428 36.644H39.3912C38.6026 36.644 37.9574 37.2892 37.9574 38.0778C37.9574 38.8664 38.5906 39.5116 39.3912 39.5116Z" />
</svg>
