<svg width="65" height="57" viewBox="0 0 65 57" fill="none" xmlns="http://www.w3.org/2000/svg">
<rect y="9.72266" width="59" height="46" rx="20" fill="#F5F6FB"/>
<path d="M26.3588 21.1923C25.8281 20.6114 25.0725 20.2712 24.2859 20.259C22.7036 20.2387 21.3946 21.5002 21.3678 23.0812C21.3592 23.5909 21.7654 24.011 22.2749 24.0196C22.2803 24.0197 22.2855 24.0197 22.2909 24.0197C22.7933 24.0197 23.2048 23.6167 23.2133 23.1124C23.2227 22.5477 23.6869 22.0946 24.2569 22.1045C24.5415 22.1089 24.804 22.227 24.9961 22.4372C25.3399 22.8136 25.9237 22.8399 26.2999 22.4961C26.6762 22.1525 26.7026 21.5686 26.3588 21.1923Z" />
<path d="M31.2687 24.2001C30.9858 23.5352 30.4352 23.0104 29.7576 22.7602C28.395 22.2576 26.876 22.9561 26.3711 24.3171C26.1938 24.7951 26.4376 25.3261 26.9153 25.5034C27.0212 25.5427 27.1296 25.5613 27.2361 25.5613C27.6111 25.5613 27.9635 25.3312 28.1015 24.9591C28.2531 24.5503 28.71 24.3411 29.1185 24.4919C29.3239 24.5677 29.4843 24.7206 29.5701 24.9224C29.7695 25.3913 30.3117 25.6101 30.7805 25.4105C31.2497 25.2111 31.4681 24.6692 31.2687 24.2001Z" />
<path d="M37.2166 16.027C36.8558 15.6668 36.2714 15.6676 35.9115 16.0283L35.0416 16.9C34.6816 17.2608 34.6822 17.8451 35.043 18.205C35.223 18.3848 35.4589 18.4746 35.6947 18.4746C35.9312 18.4746 36.1677 18.3843 36.348 18.2037L37.2179 17.332C37.578 16.9713 37.5773 16.3869 37.2166 16.027Z" />
<path d="M31.4751 27.9404H30.2451C29.7353 27.9404 29.3223 28.3536 29.3223 28.8633C29.3223 29.3729 29.7353 29.7861 30.2451 29.7861H31.4751C31.9849 29.7861 32.3979 29.3729 32.3979 28.8633C32.3979 28.3536 31.9849 27.9404 31.4751 27.9404Z" />
<path d="M40.9059 27.9404H39.6758C39.166 27.9404 38.7529 28.3536 38.7529 28.8633C38.7529 29.3729 39.1661 29.7861 39.6758 29.7861H40.9059C41.4155 29.7861 41.8287 29.3729 41.8287 28.8633C41.8287 28.3536 41.4155 27.9404 40.9059 27.9404Z" />
<path d="M64.9703 44.5803L64.73 43.2832C64.5768 42.4543 63.8531 41.8528 63.0091 41.8528C62.9032 41.8528 62.7964 41.8625 62.6913 41.8818L57.799 42.7805L60.0145 41.2994C60.5952 40.9113 60.8886 40.2171 60.762 39.5284C60.7268 39.3398 60.6609 39.1588 60.5654 38.9893L59.8949 37.8021C59.6652 37.3942 59.2734 37.0911 58.8212 36.971C58.5997 36.9119 58.3682 36.8988 58.1423 36.9282C58.389 35.5666 58.5162 34.1759 58.5162 32.7602C58.5162 32.1321 58.1384 31.5915 57.5989 31.3515C58.3039 29.6746 58.352 27.7548 57.6551 25.9967C57.5986 25.8538 57.5147 25.7262 57.4061 25.6174C57.2983 25.5096 57.1722 25.4263 57.0291 25.3688C56.1939 25.0362 55.3162 24.8677 54.4203 24.8677C54.3058 24.8677 54.1917 24.8706 54.078 24.876C53.9502 22.3003 51.8184 20.2441 49.216 20.2441C48.8733 20.2441 48.5391 20.2805 48.2164 20.3484C48.4405 19.0072 48.3085 17.6041 47.7862 16.2868C47.7301 16.142 47.6458 16.012 47.5312 15.8956C47.421 15.7854 47.2917 15.7003 47.1482 15.6434C46.2486 15.2851 45.3031 15.1035 44.3379 15.1035C42.884 15.1035 41.4932 15.5122 40.2925 16.2721C39.8539 15.0014 39.1305 13.8085 38.1198 12.7955C37.8237 12.4989 37.43 12.3355 37.011 12.3355C36.592 12.3355 36.1983 12.4989 35.9019 12.7957L31.4337 17.2741C30.6068 16.5366 29.5187 16.0957 28.3377 16.0957C28.0697 16.0957 27.7991 16.1192 27.5335 16.1655C26.5709 16.3331 25.6851 16.8042 25.006 17.4942C24.1352 17.074 23.1376 16.9307 22.179 17.0975C21.9681 17.1342 21.7635 17.1859 21.5649 17.2489V13.7979C21.5649 11.4214 19.6548 9.48454 17.2921 9.44369V7.48651C18.0153 7.36137 18.5676 6.73101 18.5676 5.97255V1.53808C18.5676 0.690044 17.8777 0 17.0295 0H9.52478C8.67662 0 7.9867 0.690044 7.9867 1.53808V5.97255C7.9867 6.73101 8.53893 7.36137 9.2622 7.48651V9.44344C6.89946 9.48417 4.98954 11.421 4.98954 13.7977V40.732C3.14704 42.396 2 44.7178 2 47.2853C2 52.3358 6.43275 56.4448 11.8815 56.4448L48.8184 56.434C50.0791 56.4335 51.2648 55.8794 52.0713 54.914C52.8568 53.9742 53.1906 52.7534 52.9983 51.5495L60.3758 52.8754C60.4779 52.8937 60.5825 52.9031 60.6862 52.9031C61.0541 52.9031 61.4067 52.7901 61.7052 52.5767C62.089 52.3026 62.3487 51.8782 62.418 51.4127L62.6178 50.0719C62.6466 49.8798 62.6434 49.6864 62.6083 49.4968C62.4814 48.8112 61.9593 48.2672 61.2782 48.1111L58.6779 47.5146L63.5654 46.6167C64.0263 46.5321 64.4262 46.2733 64.6915 45.8881C64.9563 45.5038 65.0552 45.0394 64.9703 44.5803ZM54.4203 26.7131C54.9759 26.7131 55.5221 26.8011 56.0473 26.9745C56.5166 28.4035 56.3409 29.9449 55.606 31.2182H53.12L53.9133 30.4231C54.2733 30.0623 54.2726 29.478 53.9117 29.1179C53.5508 28.7579 52.9664 28.7585 52.6066 29.1194L52.1869 29.5401C51.9902 28.8923 51.6466 28.3122 51.1951 27.8364C52.111 27.1091 53.2354 26.7131 54.4203 26.7131ZM49.216 22.0895C50.8826 22.0895 52.2385 23.4494 52.2385 25.121C52.2385 25.152 52.237 25.1827 52.2361 25.2134C51.2633 25.5298 50.3667 26.0583 49.602 26.776C49.4803 26.7299 49.3569 26.687 49.2301 26.652C48.9602 25.1936 47.9774 24.0247 46.6791 23.4787C47.2179 22.644 48.1529 22.0895 49.216 22.0895ZM44.3378 16.9489C44.9646 16.9489 45.5806 17.0503 46.1741 17.2509C46.6512 18.6693 46.5537 20.193 45.9459 21.5128C45.4462 21.968 45.0408 22.5254 44.7637 23.1519C44.5989 23.1615 44.4341 23.1797 44.2714 23.208C43.5482 23.3339 42.8739 23.6477 42.3096 24.1027C42.1172 23.7508 41.8815 23.4261 41.6116 23.1337L43.7279 21.0126C44.0879 20.6519 44.0872 20.0675 43.7263 19.7076C43.3655 19.3476 42.7811 19.3482 42.4211 19.7091L40.1081 22.0274C39.6679 21.8193 39.1922 21.6746 38.6923 21.6069C38.9083 20.5057 39.4426 19.468 40.2693 18.6394C41.3569 17.5492 42.8018 16.9489 44.3378 16.9489ZM37.2663 31.2182H36.4664C36.3317 30.8754 35.9986 30.6324 35.6079 30.6324C35.2172 30.6324 34.8841 30.8755 34.7494 31.2182H33.8084C34.0269 30.8624 33.9827 30.3909 33.6742 30.083C33.3135 29.723 32.7291 29.7236 32.3691 30.0844L31.4993 30.956C31.4211 31.0343 31.3611 31.1235 31.3169 31.2182H29.4386C28.7352 30.1387 28.3058 28.8646 28.255 27.4939H42.8958C42.845 28.8646 42.4157 30.1387 41.7122 31.2182H39.7576C39.7136 31.1235 39.6533 31.0341 39.5753 30.9559L38.7056 30.0842C38.3454 29.7236 37.7613 29.7226 37.4006 30.0828C37.0918 30.3906 37.0477 30.8622 37.2663 31.2182ZM35.12 25.6482C35.4679 24.359 36.6438 23.4077 38.0375 23.4077C39.4312 23.4077 40.6072 24.3591 40.955 25.6482H35.12ZM37.0072 14.3007C37.885 15.2494 38.4654 16.3758 38.75 17.5597C38.2789 18.0717 37.8875 18.6375 37.5787 19.2395C37.4386 19.1536 37.2743 19.1033 37.098 19.1033H35.8683C35.3586 19.1033 34.9454 19.5165 34.9454 20.0262C34.9454 20.5358 35.3586 20.949 35.8683 20.949H36.947C36.8864 21.2038 36.8392 21.4618 36.805 21.7216C36.4386 21.8179 36.0886 21.9549 35.7611 22.1294C35.146 21.0679 34.1274 20.2768 32.9206 19.9595C32.9202 19.9569 32.9197 19.9543 32.9192 19.9517C32.8469 19.5341 32.7206 19.1379 32.5485 18.7696L37.0072 14.3007ZM20.3248 22.628C20.2707 22.4766 20.2297 22.3214 20.2027 22.1656C19.9381 20.6397 20.9667 19.1818 22.4953 18.9157C22.6565 18.8876 22.8203 18.8733 22.982 18.8733C23.59 18.8733 24.171 19.0673 24.6621 19.4341C24.8652 19.5859 25.1221 19.6473 25.3722 19.604C25.6222 19.5606 25.8433 19.4162 25.9836 19.2047C26.4168 18.5512 27.0797 18.1176 27.85 17.9835C28.0115 17.9553 28.1757 17.9412 28.3377 17.9412C29.705 17.9412 30.8671 18.9194 31.1006 20.2673C31.1274 20.4218 31.1412 20.5827 31.1414 20.7457C31.1423 21.2234 31.5076 21.6216 31.9836 21.6634C33.0153 21.7541 33.8936 22.4034 34.3008 23.3182C33.7557 23.9724 33.3778 24.7712 33.2343 25.6482H27.9714C27.317 25.6482 26.7556 26.0521 26.5214 26.6238C25.3636 25.8352 23.999 25.4103 22.5689 25.4103C21.673 25.4103 20.7953 25.579 19.9596 25.9117C19.8179 25.9683 19.6911 26.0519 19.5831 26.1599C19.4736 26.2694 19.3895 26.3978 19.3344 26.5385C19.122 27.0741 18.9804 27.6248 18.9039 28.1789C18.5731 27.8023 18.3401 27.3341 18.249 26.8087C18.032 25.5566 18.6874 24.3099 19.8425 23.7769C20.2766 23.5765 20.4859 23.078 20.3248 22.628ZM23.0759 30.9659L23.3276 31.2182H21.1112C20.6136 30.0638 20.538 28.7498 20.942 27.5174C21.4679 27.3437 22.0139 27.2559 22.5689 27.2559C23.9595 27.2559 25.2676 27.7994 26.2521 28.7861C26.383 28.9174 26.5049 29.0549 26.6195 29.1971C26.7759 29.9051 27.0162 30.5815 27.3258 31.2181H25.935L24.3825 29.6621C24.0224 29.3014 23.438 29.3004 23.0775 29.6606C22.7166 30.0207 22.7158 30.6051 23.0759 30.9659ZM19.1458 31.2182H15.8559C16.0026 30.3243 16.5403 29.5623 17.2867 29.1129C17.7285 29.7049 18.3052 30.1835 18.9697 30.5078C19.0167 30.7472 19.0744 30.9846 19.1458 31.2182ZM9.8324 1.8457H16.7219V5.66493H9.8324V1.8457ZM15.4464 7.51063V9.4416H11.108V7.51063H15.4464ZM6.83535 17.5403H12.8281C13.3379 17.5403 13.7509 17.1271 13.7509 16.6174C13.7509 16.1078 13.3379 15.6946 12.8281 15.6946H6.83535V13.7977C6.83535 12.4134 7.95803 11.2873 9.33799 11.2873H17.2164C18.5965 11.2873 19.7192 12.4134 19.7192 13.7977V15.6946H17.996C17.4862 15.6946 17.0732 16.1078 17.0732 16.6174C17.0732 17.1271 17.4862 17.5403 17.996 17.5403H19.7192V18.3594C18.6618 19.396 18.1127 20.9163 18.3839 22.4801C18.3844 22.4832 18.385 22.4864 18.3855 22.4896C16.905 23.5053 16.1161 25.3111 16.4303 27.124C16.4486 27.2298 16.4716 27.3339 16.4967 27.4369C16.0357 27.6911 15.6216 28.0194 15.2667 28.4035H6.83535V17.5403ZM6.83523 30.2491H14.1951C14.0972 30.5602 14.028 30.8839 13.9943 31.2182H13.8388C12.9894 31.2182 12.2982 31.9099 12.2982 32.76C12.2982 34.2254 12.4345 35.6639 12.6984 37.0713C12.4332 37.05 12.1613 37.0386 11.8847 37.0386C10.7687 37.0386 9.70529 37.2156 8.89084 37.5373C7.645 38.0292 7.30059 38.7277 7.22541 39.2111C7.09338 39.2768 6.96369 39.3462 6.83523 39.4172V30.2491ZM18.5211 41.586C18.8534 41.8519 19.0566 42.0779 19.1743 42.241C19.1632 42.2411 19.1517 42.2412 19.14 42.2412C18.6177 42.2412 17.6792 42.0307 16.612 41.4399C16.2147 41.2198 15.8486 40.9711 15.5533 40.721C15.209 40.4292 14.7042 40.4295 14.3601 40.7211C14.0648 40.9715 13.6989 41.2201 13.3019 41.4397C12.2345 42.0307 11.296 42.2412 10.7738 42.2412C10.7619 42.2412 10.7504 42.2411 10.7392 42.241C10.8569 42.0779 11.06 41.8518 11.3925 41.5857C11.683 41.3532 11.8054 40.9688 11.7029 40.6111C11.6003 40.2533 11.293 39.992 10.9232 39.9487C10.0226 39.8432 9.45317 39.6139 9.18652 39.4471C9.5206 39.239 10.3652 38.8843 11.8851 38.8843C13.1438 38.8843 14.0638 39.1489 14.5051 39.3967C14.7858 39.5542 15.1279 39.5542 15.4086 39.3969C15.8501 39.1491 16.7702 38.8844 18.029 38.8844C19.549 38.8844 20.3935 39.2393 20.7274 39.4472C20.4609 39.6142 19.8913 39.8433 18.9905 39.9489C18.6207 39.9923 18.3132 40.2534 18.2107 40.6113C18.1079 40.9692 18.2303 41.3536 18.5211 41.586ZM16.675 52.8184L16.7068 52.9894C16.8165 53.5821 17.048 54.1261 17.3713 54.5991H11.8815C7.45059 54.5991 3.8457 51.3182 3.8457 47.2853C3.8457 44.5291 5.52996 42.1253 8.01008 40.8788C8.29493 41.0915 8.65004 41.2748 9.07135 41.4227C8.90426 41.708 8.78785 42.0149 8.76042 42.335C8.72399 42.7605 8.85418 43.1646 9.12734 43.4729C9.48823 43.8804 10.0422 44.087 10.7738 44.087C11.7488 44.087 13.0282 43.701 14.1959 43.0545C14.4647 42.9058 14.7189 42.7487 14.9569 42.5845C15.1948 42.7485 15.449 42.9057 15.7179 43.0547C16.8857 43.701 18.165 44.0869 19.14 44.087H19.1401C19.8715 44.087 20.4255 43.8804 20.7862 43.473C21.0595 43.1647 21.1898 42.7606 21.1533 42.335C21.1258 42.0149 21.0094 41.708 20.8423 41.4227C21.2637 41.2747 21.6189 41.0913 21.9037 40.8788C23.8706 41.8674 25.3362 43.584 25.8588 45.627L19.3318 48.1065C17.4213 48.8324 16.3039 50.814 16.675 52.8184ZM50.6548 53.7307C50.1997 54.2755 49.53 54.5881 48.8176 54.5883L47.8489 54.5887L47.2438 51.3212C47.1509 50.82 46.6697 50.4886 46.1682 50.5818C45.6672 50.6746 45.3361 51.156 45.4289 51.6572L45.972 54.5893L42.7966 54.5905L42.3875 52.381C42.2946 51.8798 41.8133 51.5488 41.312 51.6416C40.8109 51.7344 40.4798 52.2158 40.5726 52.717L40.9196 54.5913L33.5337 54.5941L32.9778 51.5932C32.8848 51.0921 32.4037 50.7611 31.9022 50.854C31.4011 50.9467 31.0701 51.4283 31.1629 51.9295L31.6566 54.5948L20.8724 54.599C20.8721 54.599 20.8719 54.599 20.8716 54.599C19.7184 54.599 18.7301 53.7808 18.5212 52.6529L18.4894 52.4819C18.2809 51.3553 18.9106 50.2408 19.9869 49.8318L23.614 48.4539L23.8842 49.9123C23.9665 50.3566 24.3543 50.6672 24.7904 50.6672C24.8463 50.6672 24.9029 50.662 24.9597 50.6516C25.4608 50.5587 25.7918 50.0772 25.6989 49.576L25.3675 47.7878L30.7514 45.7425C31.2278 45.5615 31.4674 45.0285 31.2864 44.552C31.1054 44.0755 30.5717 43.836 30.096 44.017L27.5907 44.9688C26.8879 42.4804 25.0823 40.4018 22.6879 39.2109C22.6127 38.7276 22.2683 38.0291 21.0226 37.5371C20.2082 37.2155 19.1448 37.0384 18.0288 37.0384C17.2607 37.0384 16.5272 37.1232 15.8798 37.2776V36.7202C15.8798 36.2106 15.4667 35.7974 14.9569 35.7974C14.7415 35.7974 14.5438 35.8717 14.3867 35.9955C14.2411 35.0329 14.1597 34.0552 14.1462 33.0637H44.2049C44.7147 33.0637 45.1278 32.6505 45.1278 32.1408C45.1278 31.6312 44.7147 31.218 44.2049 31.218H43.8273C44.415 30.0077 44.7469 28.6507 44.7469 27.2166C44.7469 26.4024 44.124 25.7317 43.3301 25.6555C43.6757 25.3296 44.1071 25.1098 44.588 25.026C44.7288 25.0016 44.8718 24.9891 45.0131 24.9891C46.2045 24.9891 47.217 25.8415 47.4204 27.0156C47.4439 27.1515 47.4559 27.2918 47.456 27.4327C47.4567 27.9106 47.8221 28.309 48.2982 28.3509C49.401 28.4477 50.3033 29.2772 50.4925 30.3679C50.5427 30.6579 50.5364 30.9441 50.4861 31.218H49.4959C48.9861 31.218 48.5731 31.6312 48.5731 32.1408C48.5731 32.6505 48.9861 33.0637 49.4959 33.0637H56.6685C56.6456 34.7565 56.4276 36.4102 56.0209 38.0146L51.0196 40.9669C50.7137 39.9023 50.0027 38.9993 49.0232 38.451C47.9245 37.8362 46.6188 37.7401 45.4413 38.1873L35.1409 42.1004C34.6644 42.2814 34.4249 42.8145 34.6059 43.2909C34.7869 43.7675 35.3205 44.0067 35.7963 43.8259L37.1532 43.3105L37.5746 45.5852C37.6569 46.0296 38.0447 46.3403 38.4809 46.3403C38.5367 46.3403 38.5933 46.3351 38.6501 46.3246C39.1511 46.2319 39.4823 45.7504 39.3895 45.2492L38.907 42.6443L46.0965 39.913C46.7627 39.6601 47.5007 39.7143 48.1217 40.0619C48.7416 40.4088 49.1711 41.0068 49.3 41.7023L51.167 51.7816C51.2957 52.4767 51.109 53.187 50.6548 53.7307ZM53.9475 46.5071C53.5169 46.5862 53.2013 46.9568 53.1916 47.3945C53.182 47.8322 53.4813 48.2163 53.9079 48.3142L60.7788 49.8901L60.6071 51.0417L52.6418 49.6103L51.3967 42.8878L58.3346 38.7923L58.9125 39.8157L53.0607 43.7275C52.6968 43.9707 52.5539 44.4361 52.7185 44.8417C52.883 45.2472 53.31 45.4815 53.7404 45.4024L62.9327 43.7138L63.1374 44.8188L53.9475 46.5071Z" />
</svg>
