<svg width="59" height="56" viewBox="0 0 59 56" fill="none" xmlns="http://www.w3.org/2000/svg">
<rect y="9.72266" width="59" height="46" rx="20" fill="#F5F6FB"/>
<g clip-path="url(#clip0_17101_83)">
<path d="M39.9904 16.9692C39.3867 16.9692 38.8966 17.458 38.8966 18.0626C38.8966 18.6667 39.3867 19.1563 39.9904 19.1563C40.5953 19.1563 41.0841 18.6667 41.0841 18.0626C41.0841 17.458 40.5953 16.9692 39.9904 16.9692Z"/>
<path d="M20.1174 36.8418C19.5125 36.8418 19.0237 37.3318 19.0237 37.9355C19.0237 38.5405 19.5125 39.0293 20.1174 39.0293C20.7211 39.0293 21.2112 38.5405 21.2112 37.9355C21.2112 37.3318 20.7211 36.8418 20.1174 36.8418Z" />
<path d="M56.6939 6.72881C56.3248 6.64293 55.9369 6.75444 55.6703 7.02361L51.1359 11.5939H48.9621L46.5691 9.11455V6.91039L51.0385 2.37431C51.303 2.106 51.4106 1.7202 51.323 1.35319C51.2359 0.986616 50.9659 0.690961 50.6087 0.570478C49.4859 0.191937 48.3109 0.000103766 47.1159 0.000103766C43.5536 0.000103766 40.3172 1.66124 38.2365 4.55754C36.2891 7.26885 35.6888 10.5915 36.5489 13.7715L28.4923 21.8281L15.0699 8.37499V5.7346C15.0699 5.35051 14.8682 4.99419 14.5388 4.7968L6.80524 0.156049C6.37458 -0.102435 5.82386 -0.0345032 5.46924 0.320539L2.37598 3.41337C2.02136 3.76842 1.95343 4.31914 2.21149 4.7498L6.85138 12.4834C7.04877 12.8128 7.40467 13.014 7.78876 13.0145L10.4283 13.0153L23.8519 26.4684L15.8261 34.4943C12.6461 33.6346 9.32172 34.2358 6.60913 36.1845C3.71454 38.2639 2.05469 41.4994 2.05469 45.0618C2.05469 46.2564 2.24652 47.4317 2.62506 48.5541C2.74597 48.9134 3.04462 49.1847 3.41376 49.2702C3.78333 49.356 4.17084 49.2445 4.43787 48.9754L8.97181 44.4055H11.1576L13.648 46.8959V49.0817L9.07819 53.6157C8.80903 53.8827 8.69751 54.2702 8.78339 54.6398C8.86884 55.0089 9.14014 55.3076 9.49946 55.4285C10.6218 55.807 11.7972 55.9989 12.9918 55.9989C16.5541 55.9989 19.7893 54.3386 21.8691 51.444C23.8178 48.7314 24.4189 45.4074 23.5593 42.2274L30.0051 35.7816L31.4817 37.3854L30.8041 38.0626C30.3769 38.4899 30.3769 39.1824 30.8041 39.6097C31.2313 40.0365 31.9235 40.0365 32.3512 39.6097L32.9647 38.9962L46.8186 54.0446C46.8288 54.0557 46.8395 54.0664 46.8502 54.0771C49.4137 56.6406 53.5669 56.6414 56.1317 54.0767C58.6892 51.5179 58.6892 47.3544 56.1317 44.7956C56.1206 44.7845 56.109 44.7738 56.0975 44.7631L41.0255 30.9357L41.6322 30.329C42.0595 29.9022 42.0595 29.2097 41.6322 28.7824C41.205 28.3552 40.5128 28.3552 40.0852 28.7824L39.4123 29.4557L37.8054 27.9809L44.2824 21.5038C45.2032 21.7499 46.1534 21.8747 47.1159 21.8747C53.1469 21.8747 58.053 16.9682 58.053 10.9376C58.053 9.7426 57.8612 8.56767 57.4826 7.44487C57.3617 7.08556 57.0631 6.81426 56.6939 6.72881ZM11.6562 11.1491C11.4511 10.9436 11.173 10.8389 10.8825 10.8389L8.4087 10.8381L4.52674 4.35673L6.41217 2.4713L12.8824 6.35411V8.82787C12.8824 9.11754 12.9973 9.39525 13.202 9.60033L26.9456 23.3752L25.3986 24.9218L11.6562 11.1491ZM39.4772 32.4841L54.6004 46.358C56.2898 48.0653 56.2846 50.8296 54.5846 52.5305C52.8808 54.2343 50.1225 54.2395 48.4118 52.5454L34.5126 37.4478L39.4772 32.4841ZM37.8639 31.0037L33.0296 35.8371L31.5531 34.2332L36.257 29.5288L37.8639 31.0037ZM47.1159 19.6872C46.1593 19.6872 45.2185 19.5338 44.3205 19.2313C43.927 19.0993 43.492 19.201 43.1981 19.4945C37.7148 24.9778 25.8997 36.7924 21.5491 41.1435C21.2551 41.4374 21.153 41.8724 21.2859 42.2663C22.1951 44.9661 21.7601 47.8457 20.0922 50.1678C18.4289 52.483 15.8406 53.8114 12.9918 53.8114C12.6718 53.8114 12.3535 53.7938 12.0382 53.7601L15.5121 50.3131C15.7189 50.108 15.8355 49.8286 15.8355 49.5368V46.4426C15.8355 46.1525 15.7202 45.8744 15.5151 45.6693L12.3838 42.538C12.1787 42.333 11.9006 42.2176 11.6105 42.2176H8.51636C8.22455 42.2176 7.94513 42.3342 7.73963 42.541L4.29303 46.015C4.25885 45.6997 4.24176 45.3814 4.24176 45.0613C4.24176 42.212 5.56964 39.6242 7.88532 37.9609C10.207 36.293 13.087 35.8576 15.7872 36.7672C16.1807 36.9001 16.6157 36.798 16.9096 36.504C16.9699 36.4442 38.5432 14.8704 38.5586 14.855C38.8526 14.5611 38.9543 14.1266 38.8218 13.7327C37.9122 11.0329 38.3463 8.1541 40.013 5.83373C41.6775 3.51634 44.2662 2.18761 47.1155 2.18761C47.4453 2.18761 47.773 2.20598 48.0977 2.24187L44.696 5.69444C44.4944 5.89909 44.3816 6.17467 44.3816 6.46178V9.5559C44.3816 9.83959 44.4914 10.1117 44.6883 10.3155L47.7102 13.4468C47.9162 13.6605 48.2003 13.7809 48.4972 13.7809H51.5913C51.8827 13.7809 52.1621 13.6647 52.3676 13.4575L55.8142 9.984C55.8484 10.2993 55.8655 10.6176 55.8655 10.9376C55.8655 15.7621 51.9404 19.6872 47.1159 19.6872Z" />
<path d="M36.1238 20.3824L22.4369 34.0693C22.0101 34.4961 22.0101 35.1887 22.4369 35.6159C22.8642 36.0432 23.5567 36.0432 23.984 35.6159L37.6708 21.9291C38.0981 21.5023 38.0981 20.8097 37.6708 20.3824C37.2436 19.9552 36.551 19.9552 36.1238 20.3824Z"/>
<path d="M49.9451 49.4375C50.3724 49.8634 51.0649 49.8634 51.4922 49.4349C51.9186 49.0072 51.9173 48.3147 51.4896 47.8883L41.6309 38.0612C41.2032 37.6348 40.5102 37.6361 40.0843 38.0637C39.6574 38.4918 39.6587 39.184 40.0864 39.6104L49.9451 49.4375Z" />
</g>
<defs>
<clipPath id="clip0_17101_83">
<rect width="55.8907" height="56" fill="white" transform="translate(2)"/>
</clipPath>
</defs>
</svg>
