<svg width="59" height="56" viewBox="0 0 59 56" fill="none" xmlns="http://www.w3.org/2000/svg">
<rect y="9.72266" width="59" height="46" rx="20" fill="#F5F6FB"/>
<path d="M57.9927 39.084C56.3202 25.6665 43.8004 23.6786 40.2667 23.3855V11.1998C40.2667 11.116 40.1491 2.7998 30 2.7998C19.8509 2.7998 19.7333 11.116 19.7333 11.1998V23.3855C16.1996 23.6786 3.68483 25.6665 2.00729 39.084C2.00729 39.1027 2 39.1775 2 39.1998V42.9331C2 43.4486 2.4179 43.8665 2.93333 43.8665H7.6V45.7331H4.8C4.28457 45.7331 3.86667 46.151 3.86667 46.6665C3.86667 48.926 5.23203 53.1998 10.4 53.1998C15.568 53.1998 16.9333 48.926 16.9333 46.6665C16.9333 46.151 16.5154 45.7331 16 45.7331H13.2V43.8665H27.2V45.7331H24.4C23.8846 45.7331 23.4667 46.151 23.4667 46.6665C23.4667 48.926 24.832 53.1998 30 53.1998C35.168 53.1998 36.5333 48.926 36.5333 46.6665C36.5333 46.151 36.1154 45.7331 35.6 45.7331H32.8V43.8665H46.8V45.7331H44C43.4846 45.7331 43.0667 46.151 43.0667 46.6665C43.0667 48.926 44.432 53.1998 49.6 53.1998C54.768 53.1998 56.1333 48.926 56.1333 46.6665C56.1333 46.151 55.7154 45.7331 55.2 45.7331H52.4V43.8665H57.0667C57.5821 43.8665 58 43.4486 58 42.9331V39.1998C58 39.1784 58 39.1064 57.9927 39.084ZM21.6 11.1998C21.6 10.9327 21.6934 4.66647 30 4.66647C38.2487 4.66647 38.4 10.9364 38.4 11.1998V23.3331H36.5333V17.7331H34.6667V23.3331H21.6V11.1998ZM12.8268 27.0104C15.3041 25.9226 17.9633 25.3083 20.6667 25.1998H39.3333C42.0367 25.3083 44.6959 25.9226 47.1732 27.0104C51.88 28.9582 55.2223 33.2293 55.9811 38.2665H4.01888C4.77767 33.2293 8.11999 28.9582 12.8268 27.0104ZM10.4 51.3331C8.12591 51.504 6.1166 49.8625 5.83132 47.5998H14.9641C14.6679 49.8548 12.6686 51.4899 10.4 51.3331ZM11.3333 45.7331H9.46667V43.8665H11.3333V45.7331ZM30 51.3331C27.7259 51.504 25.7166 49.8625 25.4313 47.5998H34.5641C34.2679 49.8548 32.2686 51.4899 30 51.3331ZM30.9333 45.7331H29.0667V43.8665H30.9333V45.7331ZM49.6 51.3331C47.3241 51.5068 45.312 49.8643 45.0268 47.5998H54.1641C53.8679 49.8548 51.8686 51.4899 49.6 51.3331ZM50.5333 45.7331H48.6667V43.8665H50.5333V45.7331ZM56.1333 41.9998H3.86667V40.1331H56.1333V41.9998Z" />
<path d="M30 27.0669C27.4228 27.0669 25.3333 29.1564 25.3333 31.7336C25.3333 34.3107 27.4228 36.4002 30 36.4002C32.5771 36.4002 34.6666 34.3107 34.6666 31.7336C34.6635 29.1573 32.5762 27.0701 30 27.0669ZM30 34.5336C28.4537 34.5336 27.2 33.2798 27.2 31.7336C27.2 30.1873 28.4537 28.9336 30 28.9336C31.5463 28.9336 32.8 30.1873 32.8 31.7336C32.8 33.2798 31.5463 34.5336 30 34.5336Z" />
<path d="M31.8667 31.7334C31.8667 32.7642 31.0309 33.6 30 33.6C28.9692 33.6 28.1334 32.7642 28.1334 31.7334C28.1334 30.7025 28.9692 29.8667 30 29.8667C31.0309 29.8667 31.8667 30.7025 31.8667 31.7334Z" />
<path d="M34.6667 14H36.5334V15.8667H34.6667V14Z" />
<path d="M34.6667 11.1999V12.1332H36.5333V11.1999C36.5333 10.7218 36.3465 6.5332 30 6.5332V8.39987C34.3308 8.39987 34.6667 10.5464 34.6667 11.1999Z" />
<path d="M21.6 30.7998H23.4666V32.6665H21.6V30.7998Z" />
<path d="M17.8666 30.7998H19.7333V32.6665H17.8666V30.7998Z" />
<path d="M36.5333 30.7998H38.4V32.6665H36.5333V30.7998Z" />
<path d="M40.2667 30.7998H42.1333V32.6665H40.2667V30.7998Z" />
</svg>
