<svg width="59" height="56" viewBox="0 0 59 56" fill="none" xmlns="http://www.w3.org/2000/svg">
<rect y="9.72266" width="59" height="46" rx="20" fill="#F5F6FB"/>
<g clip-path="url(#clip0_17103_89)">
<path d="M22.4233 33.8555C22.4233 33.4024 22.0562 33.0352 21.603 33.0352H13.6481C13.1949 33.0352 12.8278 33.4024 12.8278 33.8555V39.1588C12.8278 39.6119 13.1949 39.9792 13.6481 39.9792H21.603C22.0562 39.9792 22.4233 39.6119 22.4233 39.1588V33.8555ZM20.7827 38.3384H14.4684V34.6757H20.7827V38.3384Z" />
<path d="M41.9326 38.2119H46.352C46.8051 38.2119 47.1723 37.8446 47.1723 37.3916C47.1723 36.9386 46.8051 36.5713 46.352 36.5713H41.9326C41.4794 36.5713 41.1122 36.9386 41.1122 37.3916C41.1122 37.8446 41.4794 38.2119 41.9326 38.2119Z" />
<path d="M41.9326 34.6758H46.352C46.8051 34.6758 47.1723 34.3085 47.1723 33.8555C47.1723 33.4024 46.8051 33.0352 46.352 33.0352H41.9326C41.4794 33.0352 41.1122 33.4024 41.1122 33.8555C41.1122 34.3085 41.4794 34.6758 41.9326 34.6758Z" />
<path d="M49.8875 42.7038C49.4344 42.7038 49.0672 43.0711 49.0672 43.5241V54.0755C49.0672 54.2325 48.9396 54.3601 48.7826 54.3601H11.2172C11.0603 54.3601 10.9326 54.2325 10.9326 54.0755V35.9219C10.9326 35.4688 10.5654 35.1016 10.1123 35.1016C9.65916 35.1016 9.29199 35.4688 9.29199 35.9219V54.0754C9.29199 55.137 10.1556 56.0006 11.2172 56.0006H48.7826C49.8441 56.0006 50.7078 55.137 50.7078 54.0754V43.524C50.7078 43.0711 50.3406 42.7038 49.8875 42.7038Z" />
<path d="M48.7827 27.8426H35.2397V23.6819C39.4775 21.702 42.4213 17.3994 42.4213 12.4214C42.4213 5.57222 36.8491 0 30 0C27.6229 0 25.3124 0.67375 23.3182 1.94852C21.3777 3.18894 19.8216 4.93784 18.8182 7.00591C18.6205 7.41355 18.7907 7.90431 19.1983 8.10206C19.6062 8.2997 20.0966 8.12952 20.2944 7.72209C22.1142 3.97086 25.8332 1.64062 30 1.64062C35.9446 1.64062 40.7807 6.47686 40.7807 12.4214C40.7807 18.3659 35.9446 23.2022 30 23.2022C24.0553 23.2022 19.2192 18.3659 19.2192 12.4214C19.2192 12.0025 19.2435 11.5804 19.2914 11.1669C19.3436 10.7168 19.0209 10.3097 18.5709 10.2576C18.1204 10.205 17.7138 10.528 17.6617 10.9781C17.6066 11.4541 17.5786 11.9397 17.5786 12.4215C17.5786 17.3995 20.5224 21.7021 24.7602 23.682V27.8428H11.2172C10.1557 27.8428 9.29199 28.7065 9.29199 29.768V32.0744C9.29199 32.5275 9.65916 32.8948 10.1123 32.8948C10.5654 32.8948 10.9326 32.5275 10.9326 32.0744V29.768C10.9326 29.6111 11.0603 29.4835 11.2172 29.4835H21.8936L29.3825 38.0423C29.5384 38.2202 29.7633 38.3224 30 38.3224C30.2366 38.3224 30.4615 38.2202 30.6174 38.0423L38.1063 29.4835H48.7827C48.9397 29.4835 49.0673 29.6111 49.0673 29.768V39.6737C49.0673 40.1267 49.4345 40.494 49.8876 40.494C50.3408 40.494 50.7079 40.1267 50.7079 39.6737V29.768C50.7078 28.7062 49.8442 27.8426 48.7827 27.8426V27.8426ZM30 36.2561L24.0737 29.4832H25.5804C26.0336 29.4832 26.4008 29.116 26.4008 28.6629V24.3105C27.5406 24.6562 28.7487 24.8429 29.9998 24.8429C31.251 24.8429 32.4593 24.6562 33.5989 24.3105V28.6629C33.5989 29.116 33.9661 29.4832 34.4193 29.4832H35.926L30 36.2561Z" />
<path d="M13.6479 48.0449H15.8577C16.3108 48.0449 16.678 47.6776 16.678 47.2246C16.678 46.7716 16.3108 46.4043 15.8577 46.4043H13.6479C13.1948 46.4043 12.8276 46.7716 12.8276 47.2246C12.8276 47.6776 13.1949 48.0449 13.6479 48.0449V48.0449Z" />
<path d="M21.603 46.4043H19.3933C18.9402 46.4043 18.573 46.7716 18.573 47.2246C18.573 47.6776 18.9402 48.0449 19.3933 48.0449H21.603C22.0562 48.0449 22.4233 47.6776 22.4233 47.2246C22.4233 46.7716 22.056 46.4043 21.603 46.4043Z" />
<path d="M27.3483 48.0449C27.8014 48.0449 28.1686 47.6776 28.1686 47.2246C28.1686 46.7716 27.8014 46.4043 27.3483 46.4043H25.1385C24.6854 46.4043 24.3182 46.7716 24.3182 47.2246C24.3182 47.6776 24.6854 48.0449 25.1385 48.0449H27.3483Z" />
<path d="M33.0935 48.0449C33.5466 48.0449 33.9138 47.6776 33.9138 47.2246C33.9138 46.7716 33.5466 46.4043 33.0935 46.4043H30.8838C30.4306 46.4043 30.0635 46.7716 30.0635 47.2246C30.0635 47.6776 30.4306 48.0449 30.8838 48.0449H33.0935Z" />
<path d="M13.6479 52.4648H22.4869C22.94 52.4648 23.3072 52.0976 23.3072 51.6445C23.3072 51.1915 22.94 50.8242 22.4869 50.8242H13.6479C13.1948 50.8242 12.8276 51.1915 12.8276 51.6445C12.8276 52.0976 13.1949 52.4648 13.6479 52.4648Z" />
<path d="M36.6927 49.4344C36.6927 51.1051 38.0521 52.4644 39.7228 52.4644C40.5936 52.4644 41.3792 52.0946 41.9325 51.5045C42.4857 52.0946 43.2713 52.4644 44.1422 52.4644C45.8129 52.4644 47.1722 51.1051 47.1722 49.4344C47.1722 47.7636 45.8129 46.4043 44.1422 46.4043C43.2713 46.4043 42.4857 46.7741 41.9325 47.3643C41.3792 46.7741 40.5936 46.4043 39.7228 46.4043C38.0521 46.4043 36.6927 47.7636 36.6927 49.4344ZM44.1423 48.0449C44.9084 48.0449 45.5317 48.6682 45.5317 49.4344C45.5317 50.2005 44.9084 50.8238 44.1423 50.8238C43.3761 50.8238 42.7529 50.2005 42.7529 49.4344C42.7529 48.6682 43.3761 48.0449 44.1423 48.0449ZM41.1123 49.4344C41.1123 50.2005 40.489 50.8238 39.7229 50.8238C38.9567 50.8238 38.3335 50.2005 38.3335 49.4344C38.3335 48.6682 38.9567 48.0449 39.7229 48.0449C40.489 48.0449 41.1123 48.6682 41.1123 49.4344Z" />
<path d="M27.2824 16.7146C26.9036 16.4666 26.3951 16.573 26.1469 16.952C25.8988 17.3311 26.0051 17.8396 26.3843 18.0875C27.445 18.7814 28.1688 18.9869 29.1055 19.0386V19.9427C29.1055 20.3958 29.4727 20.763 29.9258 20.763C30.3789 20.763 30.7461 20.3958 30.7461 19.9427V18.9737C32.6055 18.612 33.6915 17.0803 33.932 15.6495C34.2408 13.8127 33.2798 12.2155 31.4838 11.5807C31.2415 11.495 30.9934 11.405 30.7461 11.3114V7.37697C31.372 7.5243 31.745 7.84116 31.7771 7.86927C32.1103 8.17114 32.6253 8.14861 32.9307 7.81731C33.2379 7.48427 33.2169 6.96528 32.8838 6.65816C32.8367 6.61484 32.0437 5.90073 30.7461 5.70802V4.90039C30.7461 4.44736 30.3789 4.08008 29.9258 4.08008C29.4727 4.08008 29.1055 4.44736 29.1055 4.90039V5.77091C28.9806 5.79825 28.8538 5.82986 28.7242 5.86891C27.5418 6.22514 26.6583 7.23708 26.4185 8.50998C26.1998 9.67023 26.5713 10.789 27.388 11.4295C27.8225 11.7703 28.3636 12.0825 29.1055 12.4124V17.3958C28.4586 17.3497 28.0145 17.1935 27.2824 16.7146V16.7146ZM28.4006 10.1387C28.0676 9.87761 27.9259 9.36989 28.0307 8.81383C28.1251 8.31311 28.4572 7.711 29.1055 7.4718V10.588C28.84 10.4446 28.5998 10.295 28.4006 10.1387ZM30.9371 13.1277C32.4745 13.6711 32.3796 14.9873 32.314 15.3777C32.1856 16.1422 31.6516 16.9525 30.7461 17.2714V13.0593C30.8096 13.0821 30.8718 13.1046 30.9371 13.1277Z" />
</g>
<defs>
<clipPath id="clip0_17103_89">
<rect width="56" height="56" fill="white" transform="translate(2)"/>
</clipPath>
</defs>
</svg>
