<svg width="60" height="56" viewBox="0 0 60 56" fill="none" xmlns="http://www.w3.org/2000/svg">
<rect y="9.72266" width="59" height="46" rx="20" fill="#F5F6FB"/>
<path d="M30.973 22.6616C30.7822 22.5941 30.5878 22.524 30.3931 22.4518V18.922C31.037 19.1772 31.4893 19.5348 31.5071 19.549C31.9725 19.9306 32.6594 19.8644 33.0433 19.4003C33.4284 18.9348 33.3632 18.2455 32.8977 17.8603C32.8337 17.8074 31.8175 16.9818 30.3932 16.6337V16.0977C30.3932 15.4936 29.9034 15.0039 29.2995 15.0039C28.6955 15.0039 28.2057 15.4936 28.2057 16.0977V16.5831C28.0899 16.608 27.9736 16.6361 27.8565 16.6713C26.5991 17.0501 25.6914 18.1099 25.4282 19.5064C25.1726 20.8632 25.6147 22.2163 26.5546 22.9534C26.9835 23.2897 27.5062 23.5982 28.2058 23.9187V28.5446C27.7105 28.4751 27.3391 28.307 26.7474 27.9199C26.242 27.5891 25.5642 27.7308 25.2333 28.2364C24.9027 28.7419 25.0442 29.4197 25.5499 29.7505C26.5888 30.4301 27.3214 30.6688 28.2058 30.745V31.4251C28.2058 32.0292 28.6956 32.5189 29.2996 32.5189C29.9035 32.5189 30.3933 32.0292 30.3933 31.4251V30.6403C32.2125 30.1792 33.3785 28.6253 33.6361 27.0933C33.9672 25.1227 32.897 23.3418 30.973 22.6616ZM28.2057 21.4442C28.0973 21.3748 27.9962 21.3042 27.9045 21.2323C27.6093 21.0007 27.475 20.4576 27.5779 19.9116C27.6124 19.7285 27.752 19.1848 28.2057 18.8962V21.4442ZM31.4787 26.7309C31.3787 27.3251 31.0103 27.9497 30.3931 28.3025V24.7821C31.5802 25.2813 31.5506 26.3026 31.4787 26.7309Z" />
<path d="M55.7903 23.3685L48.8438 18.7812V1.09375C48.8438 0.489672 48.354 0 47.75 0H21.5C20.896 0 20.4062 0.489672 20.4062 1.09375V5.25H16.25C15.646 5.25 15.1562 5.73967 15.1562 6.34375V18.7813L8.20973 23.3686C7.90327 23.571 7.71875 23.9139 7.71875 24.2812V54.9062C7.71875 55.5103 8.20853 56 8.8125 56H27.0781C27.6821 56 28.1719 55.5103 28.1719 54.9062C28.1719 54.3022 27.6821 53.8125 27.0781 53.8125H11.4531L27.3994 37.8663L31.3973 40.5065C31.58 40.6271 31.79 40.6875 32 40.6875C32.21 40.6875 32.42 40.6271 32.6028 40.5065L36.6007 37.8663L52.547 53.8125H36.9219C36.3179 53.8125 35.8281 54.3022 35.8281 54.9062C35.8281 55.5103 36.3179 56 36.9219 56H55.1875C55.7915 56 56.2812 55.5103 56.2812 54.9062V24.2812C56.2812 23.9139 56.0967 23.571 55.7903 23.3685ZM53.2027 24.2812L48.8438 27.1598V21.4027L53.2027 24.2812ZM22.5938 2.1875H46.6562V28.6044L43.5938 30.6269V6.34375C43.5938 5.73967 43.104 5.25 42.5 5.25H22.5938V2.1875ZM15.1562 21.4027V27.1598L10.7973 24.2812L15.1562 21.4027ZM9.90625 52.2657V26.3143L25.536 36.6359L9.90625 52.2657ZM32 38.283L17.3438 28.6043V7.4375H41.4062V32.0714L32 38.283ZM54.0938 26.3143V52.2657L38.464 36.6358L54.0938 26.3143Z" />
<path d="M32 53.8125C31.7123 53.8125 31.4302 53.9295 31.2267 54.133C31.0233 54.3364 30.9062 54.6186 30.9062 54.9062C30.9062 55.1939 31.0232 55.4761 31.2267 55.6795C31.4303 55.883 31.7123 56 32 56C32.2877 56 32.5698 55.883 32.7732 55.6795C32.9766 55.4761 33.0938 55.1939 33.0938 54.9062C33.0938 54.6186 32.9767 54.3364 32.7732 54.133C32.5698 53.9295 32.2877 53.8125 32 53.8125Z" />
</svg>
