<svg width="56" height="56" viewBox="0 0 56 56" fill="none" xmlns="http://www.w3.org/2000/svg">
<g clip-path="url(#clip0_12_36)">
<rect x="-2" y="9.72266" width="59" height="46" rx="20"/>
<path d="M20.4233 33.8555C20.4233 33.4024 20.0562 33.0352 19.603 33.0352H11.6481C11.1949 33.0352 10.8278 33.4024 10.8278 33.8555V39.1588C10.8278 39.6119 11.1949 39.9792 11.6481 39.9792H19.603C20.0562 39.9792 20.4233 39.6119 20.4233 39.1588V33.8555ZM18.7827 38.3384H12.4684V34.6757H18.7827V38.3384Z"/>
<path d="M39.9326 38.2119H44.352C44.8051 38.2119 45.1723 37.8446 45.1723 37.3916C45.1723 36.9386 44.8051 36.5713 44.352 36.5713H39.9326C39.4794 36.5713 39.1122 36.9386 39.1122 37.3916C39.1122 37.8446 39.4794 38.2119 39.9326 38.2119Z"/>
<path d="M39.9326 34.6758H44.352C44.8051 34.6758 45.1723 34.3085 45.1723 33.8555C45.1723 33.4024 44.8051 33.0352 44.352 33.0352H39.9326C39.4794 33.0352 39.1122 33.4024 39.1122 33.8555C39.1122 34.3085 39.4794 34.6758 39.9326 34.6758Z"/>
<path d="M47.8875 42.7038C47.4344 42.7038 47.0672 43.0711 47.0672 43.5241V54.0755C47.0672 54.2325 46.9396 54.3601 46.7826 54.3601H9.21721C9.06026 54.3601 8.93262 54.2325 8.93262 54.0755V35.9219C8.93262 35.4688 8.56545 35.1016 8.1123 35.1016C7.65916 35.1016 7.29199 35.4688 7.29199 35.9219V54.0754C7.29199 55.137 8.15562 56.0006 9.21721 56.0006H46.7826C47.8441 56.0006 48.7078 55.137 48.7078 54.0754V43.524C48.7078 43.0711 48.3406 42.7038 47.8875 42.7038Z"/>
<path d="M46.7827 27.8426H33.2397V23.6819C37.4775 21.702 40.4213 17.3994 40.4213 12.4214C40.4213 5.57222 34.8491 0 28 0C25.6229 0 23.3124 0.67375 21.3182 1.94852C19.3777 3.18894 17.8216 4.93784 16.8182 7.00591C16.6205 7.41355 16.7907 7.90431 17.1983 8.10206C17.6062 8.2997 18.0966 8.12952 18.2944 7.72209C20.1142 3.97086 23.8332 1.64062 28 1.64062C33.9446 1.64062 38.7807 6.47686 38.7807 12.4214C38.7807 18.3659 33.9446 23.2022 28 23.2022C22.0553 23.2022 17.2192 18.3659 17.2192 12.4214C17.2192 12.0025 17.2435 11.5804 17.2914 11.1669C17.3436 10.7168 17.0209 10.3097 16.5709 10.2576C16.1204 10.205 15.7138 10.528 15.6617 10.9781C15.6066 11.4541 15.5786 11.9397 15.5786 12.4215C15.5786 17.3995 18.5224 21.7021 22.7602 23.682V27.8428H9.21721C8.15573 27.8428 7.29199 28.7065 7.29199 29.768V32.0744C7.29199 32.5275 7.65916 32.8948 8.1123 32.8948C8.56545 32.8948 8.93262 32.5275 8.93262 32.0744V29.768C8.93262 29.6111 9.06026 29.4835 9.21721 29.4835H19.8936L27.3825 38.0423C27.5384 38.2202 27.7633 38.3224 28 38.3224C28.2366 38.3224 28.4615 38.2202 28.6174 38.0423L36.1063 29.4835H46.7827C46.9397 29.4835 47.0673 29.6111 47.0673 29.768V39.6737C47.0673 40.1267 47.4345 40.494 47.8876 40.494C48.3408 40.494 48.7079 40.1267 48.7079 39.6737V29.768C48.7078 28.7062 47.8442 27.8426 46.7827 27.8426ZM28 36.2561L22.0737 29.4832H23.5804C24.0336 29.4832 24.4008 29.116 24.4008 28.6629V24.3105C25.5406 24.6562 26.7487 24.8429 27.9998 24.8429C29.251 24.8429 30.4593 24.6562 31.5989 24.3105V28.6629C31.5989 29.116 31.9661 29.4832 32.4193 29.4832H33.926L28 36.2561Z"/>
<path d="M11.6479 48.0449H13.8577C14.3108 48.0449 14.678 47.6776 14.678 47.2246C14.678 46.7716 14.3108 46.4043 13.8577 46.4043H11.6479C11.1948 46.4043 10.8276 46.7716 10.8276 47.2246C10.8276 47.6776 11.1949 48.0449 11.6479 48.0449Z"/>
<path d="M19.603 46.4043H17.3933C16.9402 46.4043 16.573 46.7716 16.573 47.2246C16.573 47.6776 16.9402 48.0449 17.3933 48.0449H19.603C20.0562 48.0449 20.4233 47.6776 20.4233 47.2246C20.4233 46.7716 20.056 46.4043 19.603 46.4043Z"/>
<path d="M25.3483 48.0449C25.8014 48.0449 26.1686 47.6776 26.1686 47.2246C26.1686 46.7716 25.8014 46.4043 25.3483 46.4043H23.1385C22.6854 46.4043 22.3182 46.7716 22.3182 47.2246C22.3182 47.6776 22.6854 48.0449 23.1385 48.0449H25.3483Z"/>
<path d="M31.0935 48.0449C31.5466 48.0449 31.9138 47.6776 31.9138 47.2246C31.9138 46.7716 31.5466 46.4043 31.0935 46.4043H28.8838C28.4306 46.4043 28.0635 46.7716 28.0635 47.2246C28.0635 47.6776 28.4306 48.0449 28.8838 48.0449H31.0935Z"/>
<path d="M11.6479 52.4648H20.4869C20.94 52.4648 21.3072 52.0976 21.3072 51.6445C21.3072 51.1915 20.94 50.8242 20.4869 50.8242H11.6479C11.1948 50.8242 10.8276 51.1915 10.8276 51.6445C10.8276 52.0976 11.1949 52.4648 11.6479 52.4648Z"/>
<path d="M34.6927 49.4344C34.6927 51.1051 36.0521 52.4644 37.7228 52.4644C38.5936 52.4644 39.3792 52.0946 39.9325 51.5045C40.4857 52.0946 41.2713 52.4644 42.1422 52.4644C43.8129 52.4644 45.1722 51.1051 45.1722 49.4344C45.1722 47.7636 43.8129 46.4043 42.1422 46.4043C41.2713 46.4043 40.4857 46.7741 39.9325 47.3643C39.3792 46.7741 38.5936 46.4043 37.7228 46.4043C36.0521 46.4043 34.6927 47.7636 34.6927 49.4344ZM42.1423 48.0449C42.9085 48.0449 43.5317 48.6682 43.5317 49.4344C43.5317 50.2005 42.9085 50.8238 42.1423 50.8238C41.3761 50.8238 40.7529 50.2005 40.7529 49.4344C40.7529 48.6682 41.3761 48.0449 42.1423 48.0449ZM39.1123 49.4344C39.1123 50.2005 38.489 50.8238 37.7229 50.8238C36.9567 50.8238 36.3335 50.2005 36.3335 49.4344C36.3335 48.6682 36.9567 48.0449 37.7229 48.0449C38.489 48.0449 39.1123 48.6682 39.1123 49.4344Z"/>
<path d="M25.2824 16.7146C24.9036 16.4666 24.3951 16.573 24.1469 16.952C23.8988 17.3311 24.0051 17.8396 24.3843 18.0875C25.445 18.7814 26.1688 18.9869 27.1055 19.0386V19.9427C27.1055 20.3958 27.4727 20.763 27.9258 20.763C28.3789 20.763 28.7461 20.3958 28.7461 19.9427V18.9737C30.6055 18.612 31.6915 17.0803 31.932 15.6495C32.2408 13.8127 31.2798 12.2155 29.4838 11.5807C29.2415 11.495 28.9934 11.405 28.7461 11.3114V7.37697C29.372 7.5243 29.745 7.84116 29.7771 7.86927C30.1103 8.17114 30.6253 8.14861 30.9307 7.81731C31.2379 7.48427 31.2169 6.96528 30.8839 6.65816C30.8367 6.61484 30.0437 5.90073 28.7461 5.70802V4.90039C28.7461 4.44736 28.3789 4.08008 27.9258 4.08008C27.4727 4.08008 27.1055 4.44736 27.1055 4.90039V5.77091C26.9806 5.79825 26.8538 5.82986 26.7242 5.86891C25.5418 6.22514 24.6583 7.23708 24.4185 8.50998C24.1998 9.67023 24.5713 10.789 25.388 11.4295C25.8225 11.7703 26.3636 12.0825 27.1055 12.4124V17.3958C26.4586 17.3497 26.0145 17.1935 25.2824 16.7146ZM26.4006 10.1387C26.0676 9.87761 25.9259 9.36989 26.0307 8.81383C26.1251 8.31311 26.4572 7.711 27.1055 7.4718V10.588C26.84 10.4446 26.5998 10.295 26.4006 10.1387ZM28.9371 13.1277C30.4745 13.6711 30.3796 14.9873 30.314 15.3778C30.1856 16.1422 29.6516 16.9525 28.7461 17.2714V13.0593C28.8096 13.0821 28.8718 13.1046 28.9371 13.1277Z"/>
</g>
<defs>
<clipPath id="clip0_12_36">
<rect width="56" height="56"/>
</clipPath>
</defs>
</svg>
