<svg aria-hidden="true" style="position: absolute; width: 0; height: 0; overflow: hidden;" version="1.1" xmlns="http://www.w3.org/2000/svg" xmlns:xlink="http://www.w3.org/1999/xlink">
<defs>
<symbol id="icon-book" viewBox="0 0 32 32">
<path d="M31.38 6.431c-0.002 0-0.004 0-0.006 0h-2.103v-0.72c0.011-0.285-0.173-0.541-0.447-0.62-1.46-0.383-2.963-0.574-4.472-0.571-2.481 0-5.862 0.558-8.361 3.101-2.481-2.568-5.886-3.101-8.361-3.101-1.509-0.004-3.012 0.188-4.472 0.571-0.274 0.080-0.458 0.335-0.447 0.62v0.713h-2.090c-0.343 0-0.62 0.278-0.62 0.62v19.812c0 0.343 0.278 0.62 0.62 0.62 0.107-0 0.211-0.028 0.304-0.081 0.062-0.031 6.265-3.424 14.924-1.241h0.149c0.049 0.006 0.099 0.006 0.149 0 8.684-2.202 14.887 1.185 14.924 1.241 0.192 0.111 0.428 0.111 0.62 0 0.191-0.11 0.309-0.313 0.31-0.533v-19.812c0-0.343-0.278-0.62-0.62-0.62zM1.241 25.871v-18.199h1.482v15.556c-0.004 0.343 0.271 0.623 0.613 0.627 0.034 0 0.067-0.002 0.1-0.007 1.283-0.196 2.579-0.3 3.877-0.31 1.798-0.031 3.588 0.239 5.297 0.8-3.858-0.467-7.772 0.061-11.37 1.532zM7.313 22.304c-1.128 0.003-2.255 0.075-3.374 0.217v-16.319c1.208-0.269 2.441-0.406 3.678-0.409 2.32 0 5.52 0.533 7.741 3.039l0.019 15.451c-1.29-0.844-3.809-1.979-8.064-1.979zM16.617 8.832c2.221-2.481 5.421-3.039 7.741-3.039 1.237 0.004 2.47 0.141 3.678 0.409v16.319c-1.113-0.143-2.234-0.218-3.356-0.223-4.23 0-6.755 1.135-8.064 1.979v-15.445zM30.753 25.871c-3.605-1.475-7.528-2.003-11.394-1.532 1.717-0.563 3.516-0.833 5.322-0.8 1.306 0.007 2.61 0.109 3.902 0.304 0.339 0.051 0.655-0.182 0.706-0.52 0.005-0.033 0.007-0.067 0.007-0.1v-15.55h1.482l-0.025 18.199z"></path>
</symbol>
<symbol id="icon-car" viewBox="0 0 32 32">
<path d="M30.776 12.82l-0.697-0.738-2.448-6.598c-0.417-1.115-1.484-1.853-2.674-1.86h-17.484c-1.19 0-2.256 0.745-2.674 1.86l-2.414 6.516-1.005 0.93c-0.875 0.745-1.381 1.839-1.381 2.988v9.614c0.007 1.573 1.285 2.844 2.858 2.844h1.805c1.573 0 2.851-1.272 2.858-2.844v-1.395h16.957v1.395c0.007 1.573 1.285 2.844 2.858 2.844h1.805c1.573 0 2.851-1.272 2.858-2.844v-9.867c-0.007-1.073-0.444-2.099-1.224-2.844zM6.085 5.949c0.219-0.581 0.773-0.957 1.388-0.957h17.491c0.615 0 1.169 0.383 1.388 0.957l2.133 5.744h-1.593c-0.376-2.564-2.762-4.335-5.326-3.952-2.044 0.301-3.651 1.908-3.952 3.952h-13.662l2.133-5.744zM25.497 11.692h-6.503c0.376-1.798 2.14-2.947 3.938-2.571 1.285 0.274 2.291 1.279 2.564 2.571zM6.154 25.532c-0.007 0.82-0.67 1.477-1.491 1.477h-1.805c-0.821 0-1.484-0.656-1.491-1.477v-1.791c0.41 0.267 0.95 0.397 1.491 0.397h3.296v1.395zM30.632 25.532c-0.007 0.82-0.67 1.477-1.491 1.477h-1.805c-0.82 0-1.484-0.663-1.491-1.477v-1.395h3.296c0.54 0 1.080-0.13 1.491-0.397v1.791zM29.142 22.769h-26.284c-0.814 0.007-1.484-0.643-1.491-1.463v-5.388c0-0.752 0.335-1.47 0.909-1.956 0.007-0.007 0.021-0.021 0.027-0.027l0.93-0.875h25.894l0.656 0.704c0.007 0.014 0.027 0.021 0.034 0.034 0.513 0.486 0.807 1.162 0.807 1.867v5.641h0.007c-0.007 0.814-0.677 1.47-1.491 1.463z"></path>
<path d="M9.026 15.795h-5.128c-0.376 0-0.684 0.308-0.684 0.684v3.556c0 0.376 0.308 0.684 0.684 0.684h5.128c0.376 0 0.684-0.308 0.684-0.684v-3.556c0-0.376-0.308-0.684-0.684-0.684zM8.342 19.35h-3.761v-2.188h3.761v2.188z"></path>
<path d="M28.103 15.795h-5.128c-0.376 0-0.684 0.308-0.684 0.684v3.556c0 0.376 0.308 0.684 0.684 0.684h5.128c0.376 0 0.684-0.308 0.684-0.684v-3.556c0-0.376-0.308-0.684-0.684-0.684zM27.419 19.35h-3.761v-2.188h3.761v2.188z"></path>
<path d="M19.303 18.667h-6.605c-0.376 0-0.684 0.308-0.684 0.684s0.308 0.684 0.684 0.684h6.605c0.376 0 0.684-0.308 0.684-0.684s-0.308-0.684-0.684-0.684z"></path>
<path d="M19.303 16.547h-6.605c-0.376 0-0.684 0.308-0.684 0.684s0.308 0.684 0.684 0.684h6.605c0.376 0 0.684-0.308 0.684-0.684s-0.308-0.684-0.684-0.684z"></path>
</symbol>
<symbol id="icon-clay" viewBox="0 0 32 32">
<path d="M31.020 13.515h-1.907c-0.354 0-0.665 0.182-0.847 0.456-1.458-0.152-1.652-0.386-1.81-0.576-0.214-0.259-0.468-0.479-0.756-0.653l-4.383-2.662c-0.893-2.073-2.386-3.369-3.493-4.096-0.431-0.283-0.689-0.762-0.689-1.282 0-0.307 0.090-0.603 0.261-0.857l1.090-1.622c0.217-0.323 0.292-0.711 0.211-1.092s-0.307-0.705-0.636-0.912c-0.228-0.143-0.49-0.218-0.759-0.218h-5.178c-0.269 0-0.531 0.076-0.759 0.218-0.33 0.207-0.556 0.531-0.636 0.912s-0.006 0.769 0.211 1.092l1.090 1.622c0.171 0.254 0.261 0.551 0.261 0.857 0 0.52-0.258 0.999-0.689 1.282-1.642 1.077-5.311 4.25-3.924 10.452 0.774 3.459 1.371 5.897 1.731 7.070h-7.729c-0.637 0-1.195 0.453-1.325 1.077l-0.264 1.268c-0.084 0.401 0.017 0.812 0.275 1.13s0.641 0.5 1.050 0.5h26.594c0.409 0 0.792-0.182 1.050-0.5s0.358-0.73 0.275-1.13l-0.264-1.268c-0.13-0.624-0.688-1.077-1.325-1.077h-7.729c0.107-0.351 0.237-0.818 0.387-1.396h0.509c1.493 0 2.972-0.223 4.399-0.663l2.913-0.367c0.174 0.311 0.506 0.522 0.888 0.522h1.907c0.56 0 1.016-0.456 1.016-1.016v-6.054c0-0.56-0.456-1.017-1.016-1.017zM11.646 1.325c0.028-0.131 0.105-0.241 0.218-0.313 0.078-0.049 0.168-0.075 0.26-0.075h5.178c0.092 0 0.182 0.026 0.26 0.075 0.113 0.071 0.19 0.182 0.218 0.313s0.002 0.263-0.073 0.374l-0.539 0.803h-4.911l-0.539-0.803c-0.074-0.111-0.1-0.244-0.072-0.374zM12.116 6.767c0.697-0.457 1.113-1.229 1.113-2.066 0-0.447-0.121-0.88-0.348-1.262h3.664c-0.227 0.382-0.347 0.815-0.347 1.262 0 0.837 0.416 1.609 1.113 2.066 0.287 0.188 0.603 0.419 0.926 0.696h-7.043c0.328-0.282 0.645-0.513 0.923-0.696zM28.154 24.774l0.264 1.268c0.035 0.168-0.038 0.29-0.084 0.347s-0.151 0.154-0.323 0.154h-26.594c-0.172 0-0.276-0.096-0.323-0.154s-0.12-0.179-0.084-0.347l0.264-1.268c0.040-0.192 0.211-0.331 0.407-0.331h26.066c0.196 0 0.367 0.139 0.407 0.331zM19.033 23.506h-8.64c-0.193-0.575-0.683-2.285-1.8-7.275-0.471-2.104-0.358-4.009 0.332-5.676h1.727c0.259 0 0.469-0.21 0.469-0.469s-0.21-0.469-0.469-0.469h-1.262c0.265-0.456 0.559-0.86 0.864-1.216h8.919c0.306 0.357 0.6 0.761 0.863 1.216h-7.508c-0.259 0-0.469 0.21-0.469 0.469s0.21 0.469 0.469 0.469h6.212c-0.119 0.292-0.144 0.613-0.067 0.925 0.096 0.39 0.338 0.72 0.681 0.927l0.806 0.489h-5.21c-0.827 0-1.498 0.636-1.527 1.449-0.008 0.216 0.030 0.427 0.108 0.62h-0.481c-0.412 0-0.796 0.163-1.082 0.46s-0.435 0.686-0.42 1.098c0.023 0.644 0.449 1.177 1.036 1.371-0.093 0.195-0.145 0.414-0.145 0.644 0 0.829 0.675 1.503 1.503 1.503h0.71c-0.071 0.175-0.111 0.366-0.111 0.566 0 0.829 0.675 1.503 1.503 1.503h3.388c-0.197 0.745-0.324 1.163-0.402 1.395zM25.154 20.522c-0.028 0.003-0.054 0.009-0.081 0.017-1.348 0.42-2.748 0.633-4.16 0.633h-4.866c-0.312 0-0.566-0.254-0.566-0.566s0.254-0.566 0.566-0.566h3.072c0.259 0 0.469-0.21 0.469-0.469s-0.21-0.469-0.469-0.469h-5.176c-0.312 0-0.566-0.254-0.566-0.566s0.254-0.566 0.566-0.566h5.176c0.259 0 0.469-0.21 0.469-0.469s-0.21-0.469-0.469-0.469h-6.043c-0.315 0-0.58-0.244-0.59-0.545-0.005-0.155 0.051-0.302 0.158-0.414s0.252-0.173 0.407-0.173h6.068c0.259 0 0.469-0.21 0.469-0.469s-0.21-0.469-0.469-0.469h-4.193c-0.155 0-0.3-0.062-0.407-0.173s-0.164-0.258-0.158-0.414c0.011-0.3 0.276-0.545 0.59-0.545h6.461c0.266 0 0.494-0.172 0.566-0.429s-0.033-0.522-0.261-0.66l-1.876-1.139c-0.129-0.078-0.22-0.202-0.256-0.349s-0.013-0.299 0.065-0.428c0.162-0.267 0.51-0.353 0.777-0.191l4.786 2.907c0.198 0.12 0.372 0.271 0.52 0.45 0.383 0.463 0.875 0.741 2.363 0.904v5.255l-2.942 0.371zM31.099 20.586c0 0.043-0.035 0.079-0.079 0.079h-1.907c-0.043 0-0.079-0.035-0.079-0.079v-6.055c0-0.043 0.035-0.079 0.079-0.079h1.907c0.043 0 0.079 0.035 0.079 0.079v6.055z"></path>
<path d="M22.477 30.488l-2.441-1.964c-0.202-0.162-0.497-0.13-0.659 0.072s-0.13 0.497 0.071 0.659l2.248 1.808h-13.965l2.253-1.812c0.202-0.162 0.234-0.457 0.071-0.659s-0.457-0.234-0.659-0.072l-2.446 1.968c-0.285 0.229-0.39 0.6-0.269 0.945s0.436 0.568 0.802 0.568h14.461c0.366 0 0.68-0.223 0.802-0.568s0.016-0.716-0.269-0.945z"></path>
</symbol>
<symbol id="icon-cocktail" viewBox="0 0 32 32">
<path d="M7.734 2.7c-0.262 0-0.475 0.213-0.475 0.475v0.201c0 0.262 0.213 0.475 0.475 0.475s0.475-0.213 0.475-0.475v-0.201c-0-0.262-0.213-0.475-0.475-0.475z"></path>
<path d="M6.354 4.281h-0.201c-0.262 0-0.475 0.213-0.475 0.475s0.213 0.475 0.475 0.475h0.201c0.262 0 0.475-0.213 0.475-0.475s-0.213-0.475-0.475-0.475z"></path>
<path d="M7.094 3.444l-0.142-0.142c-0.185-0.185-0.486-0.185-0.671 0s-0.185 0.486 0 0.671l0.142 0.142c0.093 0.093 0.214 0.139 0.336 0.139s0.243-0.046 0.336-0.139c0.185-0.185 0.185-0.486-0-0.671z"></path>
<path d="M7.094 5.396c-0.185-0.185-0.486-0.185-0.671 0l-0.142 0.142c-0.185 0.185-0.185 0.486 0 0.671 0.093 0.093 0.214 0.139 0.336 0.139s0.243-0.046 0.336-0.139l0.142-0.142c0.186-0.185 0.186-0.486 0-0.671z"></path>
<path d="M28.455 3.916h-16.040c-0.181-1.016-0.688-1.946-1.455-2.655-0.88-0.814-2.026-1.262-3.226-1.262-2.622 0-4.756 2.133-4.756 4.756s2.133 4.756 4.756 4.756c0.482 0 0.955-0.073 1.411-0.215 0.715 0.675 1.602 1.18 2.603 1.44 0.647 0.168 1.138 0.702 1.252 1.36l0.604 3.496c0.213 1.235 0.9 2.306 1.935 3.015 0.785 0.538 1.253 1.414 1.253 2.345v7.125c-0.362 0.229-0.594 0.633-0.594 1.078 0 0.014 0 0.027 0.001 0.041-1.186 0.242-2.163 0.466-2.905 0.664-0.505 0.135-0.886 0.254-1.165 0.364-0.26 0.102-0.744 0.293-0.744 0.736 0 0.595 0.773 0.696 1.394 0.778 0.534 0.070 1.273 0.128 2.198 0.174 1.562 0.076 3.144 0.089 3.16 0.089 0.001 0 0.002 0 0.004 0s0.002 0 0.004 0c0.016-0 1.598-0.013 3.16-0.089 0.925-0.045 1.664-0.104 2.198-0.174 0.621-0.082 1.394-0.183 1.394-0.778 0-0.47-0.434-0.713-2.018-1.129-0.96-0.252-2.156-0.506-3.015-0.68-0.001-0.343-0.137-0.663-0.375-0.899v-7.3c0-0.931 0.468-1.807 1.253-2.345 1.035-0.709 1.722-1.78 1.935-3.015l0.604-3.496c0.114-0.658 0.605-1.192 1.252-1.36 2.169-0.564 3.8-2.274 4.316-4.381 0.002-0.008 0.004-0.016 0.006-0.024 0.109-0.453 0.167-0.924 0.167-1.406v-0.443c0-0.312-0.254-0.566-0.566-0.566zM7.734 8.562c-2.099 0-3.806-1.707-3.806-3.806s1.708-3.806 3.806-3.806c0.96 0 1.877 0.359 2.581 1.010 0.572 0.528 0.963 1.21 1.131 1.957h-0.486c-0.376-1.448-1.695-2.494-3.226-2.494-1.838 0-3.334 1.496-3.334 3.334s1.496 3.334 3.334 3.334c0.137 0 0.274-0.009 0.411-0.026 0.091 0.149 0.189 0.293 0.292 0.433-0.231 0.043-0.466 0.065-0.703 0.065zM9.188 3.302c-0.185-0.185-0.486-0.185-0.671 0l-0.142 0.142c-0.128 0.128-0.168 0.31-0.119 0.472h-0.43c-0.312 0-0.566 0.254-0.566 0.566v0.443c0 0.482 0.058 0.952 0.167 1.405 0.002 0.009 0.004 0.017 0.006 0.026 0.066 0.267 0.149 0.529 0.249 0.782-1.291-0.028-2.332-1.086-2.332-2.383 0-1.315 1.070-2.385 2.385-2.385 1.009 0 1.889 0.635 2.232 1.545h-0.73c0.135-0.186 0.119-0.447-0.048-0.614zM19.606 30.068c1.669 0.336 2.717 0.59 3.373 0.774-1.2 0.118-3.124 0.195-4.838 0.208-1.714-0.013-3.638-0.090-4.838-0.208 0.627-0.176 1.613-0.416 3.158-0.731 0.427-0.087 0.723-0.487 0.688-0.93-0.001-0.008-0.001-0.017-0.001-0.026 0-0.147 0.099-0.276 0.242-0.315 0.208-0.056 0.352-0.244 0.352-0.459v-7.43c0-0.625-0.157-1.231-0.446-1.771 0.265 0.017 0.555 0.026 0.845 0.026s0.58-0.009 0.845-0.026c-0.289 0.539-0.446 1.145-0.446 1.771v7.526c0 0.163 0.084 0.314 0.221 0.401 0.096 0.061 0.153 0.164 0.153 0.276 0 0.007-0 0.014-0.001 0.021-0.027 0.424 0.27 0.807 0.692 0.892zM28.072 4.926h-0c0 0.285-0.024 0.566-0.070 0.841h-14.294c-0.262 0-0.475 0.213-0.475 0.475s0.213 0.475 0.475 0.475h14.036c-0.568 1.499-1.831 2.68-3.45 3.102-1.007 0.262-1.772 1.093-1.948 2.117l-0.604 3.496c-0.169 0.98-0.715 1.83-1.536 2.393-0.127 0.087-0.506 0.291-0.575 0.322-0.376 0.148-2.601 0.148-2.98 0-0.069-0.030-0.448-0.235-0.575-0.322-0.821-0.563-1.367-1.413-1.536-2.393l-0.604-3.496c-0.177-1.024-0.942-1.855-1.948-2.117-0.916-0.238-1.719-0.72-2.346-1.365-0.015-0.018-0.031-0.035-0.048-0.051-0.458-0.484-0.819-1.057-1.057-1.686h2.962c0.262 0 0.475-0.213 0.475-0.475s-0.213-0.475-0.475-0.475h-3.22c-0.046-0.274-0.070-0.555-0.070-0.841v-0.060h19.863v0.060z"></path>
</symbol>
<symbol id="icon-couch" viewBox="0 0 32 32">
<path d="M30.414 11.952h-0.636v-2.363c0-1.397-1.136-2.533-2.533-2.533h-9.181c-0.851 0-1.605 0.422-2.064 1.068-0.46-0.646-1.213-1.068-2.064-1.068h-5.768c-0.259 0-0.469 0.21-0.469 0.469s0.21 0.469 0.469 0.469h5.768c0.88 0 1.596 0.716 1.596 1.596v4.688c-0.010-0.009-0.020-0.018-0.030-0.028-0.556-0.518-1.309-0.817-2.069-0.817h-7.808c-0.041-0.629-0.47-1.183-1.062-1.393-0.167-0.059-0.343-0.088-0.52-0.088h-0.883v-2.363c0-0.88 0.716-1.596 1.596-1.596h1.538c0.259 0 0.469-0.21 0.469-0.469s-0.21-0.469-0.469-0.469h-1.538c-1.397 0-2.533 1.136-2.533 2.533v2.363h-0.636c-0.875 0-1.586 0.712-1.586 1.586v4.894c0 1.821 1.482 3.303 3.303 3.303h0.236c0 0-0.513 1.381-0.514 1.382-0.324 0.871 0.343 1.828 1.27 1.828h0.754c0.422 0 0.826-0.201 1.081-0.538l2.021-2.671h15.699l2.021 2.672c0.255 0.337 0.659 0.538 1.081 0.538 0 0 0.754 0 0.754 0 0.929 0 1.594-0.957 1.27-1.828l-0.514-1.382h0.236c1.821 0 3.303-1.482 3.303-3.303v-4.894c0-0.874-0.711-1.586-1.586-1.586zM16.469 9.589c0-0.88 0.716-1.596 1.596-1.596h9.181c0.88 0 1.596 0.716 1.596 1.596v2.363c0 0-0.882 0-0.883 0-0.623 0-1.221 0.4-1.463 0.974-0.068 0.161-0.108 0.333-0.12 0.507 0 0-7.808 0-7.808 0-0.772 0-1.541 0.311-2.099 0.844v-4.688zM5.628 14.37h7.805c1.157 0 2.099 0.942 2.099 2.099v0.667h-9.903v-2.766zM5.382 23.841c-0.079 0.104-0.203 0.166-0.333 0.166 0 0-0.752 0-0.754 0-0.287 0-0.492-0.294-0.392-0.563l0.635-1.708h2.437l-1.593 2.106zM27.705 24.006h-0.754c-0.13 0-0.255-0.062-0.333-0.166l-1.593-2.106h2.437c0 0 0.633 1.702 0.635 1.708 0.1 0.27-0.106 0.563-0.392 0.563zM28.697 20.797h-25.395c-1.304 0-2.365-1.061-2.365-2.365v-4.894c0-0.358 0.291-0.648 0.648-0.648h2.456c0.358 0 0.648 0.291 0.648 0.648v4.067c0 0.259 0.21 0.469 0.469 0.469h17.217c0.259 0 0.469-0.21 0.469-0.469s-0.21-0.469-0.469-0.469h-5.907v-0.667c0-1.157 0.942-2.099 2.099-2.099h7.805v2.766h-2.121c-0.259 0-0.469 0.21-0.469 0.469s0.21 0.469 0.469 0.469h2.59c0.259 0 0.469-0.21 0.469-0.469v-4.067c0-0.358 0.291-0.648 0.648-0.648h2.456c0.358 0 0.648 0.291 0.648 0.648v4.894h0c0 1.304-1.061 2.365-2.365 2.365z"></path>
</symbol>
<symbol id="icon-hands-holding-heart" viewBox="0 0 32 32">
<path d="M31.882 17.829l-0.57-8.305c-0.037-0.538-0.282-1.029-0.689-1.382s-0.928-0.527-1.465-0.487c-1.057 0.077-1.877 0.968-1.866 2.027l0.067 6.771-2.933 3.756c-0.468 0.6-1.245 0.84-1.95 0.66l3.191-4.144c0.56-0.727 0.467-1.781-0.212-2.399-0.362-0.33-0.831-0.493-1.32-0.459s-0.931 0.261-1.244 0.638l-4.821 5.806c-0.795 0.958-1.226 2.17-1.214 3.415l0.075 7.71c0.003 0.307 0.253 0.555 0.56 0.555l8.027 0.011c0 0 0 0 0.001 0 0.157 0 0.307-0.066 0.413-0.181s0.159-0.271 0.146-0.428l-0.328-3.774 5.329-7.082c0.584-0.776 0.869-1.737 0.803-2.706zM30.183 19.861l-5.458 7.254c-0.083 0.11-0.123 0.248-0.111 0.386l0.293 3.378-6.86-0.009-0.069-7.155c-0.010-0.979 0.33-1.934 0.956-2.687l4.821-5.806c0.116-0.139 0.279-0.223 0.459-0.235s0.354 0.047 0.487 0.169c0.251 0.228 0.285 0.617 0.078 0.885l-3.621 4.703c-0.095 0.123-0.134 0.28-0.109 0.434s0.114 0.29 0.243 0.375c1.296 0.86 3.061 0.573 4.018-0.653l3.054-3.911c0.078-0.1 0.12-0.224 0.119-0.351l-0.069-6.967c-0.005-0.469 0.358-0.863 0.826-0.898 0.239-0.017 0.469 0.059 0.649 0.216s0.289 0.374 0.305 0.612l0.569 8.305c0.048 0.7-0.158 1.395-0.58 1.955z"></path>
<path d="M9.108 14.504c-0.313-0.377-0.755-0.604-1.244-0.638s-0.958 0.129-1.32 0.459c-0.679 0.618-0.772 1.672-0.212 2.399l3.191 4.144c-0.704 0.18-1.482-0.060-1.95-0.66l-2.933-3.756 0.067-6.771c0.010-1.060-0.809-1.95-1.866-2.027-0.537-0.039-1.058 0.134-1.466 0.487s-0.652 0.844-0.689 1.382l-0.57 8.305c-0.066 0.969 0.219 1.93 0.803 2.706l5.329 7.082-0.328 3.774c-0.014 0.157 0.039 0.312 0.146 0.428s0.256 0.181 0.413 0.181c0 0 0.001 0 0.001 0l8.027-0.011c0.307-0 0.557-0.248 0.56-0.555l0.075-7.71c0.012-1.244-0.419-2.457-1.214-3.415l-4.821-5.806zM13.952 30.868l-6.86 0.009 0.293-3.378c0.012-0.138-0.027-0.275-0.111-0.386l-5.458-7.254c-0.422-0.561-0.628-1.255-0.58-1.955l0.57-8.305c0.016-0.238 0.125-0.456 0.305-0.612 0.164-0.142 0.368-0.218 0.583-0.218 0.022 0 0.044 0.001 0.066 0.002 0.468 0.034 0.831 0.428 0.826 0.898l-0.069 6.967c-0.001 0.127 0.041 0.251 0.119 0.351l3.054 3.911c0.957 1.226 2.722 1.513 4.018 0.653 0.13-0.086 0.218-0.222 0.243-0.375s-0.014-0.311-0.109-0.434l-3.621-4.703c-0.207-0.268-0.172-0.657 0.078-0.885 0.134-0.122 0.307-0.182 0.487-0.169s0.343 0.096 0.459 0.235l4.821 5.806c0.626 0.754 0.965 1.708 0.956 2.687l-0.069 7.155z"></path>
<path d="M26.986 6.31c0-1.685-0.656-3.27-1.848-4.462s-2.776-1.848-4.462-1.848c-1.686 0-3.27 0.656-4.462 1.848l-0.213 0.213-0.213-0.213c-1.192-1.192-2.776-1.848-4.462-1.848s-3.27 0.656-4.462 1.848c-2.46 2.46-2.46 6.464 0 8.924l8.741 8.741c0.11 0.109 0.253 0.164 0.397 0.164s0.287-0.055 0.397-0.164l8.741-8.741c1.192-1.192 1.848-2.776 1.848-4.462zM16 18.323l-8.344-8.344c-2.023-2.023-2.023-5.315 0-7.338 0.98-0.98 2.283-1.52 3.669-1.52s2.689 0.54 3.669 1.52l0.61 0.61c0.105 0.105 0.248 0.164 0.396 0.164s0.291-0.059 0.397-0.164l0.61-0.61c0.98-0.98 2.283-1.52 3.669-1.52s2.689 0.54 3.669 1.52c0.98 0.98 1.52 2.283 1.52 3.669s-0.54 2.689-1.52 3.669l-8.344 8.344z"></path>
</symbol>
<symbol id="icon-invoice" viewBox="0 0 32 32">
<path d="M30.679 0h-29.358c-0.451 0-0.819 0.369-0.819 0.819s0.369 0.819 0.819 0.819h1.768v29.522c0 0.3 0.164 0.58 0.43 0.724s0.587 0.13 0.84-0.041l3.557-2.369 3.571 2.376c0.273 0.184 0.635 0.184 0.908 0l3.557-2.369 3.571 2.376c0.273 0.184 0.635 0.184 0.908 0l3.557-2.369 3.571 2.376c0.137 0.089 0.294 0.137 0.451 0.137 0.13 0 0.266-0.034 0.389-0.096 0.266-0.143 0.43-0.423 0.43-0.724l-0.014-29.522h1.864c0.451 0 0.819-0.369 0.819-0.819s-0.369-0.84-0.819-0.84zM27.197 29.631l-2.751-1.83c-0.273-0.184-0.635-0.184-0.908 0l-3.557 2.376-3.571-2.376c-0.273-0.184-0.635-0.184-0.908 0l-3.557 2.369-3.571-2.369c-0.273-0.184-0.635-0.184-0.908 0l-2.738 1.823v-27.992h22.462l0.007 27.999z"></path>
<path d="M8.497 13.081h8.582c0.451 0 0.819-0.369 0.819-0.819s-0.369-0.819-0.819-0.819h-8.582c-0.451 0-0.819 0.369-0.819 0.819s0.362 0.819 0.819 0.819z"></path>
<path d="M8.497 15.928h6.431c0.451 0 0.819-0.369 0.819-0.819s-0.369-0.819-0.819-0.819h-6.431c-0.451 0-0.819 0.369-0.819 0.819s0.362 0.819 0.819 0.819z"></path>
<path d="M21.366 13.081h2.144c0.451 0 0.819-0.369 0.819-0.819s-0.369-0.819-0.819-0.819h-2.144c-0.451 0-0.819 0.369-0.819 0.819s0.362 0.819 0.819 0.819z"></path>
<path d="M21.366 15.928h2.144c0.451 0 0.819-0.369 0.819-0.819s-0.369-0.819-0.819-0.819h-2.144c-0.451 0-0.819 0.369-0.819 0.819s0.362 0.819 0.819 0.819z"></path>
<path d="M8.497 6.507h8.582c0.451 0 0.819-0.369 0.819-0.819s-0.369-0.819-0.819-0.819h-8.582c-0.451 0-0.819 0.369-0.819 0.819s0.362 0.819 0.819 0.819z"></path>
<path d="M8.497 9.347h6.431c0.451 0 0.819-0.369 0.819-0.819s-0.369-0.819-0.819-0.819h-6.431c-0.451 0-0.819 0.369-0.819 0.819s0.362 0.819 0.819 0.819z"></path>
<path d="M21.366 6.507h2.144c0.451 0 0.819-0.369 0.819-0.819s-0.369-0.819-0.819-0.819h-2.144c-0.451 0-0.819 0.369-0.819 0.819s0.362 0.819 0.819 0.819z"></path>
<path d="M21.366 9.347h2.144c0.451 0 0.819-0.369 0.819-0.819s-0.369-0.819-0.819-0.819h-2.144c-0.451 0-0.819 0.369-0.819 0.819s0.362 0.819 0.819 0.819z"></path>
<path d="M8.497 19.738h8.582c0.451 0 0.819-0.369 0.819-0.819s-0.369-0.819-0.819-0.819h-8.582c-0.451 0-0.819 0.369-0.819 0.819s0.362 0.819 0.819 0.819z"></path>
<path d="M8.497 22.578h6.431c0.451 0 0.819-0.369 0.819-0.819s-0.369-0.819-0.819-0.819h-6.431c-0.451 0-0.819 0.369-0.819 0.819s0.362 0.819 0.819 0.819z"></path>
<path d="M21.366 19.738h2.144c0.451 0 0.819-0.369 0.819-0.819s-0.369-0.819-0.819-0.819h-2.144c-0.451 0-0.819 0.369-0.819 0.819s0.362 0.819 0.819 0.819z"></path>
<path d="M21.366 22.578h2.144c0.451 0 0.819-0.369 0.819-0.819s-0.369-0.819-0.819-0.819h-2.144c-0.451 0-0.819 0.369-0.819 0.819s0.362 0.819 0.819 0.819z"></path>
</symbol>
<symbol id="icon-kite" viewBox="0 0 32 32">
<path d="M30.281 15.724l-1.285-1.285v-12.228l1.080-1.080c0.212-0.212 0.212-0.555 0-0.767s-0.555-0.212-0.767 0l-1.080 1.080h-12.228l-1.285-1.285c-0.212-0.212-0.555-0.212-0.767 0s-0.212 0.555 0 0.767l1.23 1.23-3.815 16.168c-0.315 0.393-0.42 0.917-0.273 1.407 0.164 0.545 0.612 0.953 1.169 1.066l2.433 0.494c0.461 0.094 0.854 0.385 1.076 0.8s0.249 0.903 0.072 1.339c-0.288 0.71-1.040 1.11-1.789 0.951l-9.115-1.931c-1.373-0.291-2.756 0.488-3.22 1.812-0.269 0.768-0.19 1.613 0.215 2.318s1.096 1.198 1.895 1.352l0.038 0.007c0.718 0.139 1.328 0.588 1.674 1.233s0.381 1.402 0.098 2.076c-0.116 0.276 0.014 0.594 0.29 0.71 0.069 0.029 0.139 0.042 0.209 0.042 0.212 0 0.413-0.125 0.5-0.333 0.41-0.977 0.358-2.073-0.142-3.007s-1.384-1.585-2.424-1.786l-0.038-0.007c-0.489-0.094-0.912-0.396-1.16-0.828s-0.296-0.949-0.132-1.42c0.284-0.811 1.132-1.288 1.972-1.11l9.115 1.931c1.264 0.268 2.533-0.407 3.019-1.604 0.298-0.736 0.254-1.559-0.122-2.259s-1.037-1.192-1.816-1.35l-2.433-0.494c-0.242-0.049-0.323-0.238-0.347-0.316-0.019-0.064-0.047-0.208 0.036-0.354l16.118-3.804 1.23 1.23c0.106 0.106 0.245 0.159 0.383 0.159s0.277-0.053 0.383-0.159c0.212-0.212 0.212-0.555 0-0.767zM27.145 2.528l-5.030 5.030-5.030-5.030h10.060zM16.080 3.057l5.268 5.268-8.522 8.522 3.254-13.79zM13.593 17.613l8.522-8.522 5.268 5.268-13.79 3.254zM27.911 13.355l-5.030-5.030 5.030-5.030v10.060z"></path>
</symbol>
<symbol id="icon-products" viewBox="0 0 35 32">
<path d="M13.675 11.897c-0.298-0.326-0.722-0.517-1.164-0.524-0.888-0.011-1.623 0.697-1.638 1.584-0.005 0.286 0.223 0.522 0.509 0.527 0.003 0 0.006 0 0.009 0 0.282 0 0.513-0.226 0.518-0.509 0.005-0.317 0.266-0.571 0.586-0.566 0.16 0.002 0.307 0.069 0.415 0.187 0.193 0.211 0.521 0.226 0.732 0.033s0.226-0.521 0.033-0.732z"></path>
<path d="M16.432 13.586c-0.159-0.373-0.468-0.668-0.848-0.808-0.765-0.282-1.618 0.11-1.901 0.874-0.1 0.268 0.037 0.566 0.306 0.666 0.059 0.022 0.12 0.033 0.18 0.033 0.211 0 0.408-0.129 0.486-0.338 0.085-0.229 0.342-0.347 0.571-0.262 0.115 0.043 0.205 0.128 0.254 0.242 0.112 0.263 0.416 0.386 0.68 0.274s0.386-0.416 0.274-0.68z"></path>
<path d="M19.771 8.998c-0.203-0.202-0.531-0.202-0.733 0.001l-0.488 0.489c-0.202 0.203-0.202 0.531 0.001 0.733 0.101 0.101 0.233 0.151 0.366 0.151s0.266-0.051 0.367-0.152l0.488-0.489c0.202-0.203 0.202-0.531-0.001-0.733z"></path>
<path d="M16.547 15.686h-0.691c-0.286 0-0.518 0.232-0.518 0.518s0.232 0.518 0.518 0.518h0.691c0.286 0 0.518-0.232 0.518-0.518s-0.232-0.518-0.518-0.518z"></path>
<path d="M21.842 15.686h-0.691c-0.286 0-0.518 0.232-0.518 0.518s0.232 0.518 0.518 0.518h0.691c0.286 0 0.518-0.232 0.518-0.518s-0.232-0.518-0.518-0.518z"></path>
<path d="M35.352 25.028l-0.135-0.728c-0.086-0.465-0.492-0.803-0.966-0.803-0.059 0-0.119 0.005-0.178 0.016l-2.747 0.505 1.244-0.831c0.326-0.218 0.491-0.608 0.42-0.994-0.020-0.106-0.057-0.207-0.11-0.303l-0.376-0.666c-0.129-0.229-0.349-0.399-0.603-0.467-0.124-0.033-0.254-0.041-0.381-0.024 0.139-0.764 0.21-1.545 0.21-2.34 0-0.353-0.212-0.656-0.515-0.791 0.396-0.941 0.423-2.019 0.032-3.006-0.032-0.080-0.079-0.152-0.14-0.213s-0.131-0.107-0.212-0.14c-0.469-0.187-0.962-0.281-1.465-0.281-0.064 0-0.128 0.002-0.192 0.005-0.072-1.446-1.269-2.6-2.73-2.6-0.192 0-0.38 0.020-0.561 0.059 0.126-0.753 0.052-1.541-0.242-2.28-0.032-0.081-0.079-0.154-0.143-0.22-0.062-0.062-0.134-0.11-0.215-0.142-0.505-0.201-1.036-0.303-1.578-0.303-0.816 0-1.597 0.229-2.271 0.656-0.246-0.713-0.652-1.383-1.22-1.952-0.166-0.167-0.387-0.258-0.622-0.258s-0.456 0.092-0.623 0.258l-2.508 2.514c-0.464-0.414-1.075-0.662-1.738-0.662-0.15 0-0.302 0.013-0.451 0.039-0.54 0.094-1.038 0.359-1.419 0.746-0.489-0.236-1.049-0.316-1.587-0.223-0.118 0.021-0.233 0.050-0.345 0.085v-1.937c0-1.334-1.072-2.422-2.399-2.444v-1.099c0.406-0.070 0.716-0.424 0.716-0.85v-2.49c0-0.476-0.387-0.863-0.864-0.863h-4.213c-0.476 0-0.863 0.387-0.863 0.863v2.49c0 0.426 0.31 0.78 0.716 0.85v1.099c-1.326 0.023-2.399 1.11-2.399 2.444v15.121c-1.034 0.934-1.678 2.238-1.678 3.679 0 2.835 2.489 5.142 5.548 5.142l20.736-0.006c0.708-0 1.373-0.311 1.826-0.853 0.441-0.528 0.628-1.213 0.52-1.889l4.142 0.744c0.057 0.010 0.116 0.016 0.174 0.016 0.207 0 0.404-0.063 0.572-0.183 0.215-0.154 0.361-0.392 0.4-0.653l0.112-0.753c0.016-0.108 0.014-0.216-0.005-0.323-0.071-0.385-0.364-0.69-0.747-0.778l-1.46-0.335 2.744-0.504c0.259-0.047 0.483-0.193 0.632-0.409s0.204-0.476 0.157-0.734zM29.429 14.997c0.312 0 0.619 0.049 0.913 0.147 0.263 0.802 0.165 1.668-0.248 2.382h-1.396l0.445-0.446c0.202-0.203 0.202-0.531-0.001-0.733s-0.531-0.202-0.733 0.001l-0.236 0.236c-0.11-0.364-0.303-0.689-0.557-0.956 0.514-0.408 1.145-0.631 1.811-0.631zM26.507 12.401c0.936 0 1.697 0.763 1.697 1.702 0 0.017-0.001 0.035-0.001 0.052-0.546 0.178-1.049 0.474-1.479 0.877-0.068-0.026-0.138-0.050-0.209-0.070-0.152-0.819-0.703-1.475-1.432-1.781 0.302-0.469 0.827-0.78 1.424-0.78zM23.769 9.515c0.352 0 0.698 0.057 1.031 0.17 0.268 0.796 0.213 1.652-0.128 2.393-0.281 0.256-0.508 0.568-0.664 0.92-0.093 0.005-0.185 0.016-0.276 0.031-0.406 0.071-0.785 0.247-1.101 0.502-0.108-0.198-0.24-0.38-0.392-0.544l1.188-1.191c0.202-0.203 0.202-0.531-0.001-0.733s-0.531-0.202-0.733 0.001l-1.299 1.302c-0.247-0.117-0.514-0.198-0.795-0.236 0.121-0.618 0.421-1.201 0.885-1.666 0.611-0.612 1.422-0.949 2.284-0.949zM19.799 17.526h-0.449c-0.076-0.192-0.263-0.329-0.482-0.329s-0.406 0.136-0.482 0.329h-0.528c0.123-0.2 0.098-0.464-0.075-0.637-0.203-0.202-0.531-0.202-0.733 0.001l-0.488 0.489c-0.044 0.044-0.078 0.094-0.102 0.147h-1.054c-0.395-0.606-0.636-1.321-0.664-2.091h8.219c-0.029 0.77-0.27 1.485-0.664 2.091h-1.097c-0.025-0.053-0.059-0.103-0.102-0.147l-0.488-0.489c-0.202-0.202-0.53-0.203-0.733-0.001-0.173 0.173-0.198 0.438-0.075 0.637zM18.594 14.399c0.195-0.724 0.855-1.258 1.638-1.258s1.443 0.534 1.638 1.258h-3.276zM19.653 8.028c0.493 0.533 0.819 1.165 0.978 1.83-0.264 0.287-0.484 0.605-0.658 0.943-0.079-0.048-0.171-0.076-0.27-0.076h-0.69c-0.286 0-0.518 0.232-0.518 0.518s0.232 0.518 0.518 0.518h0.606c-0.034 0.143-0.061 0.288-0.080 0.434-0.206 0.054-0.402 0.131-0.586 0.229-0.345-0.596-0.917-1.040-1.595-1.218-0-0.001-0-0.003-0.001-0.004-0.041-0.234-0.111-0.457-0.208-0.664l2.503-2.509zM10.288 12.703c-0.030-0.085-0.053-0.172-0.069-0.26-0.149-0.857 0.429-1.675 1.287-1.825 0.091-0.016 0.182-0.024 0.273-0.024 0.341 0 0.668 0.109 0.943 0.315 0.114 0.085 0.258 0.12 0.399 0.095s0.264-0.105 0.343-0.224c0.243-0.367 0.615-0.61 1.048-0.686 0.091-0.016 0.183-0.024 0.274-0.024 0.768 0 1.42 0.549 1.551 1.306 0.015 0.087 0.023 0.177 0.023 0.269 0 0.268 0.206 0.492 0.473 0.515 0.579 0.051 1.072 0.415 1.301 0.929-0.306 0.367-0.518 0.816-0.599 1.308h-2.955c-0.367 0-0.683 0.227-0.814 0.548-0.65-0.443-1.416-0.681-2.219-0.681-0.503 0-0.996 0.095-1.465 0.281-0.080 0.032-0.151 0.079-0.211 0.139s-0.109 0.134-0.14 0.213c-0.119 0.301-0.199 0.61-0.242 0.921-0.186-0.211-0.317-0.474-0.368-0.769-0.122-0.703 0.246-1.403 0.895-1.702 0.244-0.113 0.361-0.392 0.271-0.645zM11.832 17.384l0.141 0.142h-1.244c-0.279-0.648-0.322-1.386-0.095-2.078 0.295-0.098 0.602-0.147 0.913-0.147 0.781 0 1.515 0.305 2.068 0.859 0.073 0.074 0.142 0.151 0.206 0.231 0.088 0.397 0.223 0.777 0.397 1.135h-0.781l-0.872-0.874c-0.202-0.203-0.53-0.203-0.733-0.001s-0.203 0.53-0.001 0.733zM9.626 17.526h-1.847c0.082-0.502 0.384-0.93 0.803-1.182 0.248 0.332 0.572 0.601 0.945 0.783 0.026 0.134 0.059 0.268 0.099 0.399zM4.397 1.036h3.868v2.144h-3.868v-2.144zM7.549 4.216v1.084h-2.436v-1.084h2.436zM2.715 9.847h3.364c0.286 0 0.518-0.232 0.518-0.518s-0.232-0.518-0.518-0.518h-3.364v-1.065c0-0.777 0.63-1.409 1.405-1.409h4.423c0.775 0 1.405 0.632 1.405 1.409v1.065h-0.967c-0.286 0-0.518 0.232-0.518 0.518s0.232 0.518 0.518 0.518h0.967v0.46c-0.594 0.582-0.902 1.435-0.75 2.313 0 0.002 0.001 0.004 0.001 0.005-0.831 0.57-1.274 1.584-1.098 2.602 0.010 0.059 0.023 0.118 0.037 0.176-0.259 0.143-0.491 0.327-0.691 0.543h-4.733v-6.099zM2.715 16.982h4.132c-0.055 0.175-0.094 0.356-0.113 0.544h-0.087c-0.477 0-0.865 0.388-0.865 0.866 0 0.823 0.077 1.63 0.225 2.42-0.149-0.012-0.302-0.018-0.457-0.018-0.627 0-1.224 0.099-1.681 0.28-0.699 0.276-0.893 0.668-0.935 0.94-0.074 0.037-0.147 0.076-0.219 0.116v-5.147zM9.275 23.347c0.187 0.149 0.301 0.276 0.367 0.368-0.006 0-0.013 0-0.019 0-0.293 0-0.82-0.118-1.419-0.45-0.223-0.124-0.429-0.263-0.594-0.404-0.193-0.164-0.477-0.164-0.67 0-0.166 0.141-0.371 0.28-0.594 0.403-0.599 0.332-1.126 0.45-1.419 0.45-0.007 0-0.013-0-0.019-0 0.066-0.092 0.18-0.218 0.367-0.368 0.163-0.131 0.232-0.346 0.174-0.547s-0.23-0.348-0.438-0.372c-0.506-0.059-0.825-0.188-0.975-0.282 0.188-0.117 0.662-0.316 1.515-0.316 0.707 0 1.223 0.149 1.471 0.288 0.158 0.088 0.35 0.088 0.507 0 0.248-0.139 0.764-0.288 1.471-0.288 0.853 0 1.327 0.199 1.515 0.316-0.15 0.094-0.469 0.222-0.975 0.282-0.208 0.024-0.38 0.171-0.438 0.372s0.011 0.417 0.174 0.547zM8.239 29.652l0.018 0.096c0.062 0.333 0.192 0.638 0.373 0.904h-3.082c-2.488 0-4.511-1.842-4.511-4.106 0-1.547 0.946-2.897 2.338-3.597 0.16 0.119 0.359 0.222 0.596 0.305-0.094 0.16-0.159 0.332-0.175 0.512-0.020 0.239 0.053 0.466 0.206 0.639 0.203 0.229 0.514 0.345 0.924 0.345 0.547 0 1.266-0.217 1.921-0.58 0.151-0.083 0.294-0.172 0.427-0.264 0.134 0.092 0.276 0.18 0.427 0.264 0.656 0.363 1.374 0.579 1.921 0.58h0c0.411 0 0.722-0.116 0.924-0.345 0.153-0.173 0.227-0.4 0.206-0.639-0.015-0.18-0.081-0.352-0.175-0.512 0.237-0.083 0.436-0.186 0.596-0.305 1.104 0.555 1.927 1.519 2.22 2.666l-3.664 1.392c-1.073 0.408-1.7 1.52-1.492 2.645zM27.315 30.165c-0.256 0.306-0.631 0.481-1.031 0.481l-0.544 0-0.34-1.834c-0.052-0.281-0.322-0.467-0.604-0.415s-0.467 0.322-0.415 0.604l0.305 1.646-1.783 0.001-0.23-1.24c-0.052-0.281-0.322-0.467-0.604-0.415s-0.467 0.322-0.415 0.604l0.195 1.052-4.146 0.002-0.312-1.685c-0.052-0.281-0.322-0.467-0.604-0.415s-0.467 0.322-0.415 0.604l0.277 1.496-6.054 0.002c-0 0-0 0-0 0-0.647 0-1.202-0.459-1.32-1.093l-0.018-0.096c-0.117-0.632 0.236-1.258 0.841-1.488l2.036-0.774 0.152 0.819c0.046 0.249 0.264 0.424 0.509 0.424 0.031 0 0.063-0.003 0.095-0.009 0.281-0.052 0.467-0.322 0.415-0.604l-0.186-1.004 3.023-1.148c0.267-0.102 0.402-0.401 0.3-0.668s-0.401-0.402-0.668-0.3l-1.406 0.534c-0.395-1.397-1.408-2.564-2.752-3.233-0.042-0.271-0.236-0.663-0.935-0.94-0.457-0.181-1.054-0.28-1.681-0.28-0.431 0-0.843 0.048-1.206 0.134v-0.313c0-0.286-0.232-0.518-0.518-0.518-0.121 0-0.232 0.042-0.32 0.111-0.082-0.54-0.127-1.089-0.135-1.646h16.875c0.286 0 0.518-0.232 0.518-0.518s-0.232-0.518-0.518-0.518h-0.212c0.33-0.679 0.516-1.441 0.516-2.246 0-0.457-0.35-0.834-0.795-0.876 0.194-0.183 0.436-0.306 0.706-0.353 0.079-0.014 0.159-0.021 0.239-0.021 0.669 0 1.237 0.479 1.351 1.138 0.013 0.076 0.020 0.155 0.020 0.234 0 0.268 0.206 0.492 0.473 0.515 0.619 0.054 1.126 0.52 1.232 1.132 0.028 0.163 0.025 0.323-0.004 0.477h-0.556c-0.286 0-0.518 0.232-0.518 0.518s0.232 0.518 0.518 0.518h4.027c-0.013 0.95-0.135 1.879-0.364 2.779l-2.808 1.657c-0.172-0.598-0.571-1.105-1.121-1.412-0.617-0.345-1.35-0.399-2.011-0.148l-5.783 2.197c-0.267 0.102-0.402 0.401-0.3 0.668s0.401 0.402 0.668 0.3l0.762-0.289 0.237 1.277c0.046 0.25 0.264 0.424 0.509 0.424 0.031 0 0.063-0.003 0.095-0.009 0.281-0.052 0.467-0.322 0.415-0.604l-0.271-1.462 4.036-1.533c0.374-0.142 0.788-0.112 1.137 0.084s0.589 0.53 0.662 0.921l1.048 5.659c0.072 0.39-0.033 0.789-0.288 1.094zM29.163 26.109c-0.242 0.044-0.419 0.252-0.424 0.498s0.163 0.461 0.402 0.516l3.857 0.885-0.096 0.646-4.472-0.804-0.699-3.774 3.895-2.299 0.324 0.575-3.285 2.196c-0.204 0.137-0.285 0.398-0.192 0.626s0.332 0.359 0.574 0.315l5.161-0.948 0.115 0.62-5.159 0.948z"></path>
</symbol>
<symbol id="icon-tools" viewBox="0 0 32 32">
<path d="M21.709 9.697c-0.345 0-0.625 0.279-0.625 0.625s0.28 0.625 0.625 0.625c0.346 0 0.625-0.28 0.625-0.625s-0.279-0.625-0.625-0.625z"></path>
<path d="M10.353 21.052c-0.346 0-0.625 0.28-0.625 0.625s0.279 0.625 0.625 0.625c0.345 0 0.625-0.279 0.625-0.625s-0.28-0.625-0.625-0.625z"></path>
<path d="M31.254 3.845c-0.211-0.049-0.433 0.015-0.585 0.168l-2.591 2.612h-1.242l-1.367-1.417v-1.26l2.554-2.592c0.151-0.153 0.213-0.374 0.163-0.584s-0.204-0.378-0.408-0.447c-0.642-0.216-1.313-0.326-1.996-0.326-2.036 0-3.885 0.949-5.074 2.604-1.113 1.549-1.456 3.448-0.964 5.265l-4.604 4.604-7.67-7.688v-1.509c0-0.219-0.115-0.423-0.303-0.536l-4.419-2.652c-0.246-0.148-0.561-0.109-0.763 0.094l-1.768 1.767c-0.203 0.203-0.241 0.518-0.094 0.764l2.651 4.419c0.113 0.188 0.316 0.303 0.536 0.303l1.508 0 7.671 7.688-4.586 4.586c-1.817-0.491-3.717-0.148-5.267 0.966-1.654 1.188-2.603 3.037-2.603 5.073 0 0.683 0.11 1.354 0.326 1.996 0.069 0.205 0.24 0.36 0.451 0.409s0.433-0.015 0.585-0.168l2.591-2.611h1.249l1.423 1.423v1.249l-2.611 2.591c-0.154 0.153-0.218 0.374-0.168 0.585s0.204 0.382 0.409 0.451c0.641 0.216 1.313 0.326 1.996 0.326 2.036 0 3.884-0.949 5.073-2.603 1.114-1.55 1.457-3.45 0.966-5.267l3.683-3.683 0.844 0.916-0.387 0.387c-0.244 0.244-0.244 0.64 0 0.884s0.64 0.244 0.884 0l0.351-0.351 7.916 8.599c0.006 0.006 0.012 0.012 0.018 0.019 1.465 1.465 3.838 1.465 5.304-0 1.461-1.462 1.461-3.841 0-5.303-0.006-0.006-0.013-0.012-0.020-0.019l-8.613-7.901 0.347-0.347c0.244-0.244 0.244-0.64 0-0.884s-0.64-0.244-0.884 0l-0.384 0.385-0.918-0.843 3.701-3.701c0.526 0.141 1.069 0.212 1.619 0.212 3.446 0 6.25-2.804 6.25-6.25 0-0.683-0.11-1.354-0.326-1.996-0.069-0.205-0.24-0.36-0.451-0.409zM5.518 6.371c-0.117-0.117-0.276-0.177-0.442-0.177l-1.414-0-2.218-3.704 1.077-1.077 3.697 2.219v1.414c0 0.166 0.066 0.324 0.183 0.441l7.854 7.871-0.884 0.884-7.853-7.87zM21.416 18.562l8.642 7.928c0.965 0.976 0.962 2.555-0.009 3.527-0.974 0.974-2.55 0.977-3.527 0.009l-7.942-8.627 2.837-2.836zM20.494 17.716l-2.762 2.762-0.844-0.916 2.688-2.688 0.918 0.843zM25.78 11.25c-0.547 0-1.084-0.088-1.597-0.261-0.225-0.075-0.473-0.017-0.641 0.15-3.133 3.133-9.885 9.884-12.371 12.371-0.168 0.168-0.226 0.416-0.15 0.642 0.52 1.543 0.271 3.188-0.682 4.515-0.95 1.323-2.429 2.082-4.057 2.082-0.183 0-0.365-0.010-0.545-0.029l1.985-1.97c0.118-0.117 0.185-0.277 0.185-0.444v-1.768c0-0.166-0.066-0.325-0.183-0.442l-1.789-1.789c-0.117-0.117-0.276-0.183-0.442-0.183h-1.768c-0.167 0-0.326 0.067-0.444 0.185l-1.97 1.985c-0.020-0.18-0.029-0.362-0.029-0.545 0-1.628 0.759-3.107 2.082-4.057 1.327-0.953 2.972-1.202 4.515-0.682 0.225 0.076 0.473 0.018 0.641-0.15 0.034-0.034 12.362-12.362 12.371-12.371 0.168-0.168 0.226-0.416 0.15-0.641-0.52-1.543-0.272-3.188 0.681-4.514 0.951-1.324 2.43-2.083 4.059-2.083 0.188 0 0.376 0.010 0.561 0.031l-1.944 1.973c-0.115 0.117-0.18 0.274-0.18 0.438v1.768c0 0.162 0.063 0.318 0.175 0.434l1.727 1.789c0.118 0.122 0.28 0.191 0.45 0.191h1.768c0.166 0 0.326-0.066 0.444-0.185l1.97-1.985c0.020 0.18 0.029 0.362 0.029 0.545 0 2.757-2.243 5-5 5z"></path>
<path d="M19.499 11.647l-7.821 7.821c-0.244 0.244-0.244 0.64 0 0.884s0.64 0.244 0.884 0l7.821-7.821c0.244-0.244 0.244-0.64 0-0.884s-0.64-0.244-0.884 0z"></path>
<path d="M27.397 28.25c0.244 0.243 0.64 0.243 0.884-0.002s0.243-0.64-0.002-0.884l-5.634-5.616c-0.244-0.244-0.64-0.243-0.884 0.001s-0.243 0.64 0.001 0.884l5.634 5.616z"></path>
</symbol>
<symbol id="icon-ufo" viewBox="0 0 32 32">
<path d="M31.996 22.334c-0.956-7.667-8.11-8.803-10.129-8.971v-6.963c0-0.048-0.067-4.8-5.867-4.8s-5.867 4.752-5.867 4.8v6.963c-2.019 0.168-9.171 1.303-10.129 8.971 0 0.011-0.004 0.053-0.004 0.066v2.133c0 0.295 0.239 0.533 0.533 0.533h2.667v1.067h-1.6c-0.295 0-0.533 0.239-0.533 0.533 0 1.291 0.78 3.733 3.733 3.733s3.733-2.442 3.733-3.733c0-0.295-0.239-0.533-0.533-0.533h-1.6v-1.067h8v1.067h-1.6c-0.294 0-0.533 0.239-0.533 0.533 0 1.291 0.78 3.733 3.733 3.733s3.733-2.442 3.733-3.733c0-0.295-0.239-0.533-0.533-0.533h-1.6v-1.067h8v1.067h-1.6c-0.294 0-0.533 0.239-0.533 0.533 0 1.291 0.78 3.733 3.733 3.733s3.733-2.442 3.733-3.733c0-0.295-0.239-0.533-0.533-0.533h-1.6v-1.067h2.667c0.294 0 0.533-0.239 0.533-0.533v-2.133c0-0.012 0-0.053-0.004-0.066zM11.2 6.4c0-0.153 0.053-3.733 4.8-3.733 4.714 0 4.8 3.583 4.8 3.733v6.933h-1.067v-3.2h-1.067v3.2h-7.467v-6.933zM6.187 15.434c1.416-0.622 2.935-0.973 4.48-1.035h10.667c1.545 0.062 3.064 0.413 4.48 1.035 2.69 1.113 4.599 3.554 5.033 6.432h-29.693c0.434-2.878 2.344-5.319 5.033-6.432zM4.8 29.333c-1.299 0.098-2.448-0.84-2.611-2.133h5.219c-0.169 1.289-1.312 2.223-2.608 2.133zM5.333 26.133h-1.067v-1.067h1.067v1.067zM16 29.333c-1.3 0.098-2.448-0.84-2.611-2.133h5.219c-0.169 1.289-1.312 2.223-2.608 2.133zM16.533 26.133h-1.067v-1.067h1.067v1.067zM27.2 29.333c-1.3 0.099-2.45-0.839-2.613-2.133h5.221c-0.169 1.289-1.312 2.223-2.608 2.133zM27.733 26.133h-1.067v-1.067h1.067v1.067zM30.933 24h-29.867v-1.067h29.867v1.067z"></path>
<path d="M16 15.467c-1.473 0-2.667 1.194-2.667 2.667s1.194 2.667 2.667 2.667c1.473 0 2.667-1.194 2.667-2.667-0.002-1.472-1.195-2.665-2.667-2.667zM16 19.733c-0.884 0-1.6-0.716-1.6-1.6s0.716-1.6 1.6-1.6 1.6 0.716 1.6 1.6c0 0.884-0.716 1.6-1.6 1.6z"></path>
<path d="M17.067 18.133c0 0.589-0.478 1.067-1.067 1.067s-1.067-0.478-1.067-1.067c0-0.589 0.478-1.067 1.067-1.067s1.067 0.478 1.067 1.067z"></path>
<path d="M18.667 8h1.067v1.067h-1.067v-1.067z"></path>
<path d="M18.667 6.4v0.533h1.067v-0.533c0-0.273-0.107-2.667-3.733-2.667v1.067c2.475 0 2.667 1.227 2.667 1.6z"></path>
<path d="M11.2 17.6h1.067v1.067h-1.067v-1.067z"></path>
<path d="M9.067 17.6h1.067v1.067h-1.067v-1.067z"></path>
<path d="M19.733 17.6h1.067v1.067h-1.067v-1.067z"></path>
<path d="M21.867 17.6h1.067v1.067h-1.067v-1.067z"></path>
</symbol>
<symbol id="salary" viewBox="0 0 56 56">
<path d="M26.973 22.6616C26.7822 22.5941 26.5878 22.524 26.3931 22.4518V18.922C27.037 19.1772 27.4893 19.5348 27.5071 19.549C27.9725 19.9306 28.6594 19.8644 29.0433 19.4003C29.4284 18.9348 29.3632 18.2455 28.8977 17.8603C28.8337 17.8074 27.8175 16.9818 26.3932 16.6337V16.0977C26.3932 15.4936 25.9034 15.0039 25.2995 15.0039C24.6955 15.0039 24.2057 15.4936 24.2057 16.0977V16.5831C24.0899 16.608 23.9736 16.6361 23.8565 16.6713C22.5991 17.0501 21.6914 18.1099 21.4282 19.5064C21.1726 20.8632 21.6147 22.2163 22.5546 22.9534C22.9835 23.2897 23.5062 23.5982 24.2058 23.9187V28.5446C23.7105 28.4751 23.3391 28.307 22.7474 27.9199C22.242 27.5891 21.5642 27.7308 21.2333 28.2364C20.9027 28.7419 21.0442 29.4197 21.5499 29.7505C22.5888 30.4301 23.3214 30.6688 24.2058 30.745V31.4251C24.2058 32.0292 24.6956 32.5189 25.2996 32.5189C25.9035 32.5189 26.3933 32.0292 26.3933 31.4251V30.6403C28.2125 30.1792 29.3785 28.6253 29.6361 27.0933C29.9672 25.1227 28.897 23.3418 26.973 22.6616ZM24.2057 21.4442C24.0973 21.3748 23.9962 21.3042 23.9045 21.2323C23.6093 21.0007 23.475 20.4576 23.5779 19.9116C23.6124 19.7285 23.752 19.1848 24.2057 18.8962V21.4442ZM27.4787 26.7309C27.3787 27.3251 27.0103 27.9497 26.3931 28.3025V24.7821C27.5802 25.2813 27.5506 26.3026 27.4787 26.7309Z" />
<path d="M51.7903 23.3685L44.8438 18.7812V1.09375C44.8438 0.489672 44.354 0 43.75 0H17.5C16.896 0 16.4062 0.489672 16.4062 1.09375V5.25H12.25C11.646 5.25 11.1562 5.73967 11.1562 6.34375V18.7813L4.20973 23.3686C3.90327 23.571 3.71875 23.9139 3.71875 24.2812V54.9062C3.71875 55.5103 4.20853 56 4.8125 56H23.0781C23.6821 56 24.1719 55.5103 24.1719 54.9062C24.1719 54.3022 23.6821 53.8125 23.0781 53.8125H7.45314L23.3994 37.8663L27.3973 40.5065C27.58 40.6271 27.79 40.6875 28 40.6875C28.21 40.6875 28.42 40.6271 28.6028 40.5065L32.6007 37.8663L48.547 53.8125H32.9219C32.3179 53.8125 31.8281 54.3022 31.8281 54.9062C31.8281 55.5103 32.3179 56 32.9219 56H51.1875C51.7915 56 52.2812 55.5103 52.2812 54.9062V24.2812C52.2812 23.9139 52.0967 23.571 51.7903 23.3685ZM49.2027 24.2812L44.8438 27.1598V21.4027L49.2027 24.2812ZM18.5938 2.1875H42.6562V28.6044L39.5938 30.6269V6.34375C39.5938 5.73967 39.104 5.25 38.5 5.25H18.5938V2.1875ZM11.1562 21.4027V27.1598L6.79733 24.2812L11.1562 21.4027ZM5.90625 52.2657V26.3143L21.536 36.6359L5.90625 52.2657ZM28 38.283L13.3438 28.6043V7.4375H37.4062V32.0714L28 38.283ZM50.0938 26.3143V52.2657L34.464 36.6358L50.0938 26.3143Z" />
<path d="M28 53.8125C27.7123 53.8125 27.4302 53.9295 27.2267 54.133C27.0233 54.3364 26.9062 54.6186 26.9062 54.9062C26.9062 55.1939 27.0232 55.4761 27.2267 55.6795C27.4303 55.883 27.7123 56 28 56C28.2877 56 28.5698 55.883 28.7732 55.6795C28.9766 55.4761 29.0938 55.1939 29.0938 54.9062C29.0938 54.6186 28.9767 54.3364 28.7732 54.133C28.5698 53.9295 28.2877 53.8125 28 53.8125Z" />
</symbol>
<symbol id="freelance" viewBox="0 0 56 56">
<path d="M20.4233 33.8555C20.4233 33.4024 20.0562 33.0352 19.603 33.0352H11.6481C11.1949 33.0352 10.8278 33.4024 10.8278 33.8555V39.1588C10.8278 39.6119 11.1949 39.9792 11.6481 39.9792H19.603C20.0562 39.9792 20.4233 39.6119 20.4233 39.1588V33.8555ZM18.7827 38.3384H12.4684V34.6757H18.7827V38.3384Z" />
<path d="M39.9326 38.2119H44.352C44.8051 38.2119 45.1723 37.8446 45.1723 37.3916C45.1723 36.9386 44.8051 36.5713 44.352 36.5713H39.9326C39.4794 36.5713 39.1122 36.9386 39.1122 37.3916C39.1122 37.8446 39.4794 38.2119 39.9326 38.2119Z" />
<path d="M39.9326 34.6758H44.352C44.8051 34.6758 45.1723 34.3085 45.1723 33.8555C45.1723 33.4024 44.8051 33.0352 44.352 33.0352H39.9326C39.4794 33.0352 39.1122 33.4024 39.1122 33.8555C39.1122 34.3085 39.4794 34.6758 39.9326 34.6758Z" />
<path d="M47.8875 42.7038C47.4344 42.7038 47.0672 43.0711 47.0672 43.5241V54.0755C47.0672 54.2325 46.9396 54.3601 46.7826 54.3601H9.21721C9.06026 54.3601 8.93262 54.2325 8.93262 54.0755V35.9219C8.93262 35.4688 8.56545 35.1016 8.1123 35.1016C7.65916 35.1016 7.29199 35.4688 7.29199 35.9219V54.0754C7.29199 55.137 8.15562 56.0006 9.21721 56.0006H46.7826C47.8441 56.0006 48.7078 55.137 48.7078 54.0754V43.524C48.7078 43.0711 48.3406 42.7038 47.8875 42.7038Z" />
<path d="M46.7827 27.8426H33.2397V23.6819C37.4775 21.702 40.4213 17.3994 40.4213 12.4214C40.4213 5.57222 34.8491 0 28 0C25.6229 0 23.3124 0.67375 21.3182 1.94852C19.3777 3.18894 17.8216 4.93784 16.8182 7.00591C16.6205 7.41355 16.7907 7.90431 17.1983 8.10206C17.6062 8.2997 18.0966 8.12952 18.2944 7.72209C20.1142 3.97086 23.8332 1.64062 28 1.64062C33.9446 1.64062 38.7807 6.47686 38.7807 12.4214C38.7807 18.3659 33.9446 23.2022 28 23.2022C22.0553 23.2022 17.2192 18.3659 17.2192 12.4214C17.2192 12.0025 17.2435 11.5804 17.2914 11.1669C17.3436 10.7168 17.0209 10.3097 16.5709 10.2576C16.1204 10.205 15.7138 10.528 15.6617 10.9781C15.6066 11.4541 15.5786 11.9397 15.5786 12.4215C15.5786 17.3995 18.5224 21.7021 22.7602 23.682V27.8428H9.21721C8.15573 27.8428 7.29199 28.7065 7.29199 29.768V32.0744C7.29199 32.5275 7.65916 32.8948 8.1123 32.8948C8.56545 32.8948 8.93262 32.5275 8.93262 32.0744V29.768C8.93262 29.6111 9.06026 29.4835 9.21721 29.4835H19.8936L27.3825 38.0423C27.5384 38.2202 27.7633 38.3224 28 38.3224C28.2366 38.3224 28.4615 38.2202 28.6174 38.0423L36.1063 29.4835H46.7827C46.9397 29.4835 47.0673 29.6111 47.0673 29.768V39.6737C47.0673 40.1267 47.4345 40.494 47.8876 40.494C48.3408 40.494 48.7079 40.1267 48.7079 39.6737V29.768C48.7078 28.7062 47.8442 27.8426 46.7827 27.8426V27.8426ZM28 36.2561L22.0737 29.4832H23.5804C24.0336 29.4832 24.4008 29.116 24.4008 28.6629V24.3105C25.5406 24.6562 26.7487 24.8429 27.9998 24.8429C29.251 24.8429 30.4593 24.6562 31.5989 24.3105V28.6629C31.5989 29.116 31.9661 29.4832 32.4193 29.4832H33.926L28 36.2561Z" />
<path d="M11.6479 48.0449H13.8577C14.3108 48.0449 14.678 47.6776 14.678 47.2246C14.678 46.7716 14.3108 46.4043 13.8577 46.4043H11.6479C11.1948 46.4043 10.8276 46.7716 10.8276 47.2246C10.8276 47.6776 11.1949 48.0449 11.6479 48.0449V48.0449Z" />
<path d="M19.603 46.4043H17.3933C16.9402 46.4043 16.573 46.7716 16.573 47.2246C16.573 47.6776 16.9402 48.0449 17.3933 48.0449H19.603C20.0562 48.0449 20.4233 47.6776 20.4233 47.2246C20.4233 46.7716 20.056 46.4043 19.603 46.4043Z" />
<path d="M25.3483 48.0449C25.8014 48.0449 26.1686 47.6776 26.1686 47.2246C26.1686 46.7716 25.8014 46.4043 25.3483 46.4043H23.1385C22.6854 46.4043 22.3182 46.7716 22.3182 47.2246C22.3182 47.6776 22.6854 48.0449 23.1385 48.0449H25.3483Z" />
<path d="M31.0935 48.0449C31.5466 48.0449 31.9138 47.6776 31.9138 47.2246C31.9138 46.7716 31.5466 46.4043 31.0935 46.4043H28.8838C28.4306 46.4043 28.0635 46.7716 28.0635 47.2246C28.0635 47.6776 28.4306 48.0449 28.8838 48.0449H31.0935Z" />
<path d="M11.6479 52.4648H20.4869C20.94 52.4648 21.3072 52.0976 21.3072 51.6445C21.3072 51.1915 20.94 50.8242 20.4869 50.8242H11.6479C11.1948 50.8242 10.8276 51.1915 10.8276 51.6445C10.8276 52.0976 11.1949 52.4648 11.6479 52.4648Z" />
<path d="M34.6927 49.4344C34.6927 51.1051 36.0521 52.4644 37.7228 52.4644C38.5936 52.4644 39.3792 52.0946 39.9325 51.5045C40.4857 52.0946 41.2713 52.4644 42.1422 52.4644C43.8129 52.4644 45.1722 51.1051 45.1722 49.4344C45.1722 47.7636 43.8129 46.4043 42.1422 46.4043C41.2713 46.4043 40.4857 46.7741 39.9325 47.3643C39.3792 46.7741 38.5936 46.4043 37.7228 46.4043C36.0521 46.4043 34.6927 47.7636 34.6927 49.4344ZM42.1423 48.0449C42.9084 48.0449 43.5317 48.6682 43.5317 49.4344C43.5317 50.2005 42.9084 50.8238 42.1423 50.8238C41.3761 50.8238 40.7529 50.2005 40.7529 49.4344C40.7529 48.6682 41.3761 48.0449 42.1423 48.0449ZM39.1123 49.4344C39.1123 50.2005 38.489 50.8238 37.7229 50.8238C36.9567 50.8238 36.3335 50.2005 36.3335 49.4344C36.3335 48.6682 36.9567 48.0449 37.7229 48.0449C38.489 48.0449 39.1123 48.6682 39.1123 49.4344Z" />
<path d="M25.2824 16.7146C24.9036 16.4666 24.3951 16.573 24.1469 16.952C23.8988 17.3311 24.0051 17.8396 24.3843 18.0875C25.445 18.7814 26.1688 18.9869 27.1055 19.0386V19.9427C27.1055 20.3958 27.4727 20.763 27.9258 20.763C28.3789 20.763 28.7461 20.3958 28.7461 19.9427V18.9737C30.6055 18.612 31.6915 17.0803 31.932 15.6495C32.2408 13.8127 31.2798 12.2155 29.4838 11.5807C29.2415 11.495 28.9934 11.405 28.7461 11.3114V7.37697C29.372 7.5243 29.745 7.84116 29.7771 7.86927C30.1103 8.17114 30.6253 8.14861 30.9307 7.81731C31.2379 7.48427 31.2169 6.96528 30.8838 6.65816C30.8367 6.61484 30.0437 5.90073 28.7461 5.70802V4.90039C28.7461 4.44736 28.3789 4.08008 27.9258 4.08008C27.4727 4.08008 27.1055 4.44736 27.1055 4.90039V5.77091C26.9806 5.79825 26.8538 5.82986 26.7242 5.86891C25.5418 6.22514 24.6583 7.23708 24.4185 8.50998C24.1998 9.67023 24.5713 10.789 25.388 11.4295C25.8225 11.7703 26.3636 12.0825 27.1055 12.4124V17.3958C26.4586 17.3497 26.0145 17.1935 25.2824 16.7146V16.7146ZM26.4006 10.1387C26.0676 9.87761 25.9259 9.36989 26.0307 8.81383C26.1251 8.31311 26.4572 7.711 27.1055 7.4718V10.588C26.84 10.4446 26.5998 10.295 26.4006 10.1387ZM28.9371 13.1277C30.4745 13.6711 30.3796 14.9873 30.314 15.3777C30.1856 16.1422 29.6516 16.9525 28.7461 17.2714V13.0593C28.8096 13.0821 28.8718 13.1046 28.9371 13.1277Z" />
</symbol>
<symbol id="bg" viewBox="0 0 59 47">
<rect y="0.722656" width="59" height="46" rx="20"/>
</symbol>
</defs>
</svg>
