<?xml version="1.0" encoding="utf-8"?>
<!-- Generator: Adobe Illustrator 25.0.0, SVG Export Plug-In . SVG Version: 6.00 Build 0)  -->
<svg fill="#FF751D" version="1.1" id="Layer_1" xmlns="http://www.w3.org/2000/svg" xmlns:xlink="http://www.w3.org/1999/xlink" x="0px" y="0px"
	viewBox="0 0 154 154" style="enable-background:new 0 0 154 154;" xml:space="preserve">
<g>
	<path d="M86.02,0.5c3.95,1.11,6.96,3.39,8.64,7.18c3.15,7.13-0.53,15.33-7.6,17.42c-4.8,1.42-10.33-1-12.94-5.66
		c-4.07-7.27-0.33-16.9,7.76-18.7c0.19-0.04,0.36-0.16,0.54-0.24C83.62,0.5,84.82,0.5,86.02,0.5z"/>
	<path d="M26.59,112.05c-7.68-7.27-7.69-16.74-0.04-23.08c-2.91-0.95-5.14-2.73-7-4.97c-7.2-8.69-9.52-18.46-5.26-29.03
		c4.08-10.13,12.05-15.73,22.92-17.01c5.83-0.69,11.46,0.23,16.65,3.03c1.92,1.04,3.81,0.7,5.67,0.5c4.77-0.52,9.37-1.8,13.91-3.64
		c0-1.09,0-2.17,0-3.37c6.76,0,13.43,0,20.21,0c0,26.49,0,53.02,0,79.67c-6.66,0-13.36,0-20.19,0c0-19.62,0-39.17,0-58.85
		c-2.01,0.55-3.87,1.07-5.84,1.61c0.07,0.39,0.09,0.78,0.22,1.13c4.54,11.93-3.72,31.42-21.32,34.16c-1.07,0.17-2.15,0.45-3.17,0.84
		c-4.25,1.64-5.49,6.73-2.54,10.21c2.21,2.6,5.08,3.92,8.36,4.53c4.9,0.9,9.78,1.9,14.27,4.2c7.97,4.07,11.37,10.89,10.11,19.77
		c-0.63,4.47-1.73,8.7-4.48,12.35c-3.47,4.6-8.25,7.18-13.75,8.39c-10.54,2.32-21.01,2.23-31.14-1.89c-6-2.44-10.59-6.47-12.23-13
		c-1.84-7.33-1.15-14.28,4.63-19.77c2.01-1.91,4.68-3.14,7.1-4.6C24.52,112.72,25.5,112.47,26.59,112.05z M51.72,65.74
		c-0.57-2.36-0.87-4.6-1.67-6.65c-1.46-3.76-4.46-5.68-8.44-5.82c-3.77-0.14-7.13,0.85-9.22,4.37c-1.39,2.35-1.75,4.99-1.74,7.63
		c0.02,6.86,2.26,11.5,9.91,11.86c3.82,0.18,7.42-0.69,9.23-4.46C50.82,70.54,51.11,68.05,51.72,65.74z M42.86,139.43
		c2.89-0.51,5.47-0.76,7.94-1.45c3.39-0.94,5.41-3.74,5.57-7.15c0.18-3.85-1.18-6.39-4.79-7.74c-5.83-2.19-11.82-2.21-17.69-0.16
		c-3.35,1.17-5.05,3.82-5.07,7.36c-0.01,3.49,1.66,6.13,5,7.18C36.82,138.4,39.98,138.82,42.86,139.43z"/>
	<path d="M107.74,56.2c-3.35,0-6.54,0-9.85,0c0-6.19,0-12.29,0-18.52c3.26,0,6.49,0,9.87,0c0-3.6,0-7.07,0-10.66
		c6.07,0,11.98,0,18.24,0c0,3.48,0,6.99,0,10.61c5.41,0,10.48,0,15.64,0c0,6.2,0,12.27,0,18.49c-5.06,0-10.12,0-15.43,0
		c0,0.68,0,1.2,0,1.73c0,9.04-0.06,18.07,0.04,27.11c0.02,2.32,0.31,4.69,0.87,6.94c0.89,3.59,3.57,5.29,7.27,5.04
		c2.98-0.2,5.74-1.11,8.45-2.8c0.05,0.51,0.1,0.82,0.1,1.14c0.01,4.84,0.02,9.69-0.03,14.53c0,0.49-0.29,1.25-0.66,1.41
		c-7.5,3.43-15.23,4.31-23.07,1.41c-5.17-1.91-7.96-6.1-9.48-11.22c-1.71-5.76-1.85-11.7-1.87-17.64
		c-0.03-8.84-0.01-17.67-0.01-26.51C107.81,56.98,107.77,56.69,107.74,56.2z"/>
</g>
</svg>
