<svg width="369" height="94" viewBox="0 0 369 94" fill="none" xmlns="http://www.w3.org/2000/svg">
<path d="M18.0098 0.484375V73H0.52832V0.484375H18.0098ZM61.29 0.484375L33.2002 37.2402L16.7646 55.2197L13.5771 39.1826L24.0859 23.2451L39.7246 0.484375H61.29ZM40.6211 73L21.8945 40.3281L35.4912 30.3174L61.29 73H40.6211ZM92.9658 59.4531V37.2402C92.9658 35.7129 92.75 34.4014 92.3184 33.3057C91.8867 32.21 91.2061 31.3633 90.2764 30.7656C89.3467 30.1348 88.1016 29.8193 86.541 29.8193C85.2793 29.8193 84.2002 30.0352 83.3037 30.4668C82.4072 30.8984 81.7266 31.5459 81.2617 32.4092C80.7969 33.2725 80.5645 34.3682 80.5645 35.6963H63.7803C63.7803 33.2061 64.3281 30.8984 65.4238 28.7734C66.5527 26.6152 68.1465 24.7393 70.2051 23.1455C72.2969 21.5518 74.7871 20.3232 77.6758 19.46C80.5977 18.5635 83.8516 18.1152 87.4375 18.1152C91.7207 18.1152 95.5391 18.8291 98.8926 20.2568C102.279 21.6846 104.952 23.8262 106.911 26.6816C108.87 29.5039 109.85 33.0566 109.85 37.3398V59.4033C109.85 62.9229 110.049 65.5957 110.447 67.4219C110.846 69.2148 111.41 70.792 112.141 72.1533V73H95.3066C94.5098 71.3398 93.9121 69.3145 93.5137 66.9238C93.1484 64.5 92.9658 62.0098 92.9658 59.4531ZM95.0078 40.0791L95.1074 49.0439H87.6865C86.126 49.0439 84.7979 49.2598 83.7021 49.6914C82.6396 50.123 81.7764 50.7207 81.1123 51.4844C80.4814 52.2148 80.0166 53.0449 79.7178 53.9746C79.4521 54.9043 79.3193 55.8838 79.3193 56.9131C79.3193 57.9092 79.5518 58.8057 80.0166 59.6025C80.5146 60.3662 81.1787 60.9639 82.0088 61.3955C82.8389 61.8271 83.7686 62.043 84.7979 62.043C86.6572 62.043 88.2344 61.6943 89.5293 60.9971C90.8574 60.2666 91.8701 59.3867 92.5674 58.3574C93.2646 57.3281 93.6133 56.3652 93.6133 55.4688L97.2988 62.3418C96.6348 63.6699 95.8711 65.0146 95.0078 66.376C94.1777 67.7373 93.1318 68.999 91.8701 70.1611C90.6416 71.29 89.1309 72.2197 87.3379 72.9502C85.5449 73.6475 83.3701 73.9961 80.8135 73.9961C77.4932 73.9961 74.4385 73.3154 71.6494 71.9541C68.8936 70.5928 66.6855 68.7002 65.0254 66.2764C63.3652 63.8193 62.5352 60.9971 62.5352 57.8096C62.5352 55.0205 63.0332 52.5303 64.0293 50.3389C65.0586 48.1475 66.6025 46.2881 68.6611 44.7607C70.7197 43.2334 73.3428 42.0713 76.5303 41.2744C79.7178 40.4775 83.4697 40.0791 87.7861 40.0791H95.0078ZM136.097 29.4707V93.7188H119.312V19.1113H134.951L136.097 29.4707ZM169.167 45.4082V46.4541C169.167 50.3721 168.719 54.0078 167.822 57.3613C166.926 60.7148 165.598 63.6367 163.838 66.127C162.078 68.6172 159.887 70.5596 157.264 71.9541C154.674 73.3154 151.669 73.9961 148.249 73.9961C145.028 73.9961 142.256 73.2822 139.932 71.8545C137.607 70.4268 135.665 68.4512 134.104 65.9277C132.544 63.4043 131.282 60.5156 130.319 57.2617C129.356 54.0078 128.593 50.5713 128.028 46.9521V45.6074C128.593 41.7227 129.356 38.1201 130.319 34.7998C131.282 31.4463 132.544 28.5244 134.104 26.0342C135.665 23.5439 137.591 21.6016 139.882 20.207C142.206 18.8125 144.979 18.1152 148.199 18.1152C151.619 18.1152 154.624 18.7627 157.214 20.0576C159.837 21.3525 162.028 23.2119 163.788 25.6357C165.581 28.0264 166.926 30.8984 167.822 34.252C168.719 37.6055 169.167 41.3242 169.167 45.4082ZM152.383 46.4541V45.4082C152.383 43.3164 152.233 41.4072 151.935 39.6807C151.636 37.9209 151.154 36.3936 150.49 35.0986C149.859 33.8037 149.013 32.8076 147.95 32.1104C146.888 31.4131 145.576 31.0645 144.016 31.0645C142.223 31.0645 140.712 31.3467 139.483 31.9111C138.288 32.4424 137.325 33.2725 136.595 34.4014C135.897 35.4971 135.399 36.875 135.101 38.5352C134.835 40.1621 134.719 42.0713 134.752 44.2627V48.3467C134.686 50.8701 134.935 53.0947 135.499 55.0205C136.063 56.9131 137.043 58.3906 138.438 59.4531C139.832 60.5156 141.725 61.0469 144.115 61.0469C145.709 61.0469 147.037 60.6816 148.1 59.9512C149.162 59.1875 150.009 58.1416 150.64 56.8135C151.271 55.4521 151.719 53.8916 151.984 52.1318C152.25 50.3721 152.383 48.4795 152.383 46.4541ZM208.114 59.9014V19.1113H224.948V73H209.21L208.114 59.9014ZM209.708 48.9443L214.091 48.8447C214.091 52.4639 213.659 55.8174 212.796 58.9053C211.933 61.96 210.654 64.6162 208.961 66.874C207.301 69.1318 205.242 70.8916 202.785 72.1533C200.361 73.3818 197.556 73.9961 194.368 73.9961C191.712 73.9961 189.271 73.6309 187.047 72.9004C184.855 72.1367 182.963 70.958 181.369 69.3643C179.775 67.7373 178.53 65.6621 177.634 63.1387C176.771 60.582 176.339 57.5273 176.339 53.9746V19.1113H193.123V54.0742C193.123 55.2695 193.272 56.2988 193.571 57.1621C193.87 58.0254 194.302 58.7559 194.866 59.3535C195.431 59.918 196.128 60.3496 196.958 60.6484C197.821 60.9141 198.801 61.0469 199.896 61.0469C202.42 61.0469 204.396 60.5156 205.823 59.4531C207.251 58.3906 208.247 56.9463 208.812 55.1201C209.409 53.2939 209.708 51.2354 209.708 48.9443ZM262.451 57.8594C262.451 56.9297 262.136 56.1328 261.505 55.4688C260.907 54.7715 259.845 54.1406 258.317 53.5762C256.79 52.9785 254.648 52.3809 251.893 51.7832C249.27 51.2188 246.796 50.4717 244.472 49.542C242.181 48.6123 240.172 47.4834 238.445 46.1553C236.719 44.8271 235.357 43.25 234.361 41.4238C233.398 39.5977 232.917 37.5059 232.917 35.1484C232.917 32.8574 233.398 30.6992 234.361 28.6738C235.357 26.6152 236.802 24.8057 238.694 23.2451C240.62 21.6514 242.961 20.4062 245.717 19.5098C248.473 18.5801 251.61 18.1152 255.13 18.1152C259.978 18.1152 264.161 18.8623 267.681 20.3564C271.2 21.8174 273.906 23.876 275.799 26.5322C277.725 29.1553 278.688 32.1934 278.688 35.6465H261.903C261.903 34.2852 261.671 33.123 261.206 32.1602C260.774 31.1973 260.061 30.4668 259.064 29.9688C258.068 29.4375 256.74 29.1719 255.08 29.1719C253.918 29.1719 252.855 29.3877 251.893 29.8193C250.963 30.251 250.216 30.8486 249.651 31.6123C249.087 32.376 248.805 33.2725 248.805 34.3018C248.805 35.0322 248.971 35.6963 249.303 36.2939C249.668 36.8584 250.216 37.3896 250.946 37.8877C251.677 38.3525 252.606 38.7842 253.735 39.1826C254.864 39.5479 256.226 39.8799 257.819 40.1787C261.438 40.8428 264.825 41.7891 267.979 43.0176C271.134 44.2461 273.69 45.9893 275.649 48.2471C277.642 50.5049 278.638 53.543 278.638 57.3613C278.638 59.752 278.09 61.96 276.994 63.9854C275.898 65.9775 274.321 67.7373 272.263 69.2646C270.204 70.7588 267.73 71.9209 264.842 72.751C261.953 73.5811 258.699 73.9961 255.08 73.9961C249.934 73.9961 245.584 73.083 242.031 71.2568C238.479 69.3975 235.789 67.0732 233.963 64.2842C232.17 61.4619 231.273 58.6064 231.273 55.7178H246.912C246.979 57.3779 247.377 58.7393 248.107 59.8018C248.871 60.8643 249.884 61.6445 251.146 62.1426C252.407 62.6406 253.868 62.8896 255.528 62.8896C257.056 62.8896 258.317 62.6738 259.313 62.2422C260.343 61.8105 261.123 61.2295 261.654 60.499C262.186 59.7354 262.451 58.8555 262.451 57.8594ZM314.896 19.1113V30.7656H282.423V19.1113H314.896ZM289.246 5.71387H306.03V55.4189C306.03 56.8467 306.196 57.959 306.528 58.7559C306.86 59.5195 307.425 60.0674 308.222 60.3994C309.052 60.6982 310.147 60.8477 311.509 60.8477C312.472 60.8477 313.269 60.8311 313.899 60.7979C314.53 60.7314 315.128 60.6484 315.692 60.5488V72.5518C314.265 73.0166 312.771 73.3652 311.21 73.5977C309.649 73.8633 307.989 73.9961 306.229 73.9961C302.644 73.9961 299.572 73.4316 297.016 72.3027C294.492 71.1738 292.566 69.3975 291.238 66.9736C289.91 64.5498 289.246 61.3955 289.246 57.5107V5.71387ZM349.56 59.4531V37.2402C349.56 35.7129 349.344 34.4014 348.912 33.3057C348.48 32.21 347.8 31.3633 346.87 30.7656C345.94 30.1348 344.695 29.8193 343.135 29.8193C341.873 29.8193 340.794 30.0352 339.897 30.4668C339.001 30.8984 338.32 31.5459 337.855 32.4092C337.391 33.2725 337.158 34.3682 337.158 35.6963H320.374C320.374 33.2061 320.922 30.8984 322.018 28.7734C323.146 26.6152 324.74 24.7393 326.799 23.1455C328.891 21.5518 331.381 20.3232 334.27 19.46C337.191 18.5635 340.445 18.1152 344.031 18.1152C348.314 18.1152 352.133 18.8291 355.486 20.2568C358.873 21.6846 361.546 23.8262 363.505 26.6816C365.464 29.5039 366.443 33.0566 366.443 37.3398V59.4033C366.443 62.9229 366.643 65.5957 367.041 67.4219C367.439 69.2148 368.004 70.792 368.734 72.1533V73H351.9C351.104 71.3398 350.506 69.3145 350.107 66.9238C349.742 64.5 349.56 62.0098 349.56 59.4531ZM351.602 40.0791L351.701 49.0439H344.28C342.72 49.0439 341.392 49.2598 340.296 49.6914C339.233 50.123 338.37 50.7207 337.706 51.4844C337.075 52.2148 336.61 53.0449 336.312 53.9746C336.046 54.9043 335.913 55.8838 335.913 56.9131C335.913 57.9092 336.146 58.8057 336.61 59.6025C337.108 60.3662 337.772 60.9639 338.603 61.3955C339.433 61.8271 340.362 62.043 341.392 62.043C343.251 62.043 344.828 61.6943 346.123 60.9971C347.451 60.2666 348.464 59.3867 349.161 58.3574C349.858 57.3281 350.207 56.3652 350.207 55.4688L353.893 62.3418C353.229 63.6699 352.465 65.0146 351.602 66.376C350.771 67.7373 349.726 68.999 348.464 70.1611C347.235 71.29 345.725 72.2197 343.932 72.9502C342.139 73.6475 339.964 73.9961 337.407 73.9961C334.087 73.9961 331.032 73.3154 328.243 71.9541C325.487 70.5928 323.279 68.7002 321.619 66.2764C319.959 63.8193 319.129 60.9971 319.129 57.8096C319.129 55.0205 319.627 52.5303 320.623 50.3389C321.652 48.1475 323.196 46.2881 325.255 44.7607C327.313 43.2334 329.937 42.0713 333.124 41.2744C336.312 40.4775 340.063 40.0791 344.38 40.0791H351.602Z" fill="black"/>
</svg>
