<?xml version="1.0" encoding="utf-8"?>
<!-- Generator: Adobe Illustrator 25.0.0, SVG Export Plug-In . SVG Version: 6.00 Build 0)  -->
<svg fill="#FF751D" version="1.1" id="Layer_1" xmlns="http://www.w3.org/2000/svg" xmlns:xlink="http://www.w3.org/1999/xlink" x="0px" y="0px"
	viewBox="0 0 154 154" style="enable-background:new 0 0 154 154;" xml:space="preserve">
<g>
	<g>
		<path d="M0.3,136.25c0-39.3,0-78.6,0-117.91c0.1-0.27,0.25-0.52,0.31-0.8C2.37,9.33,7.22,3.87,15.19,1.21
			c1.13-0.38,2.3-0.61,3.45-0.9c39.1,0,78.2,0,117.3,0c0.28,0.1,0.55,0.23,0.84,0.29c8.14,1.57,13.59,6.3,16.43,14.04
			c0.48,1.3,0.73,2.68,1.08,4.02c0,39.1,0,78.2,0,117.3c-0.1,0.33-0.23,0.65-0.3,0.99c-1.69,8.23-6.53,13.69-14.45,16.42
			c-1.17,0.4-2.39,0.63-3.59,0.94c-39.1,0-78.2,0-117.3,0c-0.28-0.1-0.55-0.23-0.84-0.29c-8.58-1.7-14.11-6.78-16.77-15.07
			C0.76,138.06,0.55,137.15,0.3,136.25z M82.64,68.54c-0.12-0.04-0.25-0.09-0.37-0.13c0-1.29,0.02-2.57,0-3.86
			c-0.04-2.57-1.02-3.54-3.57-3.54C74.34,61,69.98,61,65.62,61c-2.6,0-3.66,1.04-3.66,3.62c-0.01,19.04-0.01,38.08,0,57.13
			c0,2.54,1.14,3.67,3.68,3.68c4.21,0.01,8.42,0.01,12.63,0c2.96,0,3.93-0.97,3.93-3.97c0-9.72-0.03-19.44,0.02-29.16
			c0.02-3.66,0.81-7.16,2.84-10.27c2.27-3.49,5.57-4.87,9.65-4.55c4.32,0.34,7.33,2.61,8.39,6.76c0.78,3.06,1.13,6.3,1.18,9.47
			c0.14,9.37,0.04,18.74,0.04,28.11c0,2.5,1.06,3.57,3.56,3.58c4.51,0.02,9.02,0.02,13.53,0c2.56-0.01,3.71-1.13,3.71-3.65
			c-0.01-10.57,0.1-21.15-0.12-31.72c-0.09-4.33-0.54-8.72-1.45-12.94c-1.75-8.09-6.22-14.06-14.64-16.2
			c-5.08-1.29-10.22-1.2-15.32,0.02C88.96,62,85.34,64.61,82.64,68.54z M52.74,93.27c0-9.37,0-18.74,0-28.11
			c0-3.22-0.97-4.17-4.23-4.18c-4.06,0-8.12-0.01-12.18,0c-2.68,0.01-3.85,1.18-3.86,3.84c-0.01,18.89-0.01,37.78,0,56.67
			c0,2.68,1.25,3.92,3.97,3.93c4.01,0.01,8.02,0.01,12.03,0c3.2,0,4.26-1.04,4.27-4.2C52.74,111.91,52.74,102.59,52.74,93.27z
			 M55.69,42.27c0.01-7.22-5.89-13.13-13.08-13.1c-7.17,0.02-13.11,5.99-13.1,13.15c0.01,7.13,5.88,13.03,12.99,13.05
			C49.88,55.39,55.68,49.63,55.69,42.27z"/>
	</g>
</g>
</svg>
