<?xml version="1.0" standalone="no"?>
<!DOCTYPE svg PUBLIC "-//W3C//DTD SVG 20010904//EN"
 "http://www.w3.org/TR/2001/REC-SVG-20010904/DTD/svg10.dtd">
<svg version="1.0" xmlns="http://www.w3.org/2000/svg"
 width="640.000000pt" height="1280.000000pt" viewBox="0 0 640.000000 1280.000000"
 preserveAspectRatio="xMidYMid meet">
<metadata>
Created by potrace 1.15, written by Peter Selinger 2001-2017
</metadata>
<g transform="translate(0.000000,1280.000000) scale(0.100000,-0.100000)">
<path d="M3020 12794 c-253 -31 -420 -70 -600 -141 -710 -279 -1241 -897
-1433 -1668 -78 -313 -72 -68 -72 -2975 0 -2746 -2 -2637 46 -2872 133 -662
529 -1244 1084 -1593 397 -250 900 -371 1356 -325 499 51 962 267 1338 624
157 150 352 412 465 626 141 269 235 582 271 902 22 198 22 5067 0 5263 -53
472 -212 879 -490 1250 -359 480 -883 800 -1460 891 -96 15 -432 27 -505 18z
m455 -549 c675 -119 1234 -657 1416 -1363 69 -268 64 -52 64 -2877 0 -2430 -1
-2555 -18 -2660 -74 -442 -254 -802 -547 -1096 -296 -296 -649 -462 -1065
-501 -268 -24 -597 38 -839 159 -551 275 -918 793 -1024 1443 -16 97 -17 294
-17 2660 0 2407 1 2561 18 2660 130 763 619 1341 1302 1539 67 19 205 45 290
55 77 8 331 -3 420 -19z"/>
<path d="M213 8053 c-55 -19 -117 -89 -132 -148 -15 -59 -16 -3078 -1 -3245
45 -506 282 -981 683 -1366 514 -496 1242 -813 2045 -892 l172 -17 0 -977 0
-978 -615 0 -615 0 0 -215 0 -215 1450 0 1450 0 0 215 0 215 -615 0 -615 0 0
978 0 978 143 13 c701 62 1391 328 1887 728 513 413 816 949 870 1538 15 160
14 3182 -1 3240 -22 88 -120 165 -209 165 -77 0 -169 -63 -203 -138 -9 -21
-13 -422 -17 -1682 -6 -1648 -6 -1655 -27 -1745 -92 -386 -296 -709 -628 -993
-441 -377 -1033 -615 -1700 -683 -154 -15 -516 -15 -670 0 -552 56 -1052 228
-1459 500 -467 313 -759 708 -868 1174 l-22 92 -6 1655 c-4 1260 -8 1661 -17
1682 -22 50 -82 106 -130 122 -56 19 -95 19 -150 -1z"/>
</g>
</svg>
