<?xml version="1.0" encoding="utf-8"?>
<!-- Generator: Adobe Illustrator 25.0.0, SVG Export Plug-In . SVG Version: 6.00 Build 0)  -->
<svg version="1.1" id="Layer_1" xmlns="http://www.w3.org/2000/svg" xmlns:xlink="http://www.w3.org/1999/xlink" x="0px" y="0px"
	 viewBox="0 0 136.63 64.86" style="enable-background:new 0 0 136.63 64.86;" xml:space="preserve">
<style type="text/css">
	.st0{fill:#010101;}
	.st1{fill:#F47527;}
	.st2{fill:#231F20;}
</style>
<path class="st0" d="M49.38,48.55c0.14-1.27,1.03-1.9,2.69-1.9c0.88,0,1.54,0.07,1.97,0.2s0.73,0.37,0.9,0.71s0.27,0.64,0.31,0.9
	s0.05,0.65,0.05,1.17v11.9c0,0.52-0.02,0.91-0.05,1.17s-0.13,0.56-0.29,0.9c-0.32,0.59-1.09,0.88-2.33,0.88s-2.06-0.15-2.48-0.46
	c-0.42-0.31-0.66-0.75-0.73-1.34c-0.84,1.2-2.24,1.8-4.2,1.8c-1.96,0-3.78-0.89-5.46-2.69c-1.68-1.79-2.52-3.87-2.52-6.24
	c0-2.37,0.84-4.44,2.53-6.22s3.54-2.67,5.56-2.67c0.77,0,1.47,0.14,2.11,0.41c0.63,0.27,1.08,0.53,1.33,0.76
	C49.02,48.09,49.22,48.32,49.38,48.55z M43.2,55.62c0,0.75,0.29,1.42,0.88,2.02c0.59,0.6,1.3,0.9,2.14,0.9
	c0.84,0,1.54-0.31,2.09-0.92c0.55-0.61,0.83-1.29,0.83-2.02c0-0.74-0.27-1.42-0.8-2.06c-0.53-0.63-1.25-0.95-2.14-0.95
	c-0.9,0-1.62,0.32-2.18,0.95C43.47,54.18,43.2,54.87,43.2,55.62z"/>
<path class="st0" d="M67.85,46.68c2.02,0,3.87,0.9,5.56,2.69c1.69,1.79,2.53,3.87,2.53,6.24c0,2.37-0.84,4.44-2.52,6.22
	c-1.68,1.78-3.48,2.67-5.41,2.67s-3.3-0.54-4.11-1.63c-0.18,1.11-1.16,1.67-2.92,1.67c-1.43,0-2.3-0.31-2.62-0.92
	c-0.16-0.34-0.26-0.64-0.29-0.9c-0.03-0.26-0.05-0.65-0.05-1.17v-20.3c0-0.52,0.02-0.91,0.05-1.17c0.03-0.26,0.13-0.55,0.29-0.87
	c0.32-0.61,1.2-0.92,2.65-0.92c1.43,0,2.29,0.31,2.58,0.92c0.18,0.34,0.29,0.64,0.32,0.9s0.05,0.65,0.05,1.17v7.07
	C64.88,47.23,66.17,46.68,67.85,46.68z M64.87,57.66c0.55,0.61,1.25,0.92,2.09,0.92c0.84,0,1.55-0.31,2.14-0.92
	c0.59-0.61,0.88-1.29,0.88-2.04s-0.27-1.43-0.82-2.06c-0.54-0.62-1.27-0.93-2.18-0.93c-0.91,0-1.63,0.32-2.16,0.95
	c-0.53,0.64-0.8,1.32-0.8,2.06S64.31,57.05,64.87,57.66z"/>
<path class="st0" d="M87.97,46.68c2.02,0,3.87,0.9,5.56,2.69c1.69,1.79,2.53,3.87,2.53,6.24c0,2.37-0.84,4.44-2.52,6.22
	c-1.68,1.78-3.48,2.67-5.41,2.67s-3.3-0.54-4.11-1.63c-0.18,1.11-1.16,1.67-2.92,1.67c-1.43,0-2.3-0.31-2.62-0.92
	c-0.16-0.34-0.26-0.64-0.29-0.9c-0.03-0.26-0.05-0.65-0.05-1.17v-20.3c0-0.52,0.02-0.91,0.05-1.17c0.03-0.26,0.13-0.55,0.29-0.87
	c0.32-0.61,1.2-0.92,2.65-0.92c1.43,0,2.29,0.31,2.58,0.92c0.18,0.34,0.29,0.64,0.32,0.9s0.05,0.65,0.05,1.17v7.07
	C85,47.23,86.3,46.68,87.97,46.68z M85,57.66c0.55,0.61,1.25,0.92,2.09,0.92c0.84,0,1.55-0.31,2.14-0.92
	c0.59-0.61,0.88-1.29,0.88-2.04s-0.27-1.43-0.82-2.06c-0.54-0.62-1.27-0.93-2.18-0.93c-0.91,0-1.63,0.32-2.16,0.95
	c-0.53,0.64-0.8,1.32-0.8,2.06S84.44,57.05,85,57.66z"/>
<path class="st1" d="M103.87,43.33c-0.17,0.33-0.47,0.56-0.9,0.7s-1,0.2-1.72,0.2s-1.29-0.07-1.72-0.2
	c-0.43-0.14-0.73-0.37-0.9-0.71s-0.27-0.64-0.31-0.9c-0.03-0.26-0.05-0.65-0.05-1.17c0-0.52,0.02-0.91,0.05-1.17
	c0.03-0.26,0.13-0.55,0.29-0.87c0.32-0.61,1.2-0.92,2.65-0.92c1.43,0,2.29,0.31,2.58,0.92c0.18,0.34,0.29,0.64,0.32,0.9
	s0.05,0.65,0.05,1.17s-0.02,0.91-0.05,1.17C104.14,42.7,104.04,43,103.87,43.33z"/>
<path class="st1" d="M98.28,49.63c0-0.52,0.02-0.91,0.05-1.17s0.13-0.56,0.29-0.9c0.32-0.59,1.2-0.88,2.65-0.88
	c1.09,0,1.86,0.19,2.31,0.58c0.38,0.32,0.59,0.8,0.61,1.46c0.02,0.23,0.03,0.56,0.03,0.99v11.9c0,0.52-0.02,0.91-0.05,1.17
	c-0.03,0.26-0.14,0.56-0.32,0.9c-0.29,0.59-1.17,0.88-2.62,0.88c-1.43,0-2.3-0.31-2.62-0.92c-0.16-0.34-0.25-0.63-0.29-0.88
	s-0.05-0.65-0.05-1.19V49.63z"/>
<path class="st1" d="M117.35,52.66l-2.21-0.14v4.69c0,0.61,0.1,1.05,0.29,1.33c0.19,0.27,0.56,0.41,1.09,0.41s0.94,0.02,1.22,0.05
	c0.28,0.03,0.58,0.14,0.9,0.32c0.52,0.29,0.78,1.05,0.78,2.28c0,1.43-0.32,2.3-0.95,2.62c-0.34,0.16-0.64,0.25-0.9,0.29
	c-0.26,0.03-0.64,0.05-1.14,0.05c-2.36,0-4.15-0.53-5.37-1.6c-1.22-1.07-1.84-2.87-1.84-5.41v-5.03c-0.43,0.07-0.9,0.1-1.39,0.1
	c-0.5,0-0.91-0.19-1.24-0.58c-0.33-0.39-0.49-1.04-0.49-1.97c0-0.93,0.06-1.6,0.17-2.02c0.11-0.42,0.27-0.72,0.48-0.9
	c0.36-0.29,0.82-0.44,1.36-0.44l1.12,0.14v-3.5c0-0.52,0.02-0.91,0.05-1.16c0.03-0.25,0.14-0.52,0.32-0.82
	c0.29-0.57,1.17-0.85,2.62-0.85c1.54,0,2.46,0.42,2.75,1.26c0.11,0.36,0.17,0.94,0.17,1.73v3.33c1-0.09,1.75-0.14,2.26-0.14
	c0.51,0,0.89,0.02,1.16,0.05s0.56,0.14,0.9,0.32c0.59,0.29,0.88,1.17,0.88,2.62c0,1.43-0.31,2.3-0.92,2.62
	c-0.34,0.16-0.64,0.25-0.9,0.29S117.87,52.66,117.35,52.66z"/>
<path class="st0" d="M122.35,62.96c-0.43-0.27-0.65-0.7-0.65-1.29c0-0.59,0.43-1.48,1.29-2.69c0.25-0.38,0.65-0.58,1.21-0.58
	s1.31,0.28,2.26,0.83c0.95,0.56,1.81,0.83,2.58,0.83c1.38,0,2.07-0.27,2.07-0.82c0-0.43-0.76-0.75-2.28-0.95
	c-1.43-0.2-2.84-0.74-4.25-1.6c-0.66-0.41-1.2-1.05-1.63-1.92c-0.43-0.87-0.65-1.91-0.65-3.11c0-3.58,2.46-5.37,7.38-5.37
	c1.61,0,3.26,0.39,4.96,1.16c0.79,0.36,1.19,0.82,1.19,1.36s-0.25,1.21-0.75,2.01c-0.5,0.79-1.01,1.19-1.53,1.19
	c-0.27,0-0.78-0.17-1.51-0.51c-0.74-0.34-1.54-0.51-2.4-0.51c-1.34,0-2.01,0.25-2.01,0.75c0,0.68,0.77,1.12,2.31,1.33
	c1.5,0.16,2.95,0.59,4.35,1.29c0.66,0.32,1.21,0.87,1.65,1.65c0.44,0.78,0.66,1.76,0.66,2.94c0,1.18-0.22,2.18-0.66,3.01
	c-0.44,0.83-1.06,1.44-1.85,1.85c-1.45,0.7-3.27,1.05-5.46,1.05S124.36,64.23,122.35,62.96z"/>
<g>
	<path class="st2" d="M46.19,0c0.02,0,0.03,0,0.05,0c-0.03,0.57-0.06,1.14-0.1,1.72c-0.11,1.6-0.38,3.17-0.8,4.72
		c-1.06,3.95-3.07,7.38-5.85,10.36c-2.17,2.33-4.67,4.28-7.32,6.03c-2.97,1.96-6.1,3.64-9.25,5.27c-0.1,0.05-0.2,0.11-0.33,0.18
		c0.1,0.03,0.15,0.05,0.21,0.06c1.43,0.25,2.83,0.61,4.2,1.07c2.79,0.95,5.38,2.26,7.66,4.15c1.51,1.26,2.81,2.7,3.61,4.52
		c0.89,2,0.93,4.01-0.06,5.99c-0.78,1.56-2,2.74-3.39,3.75c-1.85,1.34-3.9,2.29-6.03,3.08c-0.44,0.16-0.88,0.32-1.34,0.48
		c0.03,0.1,0.05,0.19,0.08,0.28c0.31,0.92,0.56,1.85,0.6,2.83c0.05,1.06-0.15,2.04-0.93,2.84c-0.12,0.12-0.22,0.13-0.37,0.07
		c-1.91-0.76-3.81-1.51-5.72-2.26c-0.71-0.28-1.42-0.56-2.16-0.85c-0.15,1.11-0.29,2.19-0.44,3.28c-0.06-0.01-0.15-0.02-0.23-0.03
		c-0.91-0.2-1.83-0.39-2.74-0.59c-3.27-0.72-6.44-1.75-9.51-3.09c-0.09-0.04-0.19-0.13-0.21-0.21c-0.67-2.44-1.24-4.91-1.49-7.44
		c-0.2-1.95-0.21-3.9,0.1-5.85c0.41-2.59,1.38-4.95,2.99-7.03c0.41-0.53,0.86-1.03,1.31-1.56c-0.03-0.02-0.07-0.05-0.1-0.09
		c-0.95-0.86-1.8-1.8-2.57-2.82c-1.8-2.37-3.12-4.98-4.11-7.78c-1.03-2.9-1.65-5.89-1.87-8.96C0.07,11.75,0.03,11.39,0,11.03
		c0-0.81,0-1.62,0-2.43c0.01-0.09,0.03-0.18,0.04-0.27c0.06-1.44,0.23-2.87,0.53-4.28C0.68,3.5,0.83,2.96,0.97,2.38
		c0.66,0.3,1.29,0.56,1.9,0.87c3.84,1.95,6.71,4.9,8.76,8.66c1.6,2.93,2.55,6.07,3,9.36c0.27,1.99,0.36,3.98,0.25,5.98
		c-0.01,0.12,0,0.24,0,0.41c0.09-0.13,0.14-0.2,0.19-0.28c3.84-5.8,8.38-10.98,13.61-15.56c4.78-4.18,9.99-7.73,15.56-10.76
		C44.89,0.71,45.54,0.35,46.19,0z M28.6,39.08c1.29,0,2.35-1.06,2.35-2.34c0-1.28-1.07-2.35-2.35-2.35c-1.29,0-2.35,1.06-2.35,2.35
		C26.25,38.03,27.31,39.08,28.6,39.08z"/>
	<path class="st1" d="M21.16,64.76c-0.71-2.6-0.59-5.14,0.3-7.68c0.65,0.27,1.29,0.55,1.94,0.78c1.1,0.4,2.22,0.78,3.33,1.15
		c0.12,0.04,0.3,0,0.42-0.06c1.26-0.72,2.51-1.47,3.89-1.97c0.51-0.19,1.03-0.32,1.58-0.26c0.14,0.02,0.23,0.05,0.24,0.22
		c0.08,1.55,0.17,3.1-0.18,4.63c-0.1,0.43-0.32,0.84-0.5,1.25c-0.05,0.1-0.14,0.19-0.23,0.27c-0.32,0.29-0.44,0.31-0.82,0.1
		c-1.19-0.63-2.41-1.2-3.72-1.53c-0.31-0.08-0.62-0.14-0.94-0.17c-0.13-0.01-0.29,0.03-0.4,0.1c-1.56,1-3.11,2.01-4.67,3.02
		C21.32,64.66,21.25,64.71,21.16,64.76z"/>
	<path class="st2" d="M18.76,60.86c-0.02,0.39-0.26,0.71-0.58,0.98c-0.04,0.03-0.13,0.02-0.19,0.01c-2.46-0.26-4.88-0.79-7.28-1.35
		c-1.22-0.29-2.43-0.58-3.65-0.88c-0.12-0.03-0.24-0.12-0.31-0.22c-0.15-0.2-0.28-0.42-0.4-0.64C6.22,58.5,6.2,58.23,6.41,58
		c0.22-0.24,0.43-0.45,0.84-0.38c2.45,0.41,4.88,0.9,7.27,1.54c1.3,0.35,2.58,0.75,3.87,1.13C18.69,60.38,18.76,60.49,18.76,60.86z"
		/>
</g>
</svg>
