<svg aria-hidden="true" style="position: absolute; width: 0; height: 0; overflow: hidden;" version="1.1" xmlns="http://www.w3.org/2000/svg" xmlns:xlink="http://www.w3.org/1999/xlink">
<defs>
<symbol id="icon-arrow" viewBox="0 0 24 24">
  <path fill="#FF751D" d="M21 11H6.83L10.41 7.41L9 6L3 12L9 18L10.41 16.59L6.83 13H21V11Z"/>
</symbol>
<symbol id="icon-kapusta" viewBox="0 0 89 83">
  <path fill="#FF751D" d="M89 41.3468C89.0004 45.3208 88.1401 49.2206 86.4209 53.0172C84.4381 57.3957 82.0027 61.6013 79.1828 65.5166C79.0595 65.6878 78.9287 65.8491 78.7903 66.0016L82.1807 70.2134C82.4166 70.5055 82.4429 70.9144 82.2462 71.2345C82.1567 71.3803 80.016 74.8435 76.5925 77.7756C73.1575 80.7179 69.7839 82.0074 69.6424 82.0607C69.3335 82.1772 68.9851 82.1132 68.7385 81.8949L65.8104 79.3065C65.7388 79.2429 65.68 79.1709 65.6342 79.0936C63.0577 80.4169 58.2639 82.1932 50.3707 82.8338C43.381 83.4005 37.6495 82.5164 33.335 80.2062C33.104 80.0826 32.7262 79.8999 32.3181 79.7021C31.6193 79.3634 30.8961 79.0136 30.5013 78.7722C30.1123 78.5344 29.6642 78.2757 29.1675 77.9885C25.311 75.7606 18.1335 71.6141 12.6636 62.1401C8.02829 54.1107 7.54628 50.1154 7.1208 46.5908C6.86801 44.494 6.64903 42.6839 5.55774 40.247C2.78232 34.0469 0.511164 32.8085 0.488466 32.7965C0.262374 32.6782 0.0896894 32.4649 0.0282706 32.2173C-0.0340382 31.971 0.00646253 31.7043 0.151553 31.4945C0.601067 30.845 2.95812 27.6027 5.23596 27.5676C6.34016 27.5502 7.09588 27.933 7.64687 28.2126C8.21254 28.4993 8.22589 28.4891 8.38745 28.3682C8.56014 28.2384 8.65538 28.0019 8.79646 27.6267C9.13338 26.7314 9.64164 25.3788 12.2568 25.3161C14.3397 25.2659 15.5027 26.3643 16.3461 27.2582C17.2282 25.4912 19.6351 20.9602 22.7879 17.3663C24.8245 15.0446 27.2056 13.2238 28.8435 12.1045C30.0932 11.2511 30.9174 10.7367 31.4818 10.4429C30.8609 9.29784 30.5943 8.51948 30.3869 7.9145C30.1439 7.2046 30.0095 6.81342 29.4394 6.1991C27.543 4.15564 29.0335 0.816855 29.313 0.41323C29.4705 0.185195 29.7189 0.0371691 29.9935 0.00694144C30.5035 -0.0495161 30.8191 0.241644 31.3919 0.770629C32.3443 1.65033 34.3262 3.47997 37.6891 4.35879C40.7026 5.14603 44.2048 4.98156 47.294 4.83664C49.2447 4.74507 51.0868 4.65883 52.5431 4.83442C57.3035 5.40829 67.2101 6.60271 75.3535 13.9048C79.2478 17.3965 82.6494 21.7786 85.034 26.3114C85.0941 26.3905 85.1391 26.4785 85.1698 26.5714C85.7479 27.6898 86.2633 28.8158 86.7088 29.9391C88.2367 33.7908 89 37.6022 89 41.3468ZM86.7195 46.2289C87.9648 39.5865 86.4729 33.1192 83.6214 27.4822C82.8252 27.0915 80.161 25.9606 76.1328 26.0451C71.3857 26.1438 69.8863 26.9657 69.8721 26.9741C69.4515 27.2128 68.9081 27.0773 68.6597 26.6625C68.4109 26.2478 68.532 25.7153 68.9414 25.4583C69.1172 25.3481 70.8103 24.3773 76.0954 24.267C78.7173 24.2128 80.8135 24.6231 82.2893 25.068C80.0004 21.2421 77.1266 17.8842 74.1652 15.2282C72.6279 13.8497 71.0199 12.7002 69.3932 11.7387C68.597 12.0641 66.2964 12.7966 62.4337 12.3988C57.935 11.9356 55.4818 11.7654 55.4578 11.7636C54.9673 11.7302 54.6019 11.2986 54.6309 10.8159C54.6643 10.3256 55.0893 9.95572 55.5797 9.98996C55.6047 9.99173 58.0832 10.1638 62.6166 10.6301C64.5981 10.8337 66.1019 10.7114 67.1376 10.5247C61.3184 7.68245 55.5789 6.99078 52.3303 6.59916C51.0223 6.4418 49.2523 6.52448 47.3786 6.61205C44.1612 6.76319 40.5152 6.93433 37.2396 6.07818C33.7374 5.16292 31.5908 3.35995 30.4488 2.31888C30.2329 3.14702 30.1186 4.31522 30.7457 4.99C31.5726 5.88126 31.804 6.55649 32.0719 7.33839C32.3247 8.07763 32.6398 8.99689 33.6301 10.5967C34.5443 12.0734 35.7424 12.1085 37.6223 12.0436C38.8658 12.0001 40.2754 11.9516 41.5211 12.6771C43.6997 13.9457 43.199 15.4904 42.8701 16.5119C42.6912 17.0649 42.5354 17.5459 42.652 18.0473C43.0365 18.0944 44.1145 17.7659 44.9156 17.5219C46.7568 16.9609 49.2781 16.1932 51.823 16.6088C53.2445 16.8413 54.1142 17.2672 54.5597 17.9495C55.0804 18.7456 54.8627 19.5933 54.6865 20.2739C54.456 21.1687 54.4769 21.343 54.8503 21.5999C56.2754 22.5836 57.5763 22.8583 59.3766 23.2388C60.1354 23.3993 60.9957 23.5816 61.9633 23.8403C63.4747 24.2443 64.5318 25.02 65.105 26.1464C65.9764 27.8578 65.7365 30.3227 64.3502 33.9015C63.1819 36.918 62.913 39.6638 62.8939 41.4357C62.8939 41.445 62.8939 41.4544 62.8939 41.4637C62.8939 42.2363 63.2553 42.9337 63.8196 43.701C68.7447 48.8334 71.5237 54.4854 71.776 60.0553C71.8246 61.1314 71.7845 62.265 71.6786 63.4127C71.9932 64.664 72.9617 65.4184 73.887 65.7256C75.0388 66.1083 76.6553 65.982 77.7377 64.4782C80.4891 60.658 82.8652 56.5556 84.799 52.2842C85.3834 50.9933 85.8507 49.7011 86.2103 48.4138C85.7813 47.8461 83.6953 45.2194 80.0965 42.7968C79.6719 42.9839 77.1026 44.0779 74.827 44.2104C73.692 44.2762 72.2327 44.3144 71.7249 44.1241L72.3515 42.4599C72.3515 42.4599 72.3315 42.4488 72.2781 42.4363C72.2986 42.4412 72.8019 42.547 74.7233 42.435C75.9178 42.3656 77.2623 41.9647 78.2054 41.6291C73.5149 38.9264 71.8437 38.529 71.8268 38.5254C71.3515 38.4183 71.047 37.9467 71.1485 37.471C71.2504 36.9949 71.7128 36.6882 72.1904 36.7851C72.384 36.8242 74.2319 37.2554 79.4761 40.3097C83.0326 42.3812 85.4546 44.7891 86.7195 46.2289ZM69.4991 80.1924C70.5161 79.7404 72.9799 78.5273 75.434 76.4251C77.8868 74.3248 79.6755 71.8724 80.388 70.8233L77.7092 67.4961C76.7728 68.7145 75.2502 70.6699 74.1763 71.9177C71.3399 75.2169 68.0745 77.5933 67.9365 77.6929C67.88 77.7338 67.8203 77.7667 67.7594 77.7929C67.6232 77.8956 67.4434 78.025 67.2168 78.1748L69.4991 80.1924ZM69.3162 74.2772C70.3799 73.3402 71.6514 72.1257 72.826 70.7597C73.5447 69.924 74.4918 68.7345 75.3143 67.6814C74.6609 67.7197 73.9885 67.6334 73.324 67.4125C72.5407 67.1525 71.8606 66.7342 71.3118 66.1994C70.7978 69.2626 69.9718 72.2062 69.3162 74.2772ZM66.7353 76.3345C67.1812 75.1169 69.3175 69.0648 69.8792 63.4963C69.8155 63.1491 69.7871 62.7877 69.7933 62.4201C69.8244 60.7025 69.7025 59.06 69.4252 57.5428C68.4051 51.9681 65.3498 48.3355 63.5241 46.1654C63.2019 45.7831 62.9144 45.4399 62.6745 45.1345C62.5988 45.0381 62.5236 44.9403 62.4493 44.8416C60.9655 43.3067 59.2764 41.8162 57.3934 40.3893C49.9488 34.7483 46.3887 35.0991 44.6784 35.2675L44.4296 35.2915C43.9872 35.3311 43.1856 35.5791 42.3378 35.8419C40.1329 36.5246 37.1136 37.4595 34.8856 36.5762C32.8294 35.761 32.6443 33.6846 32.4654 31.6772C32.3372 30.2374 32.2041 28.7482 31.4337 27.5876C29.7821 25.1005 25.5326 26.354 23.2828 27.4862C22.3936 27.9339 21.7247 28.4855 21.135 28.9723C20.1242 29.8066 19.0788 30.669 17.5023 30.2743C16.4952 30.0222 15.8445 29.3252 15.2152 28.6518C14.4167 27.7974 13.7269 27.0591 12.3004 27.0933C10.8865 27.1275 10.7365 27.5271 10.4637 28.2517C10.2812 28.7376 10.0538 29.3421 9.45738 29.7893C8.39635 30.5859 7.49821 30.1307 6.84219 29.7986C6.3722 29.5604 5.92803 29.3354 5.26444 29.3457C4.43084 29.3581 3.07962 30.6463 2.14188 31.8065C3.20113 32.7098 5.07974 34.8217 7.18356 39.5207C8.38434 42.2034 8.62912 44.2308 8.88815 46.3774C9.29316 49.7335 9.75202 53.5373 14.2058 61.2519C19.4375 70.3139 26.0858 74.1545 30.0589 76.4491C30.5694 76.7443 31.0305 77.011 31.4306 77.2551C31.7515 77.4511 32.4965 77.812 33.0947 78.1014C33.5291 78.3121 33.9305 78.5068 34.1767 78.6384C37.8912 80.6281 42.802 81.4731 48.7903 81.1566C44.3036 79.8257 37.6326 77.1079 31.4333 71.7283C21.0406 62.7104 15.3696 45.1897 15.1333 44.4482C14.9855 43.9788 15.2437 43.48 15.7119 43.3316C16.1801 43.1827 16.6808 43.4409 16.8299 43.9085C16.8837 44.077 22.0407 60.0037 31.1516 69.0386C31.7288 67.2876 32.8855 63.2216 32.238 60.3944C31.9723 59.2316 31.7199 58.2265 31.4969 57.3401C30.945 55.146 30.5463 53.5608 30.4737 51.6952C30.4728 51.6836 30.4728 51.6712 30.4728 51.6601C30.4728 51.1849 30.8489 50.7906 31.3282 50.7724C31.8196 50.7533 32.2335 51.1351 32.2522 51.6258C32.315 53.227 32.6621 54.6721 33.1486 56.6102L34.8131 54.878C35.154 54.5237 35.717 54.5121 36.0717 54.8517C36.4264 55.1927 36.438 55.7545 36.098 56.1088L33.6559 58.6501C33.7587 59.0747 33.8655 59.5236 33.9741 59.9997C34.8563 63.8679 32.9639 69.3155 32.5766 70.365C32.5847 70.3721 32.5931 70.3792 32.6011 70.3863C35.928 73.273 39.4288 75.3663 42.624 76.875C41.3328 74.5048 39.6665 70.6348 40.8976 68.1717C41.7147 66.5359 43.1852 65.2913 44.6072 64.0866C46.1618 62.7704 47.63 61.5271 48.1819 59.8979C48.3395 59.4329 48.8446 59.1836 49.3106 59.3409C49.7761 59.4983 50.0262 60.0019 49.8682 60.4682C49.1579 62.5641 47.4298 64.0275 45.7585 65.4428C45.1515 65.9567 44.5595 66.4581 44.0321 66.9742C45.1884 67.3472 47.3759 67.969 49.1619 67.989C51.705 68.0175 55.306 66.7493 55.3421 66.7368C55.8054 66.5724 56.3145 66.8137 56.4792 67.276C56.6448 67.7383 56.4027 68.2473 55.9394 68.4118C55.7805 68.4687 52.0054 69.7996 49.1424 69.7676C46.6286 69.7396 43.5964 68.7198 42.7962 68.4345C42.6836 68.6078 42.5817 68.7843 42.4909 68.9652C41.3836 71.1843 44.2248 76.2798 45.3081 77.8903C45.3491 77.9512 45.3816 78.0152 45.4056 78.0814C50.4718 80.0893 54.2285 80.5774 54.2944 80.5854C54.3029 80.5867 54.3109 80.5876 54.3193 80.5889C62.3763 79.363 65.9804 76.9114 66.7353 76.3345ZM61.1181 41.1276C61.1648 39.2064 61.4866 36.3655 62.6892 33.2601C63.8477 30.2698 64.1259 28.1468 63.517 26.9519C63.1783 26.2856 62.5192 25.83 61.5022 25.5575C60.5809 25.3112 59.7811 25.1418 59.0081 24.9787C57.1566 24.5871 55.5575 24.2492 53.8387 23.0628C52.3869 22.0613 52.7474 20.6646 52.9628 19.8307C53.0553 19.4698 53.1613 19.0613 53.0687 18.9212C53.0313 18.8639 52.7812 18.5674 51.535 18.3634C49.4 18.0144 47.2014 18.6843 45.435 19.2226C43.7958 19.7218 42.6115 20.0828 41.7271 19.5902C41.4548 19.4382 41.0969 19.1342 40.9421 18.5461C40.6728 17.5232 40.9514 16.6595 41.1757 15.9652C41.489 14.993 41.5656 14.761 40.6238 14.2124C39.8227 13.7461 38.7839 13.7817 37.6842 13.8199C35.9916 13.8786 33.9123 13.9511 32.4204 11.9765C31.249 12.6228 27.2555 14.973 24.1271 18.5381C20.8354 22.2898 18.319 27.2702 17.7307 28.4788C17.7974 28.5082 17.8655 28.5322 17.935 28.5495C18.5834 28.7118 18.9706 28.4508 20.0005 27.6014C20.6298 27.0817 21.4136 26.4354 22.4808 25.898C25.927 24.1639 30.7279 23.3082 32.9171 26.6043C33.9372 28.141 34.097 29.9355 34.2385 31.5189C34.409 33.4308 34.5536 34.531 35.5426 34.923C37.1866 35.5751 39.8592 34.7475 41.8108 34.1434C42.7922 33.8393 43.64 33.577 44.2698 33.5201L44.503 33.4979C46.4399 33.3068 50.4691 32.9103 58.4695 38.9722C59.3971 39.6758 60.2805 40.3951 61.1181 41.1276Z"/>
</symbol>
<symbol id="icon-logo" viewBox="0 0 90 31">
<rect x="6" y="5" width="33" height="26" rx="8" fill="#FB7C2F"/>
<rect width="33" height="26" rx="8" fill="#FB7C2F" fill-opacity="0.2"/>
<path fill-rule="evenodd" clip-rule="evenodd" d="M23.1335 20.5701L24.419 19.1596L27.1865 23.9982H30.9003L26.508 16.7492L30.9003 11H27.0258L24.2226 15.0798L23.1335 16.7314V11H20V23.9982H23.1335V20.5701ZM37.712 23.1323C37.7953 23.5132 37.8906 23.8018 37.9977 23.9982H41.0062V23.8465C40.7444 23.3763 40.6075 22.6978 40.5956 21.811V17.5348C40.5777 16.4874 40.2117 15.6631 39.4975 15.062C38.7833 14.4608 37.8102 14.1603 36.5782 14.1603C35.3463 14.1603 34.3315 14.4519 33.534 15.0352C32.7425 15.6184 32.3467 16.3772 32.3467 17.3116H35.3552C35.3552 16.6094 35.7123 16.2582 36.4265 16.2582C37.1942 16.2582 37.5781 16.7016 37.5781 17.5884V18.0973H36.6497C35.1737 18.0973 34.0488 18.3651 33.2751 18.9007C32.5014 19.4364 32.1146 20.2279 32.1146 21.2754C32.1146 22.1086 32.433 22.802 33.0698 23.3555C33.7066 23.903 34.4803 24.1768 35.3909 24.1768C36.3848 24.1768 37.1585 23.8286 37.712 23.1323ZM37.0425 21.7932C36.7985 21.9539 36.489 22.0342 36.114 22.0342C35.8283 22.0342 35.5933 21.9509 35.4088 21.7843C35.2243 21.6117 35.132 21.3885 35.132 21.1147C35.132 20.1744 35.6558 19.7042 36.7032 19.7042H37.5781V21.2486C37.471 21.451 37.2924 21.6325 37.0425 21.7932ZM51.237 19.24C51.237 20.7398 50.8977 21.939 50.2193 22.8377C49.5467 23.7304 48.6361 24.1768 47.4875 24.1768C46.6007 24.1768 45.8716 23.8524 45.3003 23.2037V27.712H42.2918V14.3388H45.1039L45.1932 15.2316C45.7705 14.5174 46.5293 14.1603 47.4696 14.1603C48.6599 14.1603 49.5854 14.6007 50.246 15.4815C50.9067 16.3564 51.237 17.5616 51.237 19.0971V19.24ZM48.2285 19.0525C48.2285 17.3384 47.7285 16.4814 46.7287 16.4814C46.0145 16.4814 45.5383 16.7373 45.3003 17.2492V21.0522C45.5622 21.5879 46.0442 21.8557 46.7465 21.8557C47.7047 21.8557 48.1987 21.0284 48.2285 19.3739V19.0525ZM56.7453 24.1768C57.8285 24.1768 58.6885 23.7691 59.3253 22.9537L59.4146 23.9982H62.2356V14.3388H59.2093V21.1147C58.9176 21.6087 58.4266 21.8557 57.7362 21.8557C56.9328 21.8557 56.531 21.442 56.531 20.6148V14.3388H53.5225V20.5969C53.5225 21.7515 53.7933 22.6383 54.3349 23.2573C54.8825 23.8703 55.6859 24.1768 56.7453 24.1768ZM68.949 21.2843C68.949 21.0284 68.8151 20.8231 68.5473 20.6683C68.2794 20.5136 67.7706 20.3529 67.0207 20.1863C66.2708 20.0196 65.6518 19.8024 65.1638 19.5346C64.6758 19.2608 64.3038 18.9305 64.0479 18.5436C63.792 18.1568 63.664 17.7134 63.664 17.2134C63.664 16.3267 64.03 15.5976 64.7621 15.0262C65.3768 14.5415 66.1509 14.2603 67.0845 14.1825V11.9887H68.5185V14.2111C69.3917 14.3171 70.1215 14.5888 70.7077 15.0262C71.4814 15.6035 71.8683 16.3624 71.8683 17.3027H68.8508C68.8508 16.529 68.4431 16.1422 67.6278 16.1422C67.3123 16.1422 67.0475 16.2314 66.8332 16.41C66.619 16.5826 66.5118 16.7998 66.5118 17.0617C66.5118 17.3295 66.6428 17.5467 66.9046 17.7134C67.1665 17.88 67.5831 18.0169 68.1545 18.124C68.7318 18.2312 69.2377 18.3591 69.6721 18.5079C71.1243 19.0078 71.8504 19.9036 71.8504 21.195C71.8504 22.0759 71.4576 22.793 70.672 23.3465C70.0855 23.7629 69.3676 24.0227 68.5185 24.1258V26.3284H67.0845V24.1536C66.4774 24.1012 65.9234 23.9601 65.4227 23.7304C64.774 23.4328 64.2681 23.0281 63.905 22.5163C63.542 22.0045 63.3605 21.4658 63.3605 20.9004H66.1726C66.1845 21.3468 66.3333 21.6742 66.619 21.8825C66.9046 22.0848 67.2707 22.186 67.717 22.186C68.1277 22.186 68.4342 22.1027 68.6365 21.936C68.8449 21.7694 68.949 21.5521 68.949 21.2843ZM77.7694 14.3388V11.9374H74.7609V14.3388H73.5289V16.4278H74.7609V21.2218C74.7609 22.2157 75.0078 22.9567 75.5018 23.4447C75.9958 23.9328 76.7606 24.1768 77.7962 24.1768C78.3854 24.1768 78.9508 24.0905 79.4924 23.9179V21.7664C79.29 21.8021 79.04 21.82 78.7425 21.82C78.3556 21.82 78.0967 21.7485 77.9658 21.6057C77.8348 21.4629 77.7694 21.2099 77.7694 20.8469V16.4278H79.3584V14.3388H77.7694ZM86.9915 23.9982C86.8843 23.8018 86.7891 23.5132 86.7058 23.1323C86.1523 23.8286 85.3786 24.1768 84.3847 24.1768C83.4741 24.1768 82.7004 23.903 82.0636 23.3555C81.4268 22.802 81.1083 22.1086 81.1083 21.2754C81.1083 20.2279 81.4952 19.4364 82.2689 18.9007C83.0426 18.3651 84.1675 18.0973 85.6434 18.0973H86.5719V17.5884C86.5719 16.7016 86.188 16.2582 85.4203 16.2582C84.7061 16.2582 84.349 16.6094 84.349 17.3116H81.3405C81.3405 16.3772 81.7362 15.6184 82.5278 15.0352C83.3253 14.4519 84.34 14.1603 85.572 14.1603C86.804 14.1603 87.7771 14.4608 88.4913 15.062C89.2055 15.6631 89.5715 16.4874 89.5893 17.5348V21.811C89.6012 22.6978 89.7381 23.3763 90 23.8465V23.9982H86.9915ZM85.1078 22.0342C85.4827 22.0342 85.7922 21.9539 86.0362 21.7932C86.2862 21.6325 86.4648 21.451 86.5719 21.2486V19.7042H85.697C84.6495 19.7042 84.1258 20.1744 84.1258 21.1147C84.1258 21.3885 84.218 21.6117 84.4025 21.7843C84.587 21.9509 84.8221 22.0342 85.1078 22.0342Z" fill="black"/>
</symbol>
<symbol id="icon-line" viewBox="0 0 2 36">
<path fill="none" stroke="#E0E5EB" style="fill: var(--color1, #E0E5EB)" d="M1 0V36"></path>
</symbol>
<symbol id="icon-calculator" viewBox="0 0 32 32">
<path fill="#52555f" style="fill: var(--color1, #52555f)" d="M27.25 0h-22.5c-1.551 0-2.813 1.262-2.813 2.813v26.375c0 1.551 1.262 2.812 2.813 2.812h22.5c1.551 0 2.813-1.262 2.813-2.812v-26.375c0-1.551-1.262-2.813-2.813-2.813zM28.188 29.188c0 0.517-0.421 0.937-0.938 0.937h-22.5c-0.517 0-0.938-0.42-0.938-0.937v-26.375c0-0.517 0.421-0.938 0.938-0.938h22.5c0.517 0 0.938 0.421 0.938 0.938v26.375z"></path>
<path fill="#52555f" style="fill: var(--color1, #52555f)" d="M25.375 3.75h-18.75c-0.518 0-0.938 0.42-0.938 0.938v7.625c0 0.518 0.42 0.938 0.938 0.938h18.75c0.518 0 0.937-0.42 0.937-0.938v-7.625c0-0.518-0.42-0.938-0.937-0.938zM24.437 11.375h-16.875v-5.75h16.875v5.75z"></path>
<path fill="#52555f" style="fill: var(--color1, #52555f)" d="M10.375 15.125h-3.75c-0.518 0-0.938 0.42-0.938 0.938v3.75c0 0.518 0.42 0.938 0.938 0.938h3.75c0.518 0 0.938-0.42 0.938-0.938v-3.75c0-0.518-0.42-0.938-0.938-0.938zM9.438 18.875h-1.875v-1.875h1.875v1.875z"></path>
<path fill="#52555f" style="fill: var(--color1, #52555f)" d="M10.375 22.625h-3.75c-0.518 0-0.938 0.42-0.938 0.938v3.75c0 0.518 0.42 0.937 0.938 0.937h3.75c0.518 0 0.938-0.42 0.938-0.937v-3.75c0-0.518-0.42-0.938-0.938-0.938zM9.438 26.375h-1.875v-1.875h1.875v1.875z"></path>
<path fill="#52555f" style="fill: var(--color1, #52555f)" d="M17.875 15.125h-3.75c-0.518 0-0.938 0.42-0.938 0.938v3.75c0 0.518 0.42 0.938 0.938 0.938h3.75c0.518 0 0.937-0.42 0.937-0.938v-3.75c0-0.518-0.42-0.938-0.937-0.938zM16.937 18.875h-1.875v-1.875h1.875v1.875z"></path>
<path fill="#52555f" style="fill: var(--color1, #52555f)" d="M17.875 22.625h-3.75c-0.518 0-0.938 0.42-0.938 0.938v3.75c0 0.518 0.42 0.937 0.938 0.937h3.75c0.518 0 0.937-0.42 0.937-0.937v-3.75c0-0.518-0.42-0.938-0.937-0.938zM16.937 26.375h-1.875v-1.875h1.875v1.875z"></path>
<path fill="#52555f" style="fill: var(--color1, #52555f)" d="M25.375 15.125h-3.75c-0.518 0-0.937 0.42-0.937 0.938v11.25c0 0.518 0.42 0.937 0.937 0.937h3.75c0.518 0 0.937-0.42 0.937-0.937v-11.25c0-0.518-0.42-0.938-0.937-0.938zM24.437 26.375h-1.875v-9.375h1.875v9.375z"></path>
</symbol>
<symbol fill="none" xmlns="http://www.w3.org/2000/svg" viewBox="0 0 20 20" id="icon-calendar">
<path d="M17.4754 2.06715H16.1634V1.74609C16.1634 1.4225 15.9011 1.16016 15.5775 1.16016C15.2539 1.16016 14.9916 1.4225 14.9916 1.74609V2.06715H13.3747V1.74609C13.3747 1.4225 13.1123 1.16016 12.7887 1.16016C12.4652 1.16016 12.2028 1.4225 12.2028 1.74609V2.06715H10.5859V1.74609C10.5859 1.4225 10.3236 1.16016 10 1.16016C9.67641 1.16016 9.41406 1.4225 9.41406 1.74609V2.06715H7.79719V1.74609C7.79719 1.4225 7.53484 1.16016 7.21125 1.16016C6.88766 1.16016 6.62531 1.4225 6.62531 1.74609V2.06715H5.00844V1.74609C5.00844 1.4225 4.74609 1.16016 4.4225 1.16016C4.09891 1.16016 3.83656 1.4225 3.83656 1.74609V2.06715H2.52461C1.13254 2.06715 0 3.19969 0 4.59172V16.3157C0 17.7078 1.13254 18.8403 2.52461 18.8403H17.4754C18.8675 18.8403 20 17.7078 20 16.3157V4.59172C20 3.19969 18.8675 2.06715 17.4754 2.06715ZM18.8281 16.3157C18.8281 17.0616 18.2213 17.6684 17.4754 17.6684H2.52461C1.77871 17.6684 1.17188 17.0616 1.17188 16.3157V6.73258H18.8281V16.3157ZM18.8281 5.5607H1.17188V4.59172C1.17188 3.84586 1.77871 3.23902 2.52461 3.23902H3.83656V3.46555C3.83656 3.78914 4.09891 4.05148 4.4225 4.05148C4.74609 4.05148 5.00844 3.78914 5.00844 3.46555V3.23902H6.62531V3.46555C6.62531 3.78914 6.88766 4.05148 7.21125 4.05148C7.53484 4.05148 7.79719 3.78914 7.79719 3.46555V3.23902H9.41406V3.46555C9.41406 3.78914 9.67641 4.05148 10 4.05148C10.3236 4.05148 10.5859 3.78914 10.5859 3.46555V3.23902H12.2028V3.46555C12.2028 3.78914 12.4652 4.05148 12.7887 4.05148C13.1123 4.05148 13.3747 3.78914 13.3747 3.46555V3.23902H14.9916V3.46555C14.9916 3.78914 15.2539 4.05148 15.5775 4.05148C15.9011 4.05148 16.1634 3.78914 16.1634 3.46555V3.23902H17.4754C18.2213 3.23902 18.8281 3.84586 18.8281 4.59172V5.5607Z" fill="#52555F"></path>
<path d="M6.5318 7.98145H4.21973C3.89613 7.98145 3.63379 8.24379 3.63379 8.56738V10.9595C3.63379 11.2831 3.89613 11.5455 4.21973 11.5455H6.5318C6.85539 11.5455 7.11773 11.2831 7.11773 10.9595V8.56738C7.11773 8.24379 6.85543 7.98145 6.5318 7.98145ZM5.94586 10.3736H4.80566V9.15332H5.94586V10.3736Z" fill="#52555F"></path>
<path d="M11.1561 7.98145H8.84399C8.5204 7.98145 8.25806 8.24379 8.25806 8.56738V10.9595C8.25806 11.2831 8.5204 11.5455 8.84399 11.5455H11.1561C11.4797 11.5455 11.742 11.2831 11.742 10.9595V8.56738C11.742 8.24379 11.4797 7.98145 11.1561 7.98145ZM10.5701 10.3736H9.42993V9.15332H10.5701V10.3736Z" fill="#52555F"></path>
<path d="M15.7802 7.98145H13.4681C13.1445 7.98145 12.8822 8.24379 12.8822 8.56738V10.9595C12.8822 11.2831 13.1445 11.5455 13.4681 11.5455H15.7802C16.1038 11.5455 16.3661 11.2831 16.3661 10.9595V8.56738C16.3661 8.24379 16.1038 7.98145 15.7802 7.98145ZM15.1943 10.3736H14.0541V9.15332H15.1943V10.3736Z" fill="#52555F"></path>
<path d="M6.5318 12.5259H4.21973C3.89613 12.5259 3.63379 12.7882 3.63379 13.1118V15.504C3.63379 15.8276 3.89613 16.0899 4.21973 16.0899H6.5318C6.85539 16.0899 7.11773 15.8276 7.11773 15.504V13.1118C7.11773 12.7882 6.85543 12.5259 6.5318 12.5259ZM5.94586 14.9181H4.80566V13.6978H5.94586V14.9181Z" fill="#52555F"></path>
<path d="M11.1561 12.5259H8.84399C8.5204 12.5259 8.25806 12.7882 8.25806 13.1118V15.504C8.25806 15.8276 8.5204 16.0899 8.84399 16.0899H11.1561C11.4797 16.0899 11.742 15.8276 11.742 15.504V13.1118C11.742 12.7882 11.4797 12.5259 11.1561 12.5259ZM10.5701 14.9181H9.42993V13.6978H10.5701V14.9181Z" fill="#52555F"></path>
<path d="M15.7802 12.5259H13.4681C13.1445 12.5259 12.8822 12.7882 12.8822 13.1118V15.504C12.8822 15.8276 13.1445 16.0899 13.4681 16.0899H15.7802C16.1038 16.0899 16.3661 15.8276 16.3661 15.504V13.1118C16.3661 12.7882 16.1038 12.5259 15.7802 12.5259ZM15.1943 14.9181H14.0541V13.6978H15.1943V14.9181Z" fill="#52555F"></path>
</symbol>
<symbol id="icon-delete" viewBox="0 0 32 32">
<path fill="#52555f" style="fill: var(--color1, #52555f)" d="M28.992 7.153l-0.706-2.118c-0.269-0.807-1.021-1.349-1.871-1.349h-5.938v-1.933c0-0.966-0.786-1.753-1.752-1.753h-5.438c-0.966 0-1.752 0.786-1.752 1.753v1.933h-5.938c-0.85 0-1.603 0.542-1.872 1.349l-0.707 2.118c-0.161 0.482-0.079 1.016 0.218 1.428s0.778 0.659 1.286 0.659h0.739l1.625 20.1c0.121 1.491 1.386 2.66 2.882 2.66h12.804c1.495 0 2.761-1.169 2.882-2.66l1.625-20.1h0.409c0.508 0 0.989-0.246 1.286-0.658s0.379-0.947 0.218-1.429zM13.409 1.875h5.191v1.811h-5.191v-1.811zM23.585 29.189c-0.043 0.525-0.487 0.936-1.013 0.936h-12.804c-0.525 0-0.97-0.411-1.013-0.936l-1.614-19.949h18.056l-1.613 19.949zM4.924 7.365l0.579-1.737c0.013-0.040 0.051-0.067 0.093-0.067h20.818c0.042 0 0.079 0.027 0.093 0.067l0.579 1.737h-22.162z"></path>
<path fill="#52555f" style="fill: var(--color1, #52555f)" d="M20.595 29.122c0.017 0.001 0.033 0.001 0.050 0.001 0.495 0 0.909-0.388 0.935-0.889l0.88-16.9c0.027-0.517-0.371-0.958-0.887-0.985-0.518-0.028-0.958 0.37-0.985 0.887l-0.88 16.9c-0.027 0.517 0.37 0.958 0.887 0.985z"></path>
<path fill="#52555f" style="fill: var(--color1, #52555f)" d="M10.473 28.237c0.027 0.5 0.441 0.886 0.935 0.886 0.017 0 0.035-0 0.052-0.001 0.517-0.028 0.913-0.47 0.885-0.987l-0.922-16.9c-0.028-0.517-0.47-0.913-0.987-0.885s-0.913 0.47-0.885 0.987l0.922 16.9z"></path>
<path fill="#52555f" style="fill: var(--color1, #52555f)" d="M16.016 29.124c0.518 0 0.938-0.42 0.938-0.938v-16.9c0-0.518-0.42-0.938-0.938-0.938s-0.938 0.42-0.938 0.938v16.9c0 0.518 0.42 0.938 0.938 0.938z"></path>
</symbol>
<symbol id="icon-logout" viewBox="0 0 32 32">
<path fill="#cbccd0" style="fill: var(--color2, #cbccd0)" d="M20 28h-16v-24h16v2h4v-6h-24v32h24v-6h-4v2h-0z"></path>
<path fill="#cbccd0" style="fill: var(--color2, #cbccd0)" d="M24.586 8.586l-2.828 2.828 2.586 2.586h-10.344v4h10.344l-2.586 2.586 2.828 2.828 7.414-7.414-7.414-7.414z"></path>
</symbol>
<symbol id="icon-statistic" viewBox="0 0 32 32">
<path fill="#52555f" style="fill: var(--color1, #52555f)" d="M6.667 12.267h4v13.067h-4v-13.067zM14.133 6.667h3.733v18.667h-3.733v-18.667zM21.6 17.333h3.733v8h-3.733v-8z"></path>
</symbol>
<symbol id="icon-arrowLeft" viewBox="0 0 32 32">
<path fill="none" stroke="#ff751d" style="stroke: var(--color3, #ff751d)" stroke-linejoin="miter" stroke-linecap="butt" stroke-miterlimit="4" stroke-width="5.3333" d="M22.667 2.667l-10.667 13.333 10.667 13.333"></path>
</symbol>
<symbol id="icon-arrowRight" viewBox="0 0 32 32">
<path fill="none" stroke="#ff751d" style="stroke: var(--color3, #ff751d)" stroke-linejoin="miter" stroke-linecap="butt" stroke-miterlimit="4" stroke-width="5.3333" d="M9.333 2.667l10.667 13.333-10.667 13.333"></path>
</symbol>
<symbol id="icon-backspace" viewBox="0 0 32 32">
<path fill="#ff751d" style="fill: var(--color3, #ff751d)" d="M28 14.667h-18.893l4.773-4.787-1.88-1.88-8 8 8 8 1.88-1.88-4.773-4.787h18.893v-2.667z"></path>
</symbol>
<symbol fill="none" xmlns="http://www.w3.org/2000/svg" viewBox="0 0 18 12" id="icon-arrowGoBack">
<path d="M18 5H3.83l3.58-3.59L6 0 0 6l6 6 1.41-1.41L3.83 7H18V5Z" fill="#FF751D"></path>
</symbol>
<symbol  xmlns="http://www.w3.org/2000/svg" viewBox="0 0 14 14" id="icon-stats">
    <path d="M0 4.2H3V14H0V4.2ZM5.6 0H8.4V14H5.6V0ZM11.2 8H14V14H11.2V8Z" 
    ></path>
  </symbol>
</defs>
</svg>
